  0
SECTION
  2
HEADER
  9
$ACADVER
  1
AC1024
  9
$ACADMAINTVER
 70
6
  9
$DWGCODEPAGE
  3
ANSI_1252
  9
$LASTSAVEDBY
  1
ezdxf
  9
$INSBASE
 10
0.0
 20
0.0
 30
0.0
  9
$EXTMIN
 10
1e+20
 20
1e+20
 30
1e+20
  9
$EXTMAX
 10
-1e+20
 20
-1e+20
 30
-1e+20
  9
$LIMMIN
 10
0.0
 20
0.0
  9
$LIMMAX
 10
420.0
 20
297.0
  9
$ORTHOMODE
 70
0
  9
$REGENMODE
 70
1
  9
$FILLMODE
 70
1
  9
$QTEXTMODE
 70
0
  9
$MIRRTEXT
 70
1
  9
$LTSCALE
 40
0.5
  9
$ATTMODE
 70
1
  9
$TEXTSIZE
 40
2.5
  9
$TRACEWID
 40
1.0
  9
$TEXTSTYLE
  7
OpenSans
  9
$CLAYER
  8
0
  9
$CELTYPE
  6
ByLayer
  9
$CECOLOR
 62
256
  9
$CELTSCALE
 40
1.0
  9
$DISPSILH
 70
0
  9
$DIMSCALE
 40
1.0
  9
$DIMASZ
 40
0.175
  9
$DIMEXO
 40
0.125
  9
$DIMDLI
 40
3.75
  9
$DIMRND
 40
0.0
  9
$DIMDLE
 40
0.0
  9
$DIMEXE
 40
0.375
  9
$DIMTP
 40
0.0
  9
$DIMTM
 40
0.0
  9
$DIMTXT
 40
0.25
  9
$DIMCEN
 40
2.5
  9
$DIMTSZ
 40
0.0
  9
$DIMTOL
 70
0
  9
$DIMLIM
 70
0
  9
$DIMTIH
 70
0
  9
$DIMTOH
 70
0
  9
$DIMSE1
 70
0
  9
$DIMSE2
 70
0
  9
$DIMTAD
 70
1
  9
$DIMZIN
 70
12
  9
$DIMBLK
  1
ARCHTICK
  9
$DIMASO
 70
1
  9
$DIMSHO
 70
1
  9
$DIMPOST
  1

  9
$DIMAPOST
  1

  9
$DIMALT
 70
0
  9
$DIMALTD
 70
3
  9
$DIMALTF
 40
0.03937007874
  9
$DIMLFAC
 40
100.0
  9
$DIMTOFL
 70
1
  9
$DIMTVP
 40
0.0
  9
$DIMTIX
 70
0
  9
$DIMSOXD
 70
0
  9
$DIMSAH
 70
0
  9
$DIMBLK1
  1

  9
$DIMBLK2
  1

  9
$DIMSTYLE
  2
EZDXF
  9
$DIMCLRD
 70
0
  9
$DIMCLRE
 70
0
  9
$DIMCLRT
 70
0
  9
$DIMTFAC
 40
0.5
  9
$DIMGAP
 40
0.1
  9
$DIMJUST
 70
0
  9
$DIMSD1
 70
0
  9
$DIMSD2
 70
0
  9
$DIMTOLJ
 70
0
  9
$DIMTZIN
 70
8
  9
$DIMALTZ
 70
0
  9
$DIMALTTZ
 70
0
  9
$DIMUPT
 70
1
  9
$DIMDEC
 70
2
  9
$DIMTDEC
 70
2
  9
$DIMALTU
 70
2
  9
$DIMALTTD
 70
3
  9
$DIMTXSTY
  7
OpenSansCondensed-Light
  9
$DIMAUNIT
 70
0
  9
$DIMADEC
 70
2
  9
$DIMALTRND
 40
0.0
  9
$DIMAZIN
 70
3
  9
$DIMDSEP
 70
46
  9
$DIMATFIT
 70
3
  9
$DIMFRAC
 70
0
  9
$DIMLDRBLK
  1

  9
$DIMLUNIT
 70
2
  9
$DIMLWD
 70
-2
  9
$DIMLWE
 70
-2
  9
$DIMTMOVE
 70
2
  9
$DIMFXL
 40
1.0
  9
$DIMFXLON
 70
0
  9
$DIMJOGANG
 40
0.785398163397
  9
$DIMTFILL
 70
0
  9
$DIMTFILLCLR
 70
0
  9
$DIMARCSYM
 70
0
  9
$DIMLTYPE
  6

  9
$DIMLTEX1
  6

  9
$DIMLTEX2
  6

  9
$DIMTXTDIRECTION
 70
0
  9
$LUNITS
 70
2
  9
$LUPREC
 70
4
  9
$SKETCHINC
 40
1.0
  9
$FILLETRAD
 40
10.0
  9
$AUNITS
 70
0
  9
$AUPREC
 70
2
  9
$MENU
  1
.
  9
$ELEVATION
 40
0.0
  9
$PELEVATION
 40
0.0
  9
$THICKNESS
 40
0.0
  9
$LIMCHECK
 70
0
  9
$CHAMFERA
 40
0.0
  9
$CHAMFERB
 40
0.0
  9
$CHAMFERC
 40
0.0
  9
$CHAMFERD
 40
0.0
  9
$SKPOLY
 70
0
  9
$TDCREATE
 40
2461315.724872685
  9
$TDUCREATE
 40
2458532.153996898
  9
$TDUPDATE
 40
2461315.7248958335
  9
$TDUUPDATE
 40
2458532.1544311
  9
$TDINDWG
 40
0.0
  9
$TDUSRTIMER
 40
0.0
  9
$USRTIMER
 70
1
  9
$ANGBASE
 50
0.0
  9
$ANGDIR
 70
0
  9
$PDMODE
 70
0
  9
$PDSIZE
 40
0.0
  9
$PLINEWID
 40
0.0
  9
$SPLFRAME
 70
0
  9
$SPLINETYPE
 70
6
  9
$SPLINESEGS
 70
8
  9
$HANDSEED
  5
4C1
  9
$SURFTAB1
 70
6
  9
$SURFTAB2
 70
6
  9
$SURFTYPE
 70
6
  9
$SURFU
 70
6
  9
$SURFV
 70
6
  9
$UCSBASE
  2

  9
$UCSNAME
  2

  9
$UCSORG
 10
0.0
 20
0.0
 30
0.0
  9
$UCSXDIR
 10
1.0
 20
0.0
 30
0.0
  9
$UCSYDIR
 10
0.0
 20
1.0
 30
0.0
  9
$UCSORTHOREF
  2

  9
$UCSORTHOVIEW
 70
0
  9
$UCSORGTOP
 10
0.0
 20
0.0
 30
0.0
  9
$UCSORGBOTTOM
 10
0.0
 20
0.0
 30
0.0
  9
$UCSORGLEFT
 10
0.0
 20
0.0
 30
0.0
  9
$UCSORGRIGHT
 10
0.0
 20
0.0
 30
0.0
  9
$UCSORGFRONT
 10
0.0
 20
0.0
 30
0.0
  9
$UCSORGBACK
 10
0.0
 20
0.0
 30
0.0
  9
$PUCSBASE
  2

  9
$PUCSNAME
  2

  9
$PUCSORG
 10
0.0
 20
0.0
 30
0.0
  9
$PUCSXDIR
 10
1.0
 20
0.0
 30
0.0
  9
$PUCSYDIR
 10
0.0
 20
1.0
 30
0.0
  9
$PUCSORTHOREF
  2

  9
$PUCSORTHOVIEW
 70
0
  9
$PUCSORGTOP
 10
0.0
 20
0.0
 30
0.0
  9
$PUCSORGBOTTOM
 10
0.0
 20
0.0
 30
0.0
  9
$PUCSORGLEFT
 10
0.0
 20
0.0
 30
0.0
  9
$PUCSORGRIGHT
 10
0.0
 20
0.0
 30
0.0
  9
$PUCSORGFRONT
 10
0.0
 20
0.0
 30
0.0
  9
$PUCSORGBACK
 10
0.0
 20
0.0
 30
0.0
  9
$USERI1
 70
0
  9
$USERI2
 70
0
  9
$USERI3
 70
0
  9
$USERI4
 70
0
  9
$USERI5
 70
0
  9
$USERR1
 40
0.0
  9
$USERR2
 40
0.0
  9
$USERR3
 40
0.0
  9
$USERR4
 40
0.0
  9
$USERR5
 40
0.0
  9
$WORLDVIEW
 70
1
  9
$SHADEDGE
 70
3
  9
$SHADEDIF
 70
70
  9
$TILEMODE
 70
1
  9
$MAXACTVP
 70
64
  9
$PINSBASE
 10
0.0
 20
0.0
 30
0.0
  9
$PLIMCHECK
 70
0
  9
$PEXTMIN
 10
1e+20
 20
1e+20
 30
1e+20
  9
$PEXTMAX
 10
-1e+20
 20
-1e+20
 30
-1e+20
  9
$PLIMMIN
 10
0.0
 20
0.0
  9
$PLIMMAX
 10
420.0
 20
297.0
  9
$UNITMODE
 70
0
  9
$VISRETAIN
 70
1
  9
$PLINEGEN
 70
0
  9
$PSLTSCALE
 70
1
  9
$TREEDEPTH
 70
3020
  9
$CMLSTYLE
  2
Standard
  9
$CMLJUST
 70
0
  9
$CMLSCALE
 40
20.0
  9
$PROXYGRAPHICS
 70
1
  9
$MEASUREMENT
 70
1
  9
$CELWEIGHT
370
-1
  9
$ENDCAPS
280
0
  9
$JOINSTYLE
280
0
  9
$LWDISPLAY
290
0
  9
$INSUNITS
 70
4
  9
$HYPERLINKBASE
  1

  9
$STYLESHEET
  1

  9
$XEDIT
290
1
  9
$CEPSNTYPE
380
0
  9
$PSTYLEMODE
290
1
  9
$FINGERPRINTGUID
  2
{41A1191C-9115-497B-A482-B58AFF5CC511}
  9
$VERSIONGUID
  2
{200D752F-68F0-4619-928C-5D6153928E16}
  9
$EXTNAMES
290
1
  9
$PSVPSCALE
 40
0.0
  9
$OLESTARTUP
290
0
  9
$SORTENTS
280
127
  9
$INDEXCTL
280
0
  9
$HIDETEXT
280
1
  9
$XCLIPFRAME
280
1
  9
$HALOGAP
280
0
  9
$OBSCOLOR
 70
257
  9
$OBSLTYPE
280
0
  9
$INTERSECTIONDISPLAY
280
0
  9
$INTERSECTIONCOLOR
 70
257
  9
$DIMASSOC
280
2
  9
$PROJECTNAME
  1

  9
$CAMERADISPLAY
290
0
  9
$LENSLENGTH
 40
50.0
  9
$CAMERAHEIGHT
 40
0.0
  9
$STEPSPERSEC
 40
24.0
  9
$STEPSIZE
 40
100.0
  9
$3DDWFPREC
 40
2.0
  9
$PSOLWIDTH
 40
0.005
  9
$PSOLHEIGHT
 40
0.08
  9
$LOFTANG1
 40
1.570796326795
  9
$LOFTANG2
 40
1.570796326795
  9
$LOFTMAG1
 40
0.0
  9
$LOFTMAG2
 40
0.0
  9
$LOFTPARAM
 70
7
  9
$LOFTNORMALS
280
1
  9
$LATITUDE
 40
37.795
  9
$LONGITUDE
 40
-122.394
  9
$NORTHDIRECTION
 40
0.0
  9
$TIMEZONE
 70
-8000
  9
$LIGHTGLYPHDISPLAY
280
1
  9
$TILEMODELIGHTSYNCH
280
1
  9
$CMATERIAL
347
20
  9
$SOLIDHIST
280
0
  9
$SHOWHIST
280
1
  9
$DWFFRAME
280
2
  9
$DGNFRAME
280
2
  9
$REALWORLDSCALE
290
1
  9
$INTERFERECOLOR
 62
256
  9
$CSHADOW
280
0
  9
$SHADOWPLANELOCATION
 40
0.0
  0
ENDSEC
  0
SECTION
  2
CLASSES
  0
CLASS
  1
ACDBDICTIONARYWDFLT
  2
AcDbDictionaryWithDefault
  3
ObjectDBX Classes
 90
0
 91
0
280
0
281
0
  0
CLASS
  1
SUN
  2
AcDbSun
  3
SCENEOE
 90
1153
 91
0
280
0
281
0
  0
CLASS
  1
VISUALSTYLE
  2
AcDbVisualStyle
  3
ObjectDBX Classes
 90
4095
 91
0
280
0
281
0
  0
CLASS
  1
MATERIAL
  2
AcDbMaterial
  3
ObjectDBX Classes
 90
1153
 91
0
280
0
281
0
  0
CLASS
  1
SCALE
  2
AcDbScale
  3
ObjectDBX Classes
 90
1153
 91
0
280
0
281
0
  0
CLASS
  1
TABLESTYLE
  2
AcDbTableStyle
  3
ObjectDBX Classes
 90
4095
 91
0
280
0
281
0
  0
CLASS
  1
MLEADERSTYLE
  2
AcDbMLeaderStyle
  3
ACDB_MLEADERSTYLE_CLASS
 90
4095
 91
0
280
0
281
0
  0
CLASS
  1
DICTIONARYVAR
  2
AcDbDictionaryVar
  3
ObjectDBX Classes
 90
0
 91
0
280
0
281
0
  0
CLASS
  1
CELLSTYLEMAP
  2
AcDbCellStyleMap
  3
ObjectDBX Classes
 90
1152
 91
0
280
0
281
0
  0
CLASS
  1
MENTALRAYRENDERSETTINGS
  2
AcDbMentalRayRenderSettings
  3
SCENEOE
 90
1024
 91
0
280
0
281
0
  0
CLASS
  1
ACDBDETAILVIEWSTYLE
  2
AcDbDetailViewStyle
  3
ObjectDBX Classes
 90
1025
 91
0
280
0
281
0
  0
CLASS
  1
ACDBSECTIONVIEWSTYLE
  2
AcDbSectionViewStyle
  3
ObjectDBX Classes
 90
1025
 91
0
280
0
281
0
  0
CLASS
  1
RASTERVARIABLES
  2
AcDbRasterVariables
  3
ISM
 90
0
 91
0
280
0
281
0
  0
CLASS
  1
ACDBPLACEHOLDER
  2
AcDbPlaceHolder
  3
ObjectDBX Classes
 90
0
 91
0
280
0
281
0
  0
CLASS
  1
LAYOUT
  2
AcDbLayout
  3
ObjectDBX Classes
 90
0
 91
0
280
0
281
0
  0
ENDSEC
  0
SECTION
  2
TABLES
  0
TABLE
  2
VPORT
  5
8
330
0
100
AcDbSymbolTable
 70
1
  0
VPORT
  5
23
330
8
100
AcDbSymbolTableRecord
100
AcDbViewportTableRecord
  2
*Active
 70
0
 10
0.0
 20
0.0
 11
1.0
 21
1.0
 12
0.0
 22
0.0
 13
0.0
 23
0.0
 14
0.5
 24
0.5
 15
0.5
 25
0.5
 16
0.0
 26
0.0
 36
1.0
 17
0.0
 27
0.0
 37
0.0
 40
1000.0
 41
1.34
 42
50.0
 43
0.0
 44
0.0
 50
0.0
 51
0.0
 71
0
 72
1000
 73
1
 74
3
 75
0
 76
0
 77
0
 78
0
281
0
 65
0
146
0.0
  0
ENDTAB
  0
TABLE
  2
LTYPE
  5
2
330
0
100
AcDbSymbolTable
 70
21
  0
LTYPE
  5
24
330
2
100
AcDbSymbolTableRecord
100
AcDbLinetypeTableRecord
  2
ByBlock
 70
0
  3

 72
65
 73
0
 40
0.0
  0
LTYPE
  5
25
330
2
100
AcDbSymbolTableRecord
100
AcDbLinetypeTableRecord
  2
ByLayer
 70
0
  3

 72
65
 73
0
 40
0.0
  0
LTYPE
  5
26
330
2
100
AcDbSymbolTableRecord
100
AcDbLinetypeTableRecord
  2
Continuous
 70
0
  3

 72
65
 73
0
 40
0.0
  0
LTYPE
  5
2F
330
2
100
AcDbSymbolTableRecord
100
AcDbLinetypeTableRecord
  2
CENTER
 70
0
  3
Center ____ _ ____ _ ____ _ ____ _ ____ _ ____
 72
65
 73
4
 40
5.08
 49
3.175
 74
0
 49
-0.635
 74
0
 49
0.635
 74
0
 49
-0.635
 74
0
  0
LTYPE
  5
30
330
2
100
AcDbSymbolTableRecord
100
AcDbLinetypeTableRecord
  2
CENTERX2
 70
0
  3
Center (2x) ________  __  ________  __  ________
 72
65
 73
4
 40
8.89
 49
6.35
 74
0
 49
-0.635
 74
0
 49
1.27
 74
0
 49
-0.635
 74
0
  0
LTYPE
  5
31
330
2
100
AcDbSymbolTableRecord
100
AcDbLinetypeTableRecord
  2
CENTER2
 70
0
  3
Center (.5x) ____ _ ____ _ ____ _ ____ _ ____
 72
65
 73
4
 40
2.54
 49
1.587
 74
0
 49
-0.318
 74
0
 49
0.318
 74
0
 49
-0.318
 74
0
  0
LTYPE
  5
32
330
2
100
AcDbSymbolTableRecord
100
AcDbLinetypeTableRecord
  2
DASHED
 70
0
  3
Dashed __ __ __ __ __ __ __ __ __ __ __ __ __ _
 72
65
 73
2
 40
1.524
 49
1.27
 74
0
 49
-0.254
 74
0
  0
LTYPE
  5
33
330
2
100
AcDbSymbolTableRecord
100
AcDbLinetypeTableRecord
  2
DASHEDX2
 70
0
  3
Dashed (2x) ____  ____  ____  ____  ____  ____
 72
65
 73
2
 40
3.048
 49
2.54
 74
0
 49
-0.508
 74
0
  0
LTYPE
  5
34
330
2
100
AcDbSymbolTableRecord
100
AcDbLinetypeTableRecord
  2
DASHED2
 70
0
  3
Dashed (.5x) _ _ _ _ _ _ _ _ _ _ _ _ _ _
 72
65
 73
2
 40
0.762
 49
0.635
 74
0
 49
-0.127
 74
0
  0
LTYPE
  5
35
330
2
100
AcDbSymbolTableRecord
100
AcDbLinetypeTableRecord
  2
PHANTOM
 70
0
  3
Phantom ______  __  __  ______  __  __  ______
 72
65
 73
6
 40
6.35
 49
3.175
 74
0
 49
-0.635
 74
0
 49
0.635
 74
0
 49
-0.635
 74
0
 49
0.635
 74
0
 49
-0.635
 74
0
  0
LTYPE
  5
36
330
2
100
AcDbSymbolTableRecord
100
AcDbLinetypeTableRecord
  2
PHANTOMX2
 70
0
  3
Phantom (2x)____________    ____    ____    ____________
 72
65
 73
6
 40
10.795
 49
6.35
 74
0
 49
-0.635
 74
0
 49
1.27
 74
0
 49
-0.635
 74
0
 49
1.27
 74
0
 49
-0.635
 74
0
  0
LTYPE
  5
37
330
2
100
AcDbSymbolTableRecord
100
AcDbLinetypeTableRecord
  2
PHANTOM2
 70
0
  3
Phantom (.5x) ___ _ _ ___ _ _ ___ _ _ ___ _ _ ___
 72
65
 73
6
 40
3.175
 49
1.587
 74
0
 49
-0.318
 74
0
 49
0.318
 74
0
 49
-0.318
 74
0
 49
0.318
 74
0
 49
-0.318
 74
0
  0
LTYPE
  5
38
330
2
100
AcDbSymbolTableRecord
100
AcDbLinetypeTableRecord
  2
DASHDOT
 70
0
  3
Dash dot __ . __ . __ . __ . __ . __ . __ . __
 72
65
 73
4
 40
3.556
 49
2.54
 74
0
 49
-0.508
 74
0
 49
0.0
 74
0
 49
-0.508
 74
0
  0
LTYPE
  5
39
330
2
100
AcDbSymbolTableRecord
100
AcDbLinetypeTableRecord
  2
DASHDOTX2
 70
0
  3
Dash dot (2x) ____  .  ____  .  ____  .  ____
 72
65
 73
4
 40
6.096
 49
5.08
 74
0
 49
-0.508
 74
0
 49
0.0
 74
0
 49
-0.508
 74
0
  0
LTYPE
  5
3A
330
2
100
AcDbSymbolTableRecord
100
AcDbLinetypeTableRecord
  2
DASHDOT2
 70
0
  3
Dash dot (.5x) _ . _ . _ . _ . _ . _ . _ . _
 72
65
 73
4
 40
1.778
 49
1.27
 74
0
 49
-0.254
 74
0
 49
0.0
 74
0
 49
-0.254
 74
0
  0
LTYPE
  5
3B
330
2
100
AcDbSymbolTableRecord
100
AcDbLinetypeTableRecord
  2
DOT
 70
0
  3
Dot .  .  .  .  .  .  .  .  .  .  .  .  .  .  .  .
 72
65
 73
2
 40
0.508
 49
0.0
 74
0
 49
-0.508
 74
0
  0
LTYPE
  5
3C
330
2
100
AcDbSymbolTableRecord
100
AcDbLinetypeTableRecord
  2
DOTX2
 70
0
  3
Dot (2x) .    .    .    .    .    .    .    . 
 72
65
 73
2
 40
1.016
 49
0.0
 74
0
 49
-1.016
 74
0
  0
LTYPE
  5
3D
330
2
100
AcDbSymbolTableRecord
100
AcDbLinetypeTableRecord
  2
DOT2
 70
0
  3
Dot (.5) . . . . . . . . . . . . . . . . . . . 
 72
65
 73
2
 40
0.254
 49
0.0
 74
0
 49
-0.254
 74
0
  0
LTYPE
  5
3E
330
2
100
AcDbSymbolTableRecord
100
AcDbLinetypeTableRecord
  2
DIVIDE
 70
0
  3
Divide __ . . __ . . __ . . __ . . __ . . __
 72
65
 73
6
 40
4.064
 49
2.54
 74
0
 49
-0.508
 74
0
 49
0.0
 74
0
 49
-0.508
 74
0
 49
0.0
 74
0
 49
-0.508
 74
0
  0
LTYPE
  5
3F
330
2
100
AcDbSymbolTableRecord
100
AcDbLinetypeTableRecord
  2
DIVIDEX2
 70
0
  3
Divide (2x) ____  . .  ____  . .  ____  . .  ____
 72
65
 73
6
 40
6.604
 49
5.08
 74
0
 49
-0.508
 74
0
 49
0.0
 74
0
 49
-0.508
 74
0
 49
0.0
 74
0
 49
-0.508
 74
0
  0
LTYPE
  5
40
330
2
100
AcDbSymbolTableRecord
100
AcDbLinetypeTableRecord
  2
DIVIDE2
 70
0
  3
Divide(.5x) _ . _ . _ . _ . _ . _ . _ . _
 72
65
 73
6
 40
2.032
 49
1.27
 74
0
 49
-0.254
 74
0
 49
0.0
 74
0
 49
-0.254
 74
0
 49
0.0
 74
0
 49
-0.254
 74
0
  0
ENDTAB
  0
TABLE
  2
LAYER
  5
1
330
0
100
AcDbSymbolTable
 70
12
  0
LAYER
  5
27
330
1
100
AcDbSymbolTableRecord
100
AcDbLayerTableRecord
  2
0
 70
0
 62
7
  6
Continuous
370
-3
390
13
347
21
  0
LAYER
  5
28
330
1
100
AcDbSymbolTableRecord
100
AcDbLayerTableRecord
  2
Defpoints
 70
0
 62
7
  6
Continuous
290
0
370
-3
390
13
347
21
  0
LAYER
  5
8A
330
1
100
AcDbSymbolTableRecord
100
AcDbLayerTableRecord
  2
Rahmen
 70
0
 62
7
  6
Continuous
370
70
390
13
347
21
  0
LAYER
  5
8B
330
1
100
AcDbSymbolTableRecord
100
AcDbLayerTableRecord
  2
Kontur
 70
0
 62
7
  6
Continuous
370
50
390
13
347
21
  0
LAYER
  5
8C
330
1
100
AcDbSymbolTableRecord
100
AcDbLayerTableRecord
  2
Duenn
 70
0
 62
8
  6
Continuous
370
25
390
13
347
21
  0
LAYER
  5
8D
330
1
100
AcDbSymbolTableRecord
100
AcDbLayerTableRecord
  2
Verdeckt
 70
0
 62
6
  6
DASHED
370
25
390
13
347
21
  0
LAYER
  5
8E
330
1
100
AcDbSymbolTableRecord
100
AcDbLayerTableRecord
  2
Mittellinie
 70
0
 62
1
  6
CENTER
370
25
390
13
347
21
  0
LAYER
  5
8F
330
1
100
AcDbSymbolTableRecord
100
AcDbLayerTableRecord
  2
Schnittverlauf
 70
0
 62
1
  6
CENTER
370
50
390
13
347
21
  0
LAYER
  5
90
330
1
100
AcDbSymbolTableRecord
100
AcDbLayerTableRecord
  2
Schraffur
 70
0
 62
8
  6
Continuous
370
18
390
13
347
21
  0
LAYER
  5
91
330
1
100
AcDbSymbolTableRecord
100
AcDbLayerTableRecord
  2
Bemassung
 70
0
 62
3
  6
Continuous
370
25
390
13
347
21
  0
LAYER
  5
92
330
1
100
AcDbSymbolTableRecord
100
AcDbLayerTableRecord
  2
Text
 70
0
 62
7
  6
Continuous
370
25
390
13
347
21
  0
LAYER
  5
93
330
1
100
AcDbSymbolTableRecord
100
AcDbLayerTableRecord
  2
Schriftfeld
 70
0
 62
7
  6
Continuous
370
35
390
13
347
21
  0
ENDTAB
  0
TABLE
  2
STYLE
  5
5
330
0
100
AcDbSymbolTable
 70
27
  0
STYLE
  5
29
330
5
100
AcDbSymbolTableRecord
100
AcDbTextStyleTableRecord
  2
Standard
 70
0
 40
0.0
 41
1.0
 50
0.0
 71
0
 42
2.5
  3
txt
  4

  0
STYLE
  5
41
330
5
100
AcDbSymbolTableRecord
100
AcDbTextStyleTableRecord
  2
OpenSans-Light
 70
0
 40
0.0
 41
1.0
 50
0.0
 71
0
 42
2.5
  3
OpenSans-Light.ttf
  4

  0
STYLE
  5
42
330
5
100
AcDbSymbolTableRecord
100
AcDbTextStyleTableRecord
  2
OpenSans-Light-Italic
 70
0
 40
0.0
 41
1.0
 50
0.0
 71
0
 42
2.5
  3
OpenSans-LightItalic.ttf
  4

  0
STYLE
  5
43
330
5
100
AcDbSymbolTableRecord
100
AcDbTextStyleTableRecord
  2
OpenSans
 70
0
 40
0.0
 41
1.0
 50
0.0
 71
0
 42
2.5
  3
OpenSans-Regular.ttf
  4

  0
STYLE
  5
44
330
5
100
AcDbSymbolTableRecord
100
AcDbTextStyleTableRecord
  2
OpenSans-Italic
 70
0
 40
0.0
 41
1.0
 50
0.0
 71
0
 42
2.5
  3
OpenSans-Italic.ttf
  4

  0
STYLE
  5
45
330
5
100
AcDbSymbolTableRecord
100
AcDbTextStyleTableRecord
  2
OpenSans-SemiBold
 70
0
 40
0.0
 41
1.0
 50
0.0
 71
0
 42
2.5
  3
OpenSans-SemiBold.ttf
  4

  0
STYLE
  5
46
330
5
100
AcDbSymbolTableRecord
100
AcDbTextStyleTableRecord
  2
OpenSans-SemiBoldItalic
 70
0
 40
0.0
 41
1.0
 50
0.0
 71
0
 42
2.5
  3
OpenSans-SemiBoldItalic.ttf
  4

  0
STYLE
  5
47
330
5
100
AcDbSymbolTableRecord
100
AcDbTextStyleTableRecord
  2
OpenSans-Bold
 70
0
 40
0.0
 41
1.0
 50
0.0
 71
0
 42
2.5
  3
OpenSans-Bold.ttf
  4

  0
STYLE
  5
48
330
5
100
AcDbSymbolTableRecord
100
AcDbTextStyleTableRecord
  2
OpenSans-BoldItalic
 70
0
 40
0.0
 41
1.0
 50
0.0
 71
0
 42
2.5
  3
OpenSans-BoldItalic.ttf
  4

  0
STYLE
  5
49
330
5
100
AcDbSymbolTableRecord
100
AcDbTextStyleTableRecord
  2
OpenSans-ExtraBold
 70
0
 40
0.0
 41
1.0
 50
0.0
 71
0
 42
2.5
  3
OpenSans-ExtraBold.ttf
  4

  0
STYLE
  5
4A
330
5
100
AcDbSymbolTableRecord
100
AcDbTextStyleTableRecord
  2
OpenSans-ExtraBoldItalic
 70
0
 40
0.0
 41
1.0
 50
0.0
 71
0
 42
2.5
  3
OpenSans-ExtraBoldItalic.ttf
  4

  0
STYLE
  5
4B
330
5
100
AcDbSymbolTableRecord
100
AcDbTextStyleTableRecord
  2
OpenSansCondensed-Bold
 70
0
 40
0.0
 41
1.0
 50
0.0
 71
0
 42
2.5
  3
OpenSansCondensed-Bold.ttf
  4

  0
STYLE
  5
4C
330
5
100
AcDbSymbolTableRecord
100
AcDbTextStyleTableRecord
  2
OpenSansCondensed-Light
 70
0
 40
0.0
 41
1.0
 50
0.0
 71
0
 42
2.5
  3
OpenSansCondensed-Light.ttf
  4

  0
STYLE
  5
4D
330
5
100
AcDbSymbolTableRecord
100
AcDbTextStyleTableRecord
  2
OpenSansCondensed-Italic
 70
0
 40
0.0
 41
1.0
 50
0.0
 71
0
 42
2.5
  3
OpenSansCondensed-LightItalic.ttf
  4

  0
STYLE
  5
4E
330
5
100
AcDbSymbolTableRecord
100
AcDbTextStyleTableRecord
  2
LiberationSans
 70
0
 40
0.0
 41
1.0
 50
0.0
 71
0
 42
2.5
  3
LiberationSans-Regular.ttf
  4

  0
STYLE
  5
4F
330
5
100
AcDbSymbolTableRecord
100
AcDbTextStyleTableRecord
  2
LiberationSans-Bold
 70
0
 40
0.0
 41
1.0
 50
0.0
 71
0
 42
2.5
  3
LiberationSans-Bold.ttf
  4

  0
STYLE
  5
50
330
5
100
AcDbSymbolTableRecord
100
AcDbTextStyleTableRecord
  2
LiberationSans-BoldItalic
 70
0
 40
0.0
 41
1.0
 50
0.0
 71
0
 42
2.5
  3
LiberationSans-BoldItalic.ttf
  4

  0
STYLE
  5
51
330
5
100
AcDbSymbolTableRecord
100
AcDbTextStyleTableRecord
  2
LiberationSans-Italic
 70
0
 40
0.0
 41
1.0
 50
0.0
 71
0
 42
2.5
  3
LiberationSans-Italic.ttf
  4

  0
STYLE
  5
52
330
5
100
AcDbSymbolTableRecord
100
AcDbTextStyleTableRecord
  2
LiberationSerif
 70
0
 40
0.0
 41
1.0
 50
0.0
 71
0
 42
2.5
  3
LiberationSerif-Regular.ttf
  4

  0
STYLE
  5
53
330
5
100
AcDbSymbolTableRecord
100
AcDbTextStyleTableRecord
  2
LiberationSerif-Bold
 70
0
 40
0.0
 41
1.0
 50
0.0
 71
0
 42
2.5
  3
LiberationSerif-Bold.ttf
  4

  0
STYLE
  5
54
330
5
100
AcDbSymbolTableRecord
100
AcDbTextStyleTableRecord
  2
LiberationSerif-BoldItalic
 70
0
 40
0.0
 41
1.0
 50
0.0
 71
0
 42
2.5
  3
LiberationSerif-BoldItalic.ttf
  4

  0
STYLE
  5
55
330
5
100
AcDbSymbolTableRecord
100
AcDbTextStyleTableRecord
  2
LiberationSerif-Italic
 70
0
 40
0.0
 41
1.0
 50
0.0
 71
0
 42
2.5
  3
LiberationSerif-Italic.ttf
  4

  0
STYLE
  5
56
330
5
100
AcDbSymbolTableRecord
100
AcDbTextStyleTableRecord
  2
LiberationMono
 70
0
 40
0.0
 41
1.0
 50
0.0
 71
0
 42
2.5
  3
LiberationMono-Regular.ttf
  4

  0
STYLE
  5
57
330
5
100
AcDbSymbolTableRecord
100
AcDbTextStyleTableRecord
  2
LiberationMono-Bold
 70
0
 40
0.0
 41
1.0
 50
0.0
 71
0
 42
2.5
  3
LiberationMono-Bold.ttf
  4

  0
STYLE
  5
58
330
5
100
AcDbSymbolTableRecord
100
AcDbTextStyleTableRecord
  2
LiberationMono-BoldItalic
 70
0
 40
0.0
 41
1.0
 50
0.0
 71
0
 42
2.5
  3
LiberationMono-BoldItalic.ttf
  4

  0
STYLE
  5
59
330
5
100
AcDbSymbolTableRecord
100
AcDbTextStyleTableRecord
  2
LiberationMono-Italic
 70
0
 40
0.0
 41
1.0
 50
0.0
 71
0
 42
2.5
  3
LiberationMono-Italic.ttf
  4

  0
STYLE
  5
94
330
5
100
AcDbSymbolTableRecord
100
AcDbTextStyleTableRecord
  2
ISO
 70
0
 40
0.0
 41
1.0
 50
0.0
 71
0
 42
2.5
  3
isocpeur.ttf
  4

  0
ENDTAB
  0
TABLE
  2
VIEW
  5
7
330
0
100
AcDbSymbolTable
 70
0
  0
ENDTAB
  0
TABLE
  2
UCS
  5
6
330
0
100
AcDbSymbolTable
 70
0
  0
ENDTAB
  0
TABLE
  2
APPID
  5
3
330
0
100
AcDbSymbolTable
 70
3
  0
APPID
  5
2A
330
3
100
AcDbSymbolTableRecord
100
AcDbRegAppTableRecord
  2
ACAD
 70
0
  0
APPID
  5
4BE
330
3
100
AcDbSymbolTableRecord
100
AcDbRegAppTableRecord
  2
HATCHBACKGROUNDCOLOR
 70
0
  0
APPID
  5
4BF
330
3
100
AcDbSymbolTableRecord
100
AcDbRegAppTableRecord
  2
EZDXF
 70
0
  0
ENDTAB
  0
TABLE
  2
DIMSTYLE
  5
4
330
0
100
AcDbSymbolTable
 70
13
100
AcDbDimStyleTable
  0
DIMSTYLE
105
2B
330
4
100
AcDbSymbolTableRecord
100
AcDbDimStyleTableRecord
  2
Standard
 70
0
 40
1.0
 41
2.5
 42
0.625
 43
3.75
 44
1.25
 45
0.0
 46
0.0
 47
0.0
 48
0.0
 49
2.5
140
2.5
141
2.5
142
0.0
143
0.03937007874
144
1.0
145
0.0
146
1.0
147
0.625
148
0.0
 69
0
 70
0
 71
0
 72
0
 73
0
 74
0
 75
0
 76
0
 77
1
 78
8
 79
3
170
0
171
3
172
1
173
0
174
0
175
0
176
0
177
0
178
0
179
2
271
2
272
2
273
2
274
3
275
0
276
0
277
2
278
44
279
0
280
0
281
0
282
0
283
0
284
8
285
0
286
0
288
0
289
3
290
0
371
-2
372
-2
  0
DIMSTYLE
105
73
330
4
100
AcDbSymbolTableRecord
100
AcDbDimStyleTableRecord
  2
EZDXF
 70
0
 40
1.0
 41
0.175
 42
0.125
 43
3.75
 44
0.375
 45
0.0
 46
0.0
 47
0.0
 48
0.0
 49
2.5
140
0.25
141
2.5
142
0.0
143
0.03937007874
144
100.0
145
0.0
146
0.5
147
0.1
148
0.0
 69
0
 70
0
 71
0
 72
0
 73
0
 74
0
 75
0
 76
0
 77
1
 78
12
 79
3
170
0
171
3
172
1
173
0
174
0
175
0
176
0
177
0
178
0
179
2
271
2
272
2
273
2
274
3
275
0
276
0
277
2
278
46
279
2
280
0
281
0
282
0
283
0
284
8
285
0
286
0
288
1
289
3
290
0
340
4C
342
74
371
-2
372
-2
  0
DIMSTYLE
105
7C
330
4
100
AcDbSymbolTableRecord
100
AcDbDimStyleTableRecord
  2
EZ_M_100_H25_CM
 70
0
 40
1.0
 41
0.25
 42
0.125
 43
3.75
 44
0.375
 45
0.0
 46
0.0
 47
0.0
 48
0.0
 49
2.5
140
0.25
141
2.5
142
0.125
143
0.03937007874
144
100.0
145
0.0
146
0.5
147
0.1
148
0.0
 69
0
 70
0
 71
0
 72
0
 73
0
 74
0
 75
0
 76
0
 77
1
 78
12
 79
3
170
0
171
3
172
1
173
0
174
0
175
0
176
0
177
0
178
0
179
2
271
2
272
2
273
2
274
3
275
0
276
0
277
2
278
46
279
2
280
0
281
0
282
0
283
0
284
8
285
0
286
0
288
1
289
3
290
0
340
4C
371
-2
372
-2
  0
DIMSTYLE
105
7D
330
4
100
AcDbSymbolTableRecord
100
AcDbDimStyleTableRecord
  2
EZ_M_50_H25_CM
 70
0
 40
1.0
 41
0.125
 42
0.0625
 43
3.75
 44
0.1875
 45
0.0
 46
0.0
 47
0.0
 48
0.0
 49
2.5
140
0.125
141
2.5
142
0.0625
143
0.03937007874
144
100.0
145
0.0
146
0.5
147
0.05
148
0.0
 69
0
 70
0
 71
0
 72
0
 73
0
 74
0
 75
0
 76
0
 77
1
 78
12
 79
3
170
0
171
3
172
1
173
0
174
0
175
0
176
0
177
0
178
0
179
2
271
2
272
2
273
2
274
3
275
0
276
0
277
2
278
46
279
2
280
0
281
0
282
0
283
0
284
8
285
0
286
0
288
1
289
3
290
0
340
4C
371
-2
372
-2
  0
DIMSTYLE
105
7E
330
4
100
AcDbSymbolTableRecord
100
AcDbDimStyleTableRecord
  2
EZ_M_25_H25_CM
 70
0
 40
1.0
 41
0.0625
 42
0.03125
 43
3.75
 44
0.09375
 45
0.0
 46
0.0
 47
0.0
 48
0.0
 49
2.5
140
0.0625
141
2.5
142
0.03125
143
0.03937007874
144
100.0
145
0.0
146
0.5
147
0.025
148
0.0
 69
0
 70
0
 71
0
 72
0
 73
0
 74
0
 75
0
 76
0
 77
1
 78
12
 79
3
170
0
171
3
172
1
173
0
174
0
175
0
176
0
177
0
178
0
179
2
271
2
272
2
273
2
274
3
275
0
276
0
277
2
278
46
279
2
280
0
281
0
282
0
283
0
284
8
285
0
286
0
288
1
289
3
290
0
340
4C
371
-2
372
-2
  0
DIMSTYLE
105
7F
330
4
100
AcDbSymbolTableRecord
100
AcDbDimStyleTableRecord
  2
EZ_M_20_H25_CM
 70
0
 40
1.0
 41
0.05
 42
0.025
 43
3.75
 44
0.07500000000000001
 45
0.0
 46
0.0
 47
0.0
 48
0.0
 49
2.5
140
0.05
141
2.5
142
0.025
143
0.03937007874
144
100.0
145
0.0
146
0.5
147
0.020000000000000004
148
0.0
 69
0
 70
0
 71
0
 72
0
 73
0
 74
0
 75
0
 76
0
 77
1
 78
12
 79
3
170
0
171
3
172
1
173
0
174
0
175
0
176
0
177
0
178
0
179
2
271
2
272
2
273
2
274
3
275
0
276
0
277
2
278
46
279
2
280
0
281
0
282
0
283
0
284
8
285
0
286
0
288
1
289
3
290
0
340
4C
371
-2
372
-2
  0
DIMSTYLE
105
80
330
4
100
AcDbSymbolTableRecord
100
AcDbDimStyleTableRecord
  2
EZ_M_10_H25_CM
 70
0
 40
1.0
 41
0.025
 42
0.0125
 43
3.75
 44
0.037500000000000006
 45
0.0
 46
0.0
 47
0.0
 48
0.0
 49
2.5
140
0.025
141
2.5
142
0.0125
143
0.03937007874
144
100.0
145
0.0
146
0.5
147
0.010000000000000002
148
0.0
 69
0
 70
0
 71
0
 72
0
 73
0
 74
0
 75
0
 76
0
 77
1
 78
12
 79
3
170
0
171
3
172
1
173
0
174
0
175
0
176
0
177
0
178
0
179
2
271
2
272
2
273
2
274
3
275
0
276
0
277
2
278
46
279
2
280
0
281
0
282
0
283
0
284
8
285
0
286
0
288
1
289
3
290
0
340
4C
371
-2
372
-2
  0
DIMSTYLE
105
81
330
4
100
AcDbSymbolTableRecord
100
AcDbDimStyleTableRecord
  2
EZ_M_5_H25_CM
 70
0
 40
1.0
 41
0.0125
 42
0.00625
 43
3.75
 44
0.018750000000000003
 45
0.0
 46
0.0
 47
0.0
 48
0.0
 49
2.5
140
0.0125
141
2.5
142
0.00625
143
0.03937007874
144
100.0
145
0.0
146
0.5
147
0.005000000000000001
148
0.0
 69
0
 70
0
 71
0
 72
0
 73
0
 74
0
 75
0
 76
0
 77
1
 78
12
 79
3
170
0
171
3
172
1
173
0
174
0
175
0
176
0
177
0
178
0
179
2
271
2
272
2
273
2
274
3
275
0
276
0
277
2
278
46
279
2
280
0
281
0
282
0
283
0
284
8
285
0
286
0
288
1
289
3
290
0
340
4C
371
-2
372
-2
  0
DIMSTYLE
105
82
330
4
100
AcDbSymbolTableRecord
100
AcDbDimStyleTableRecord
  2
EZ_M_1_H25_CM
 70
0
 40
1.0
 41
0.0025
 42
0.00125
 43
3.75
 44
0.00375
 45
0.0
 46
0.0
 47
0.0
 48
0.0
 49
2.5
140
0.0025
141
2.5
142
0.00125
143
0.03937007874
144
100.0
145
0.0
146
0.5
147
0.001
148
0.0
 69
0
 70
0
 71
0
 72
0
 73
0
 74
0
 75
0
 76
0
 77
1
 78
12
 79
3
170
0
171
3
172
1
173
0
174
0
175
0
176
0
177
0
178
0
179
2
271
2
272
2
273
2
274
3
275
0
276
0
277
2
278
46
279
2
280
0
281
0
282
0
283
0
284
8
285
0
286
0
288
1
289
3
290
0
340
4C
371
-2
372
-2
  0
DIMSTYLE
105
83
330
4
100
AcDbSymbolTableRecord
100
AcDbDimStyleTableRecord
  2
EZ_RADIUS
 70
0
 40
1.0
 41
0.25
 42
0.125
 43
3.75
 44
0.375
 45
0.0
 46
0.0
 47
0.0
 48
0.0
 49
2.5
140
0.25
141
0.0
142
0.0
143
0.03937007874
144
100.0
145
0.0
146
0.5
147
0.1
148
0.0
 69
0
 70
0
 71
0
 72
0
 73
0
 74
0
 75
0
 76
0
 77
1
 78
12
 79
3
170
0
171
3
172
0
173
0
174
0
175
0
176
0
177
0
178
0
179
2
271
2
272
2
273
2
274
3
275
0
276
0
277
2
278
46
279
1
280
0
281
0
282
0
283
0
284
8
285
0
286
0
288
1
289
3
290
0
340
4C
342
84
371
-2
372
-2
  0
DIMSTYLE
105
88
330
4
100
AcDbSymbolTableRecord
100
AcDbDimStyleTableRecord
  2
EZ_RADIUS_INSIDE
 70
0
 40
1.0
 41
0.25
 42
0.125
 43
3.75
 44
0.375
 45
0.0
 46
0.0
 47
0.0
 48
0.0
 49
2.5
140
0.25
141
0.0
142
0.0
143
0.03937007874
144
100.0
145
0.0
146
0.5
147
0.1
148
0.0
 69
0
 70
0
 71
0
 72
0
 73
0
 74
0
 75
0
 76
0
 77
0
 78
12
 79
3
170
0
171
3
172
0
173
0
174
1
175
0
176
0
177
0
178
0
179
2
271
2
272
2
273
2
274
3
275
0
276
0
277
2
278
46
279
0
280
0
281
0
282
0
283
0
284
8
285
0
286
0
288
1
289
0
290
0
340
4C
342
84
371
-2
372
-2
  0
DIMSTYLE
105
89
330
4
100
AcDbSymbolTableRecord
100
AcDbDimStyleTableRecord
  2
EZ_CURVED
 70
0
 40
1.0
 41
0.25
 42
0.125
 43
3.75
 44
0.375
 45
0.0
 46
0.0
 47
0.0
 48
0.0
 49
2.5
140
0.25
141
2.5
142
0.0
143
0.03937007874
144
100.0
145
0.0
146
0.5
147
0.1
148
0.0
 69
0
 70
0
 71
0
 72
0
 73
0
 74
0
 75
0
 76
0
 77
1
 78
12
 79
2
 90
2
170
0
171
3
172
1
173
0
174
0
175
0
176
0
177
0
178
0
179
2
271
2
272
2
273
2
274
3
275
0
276
0
277
2
278
46
279
2
280
0
281
0
282
0
283
0
284
8
285
0
286
0
288
1
289
3
290
0
340
4C
371
-2
372
-2
  0
DIMSTYLE
105
95
330
4
100
AcDbSymbolTableRecord
100
AcDbDimStyleTableRecord
  2
TISCHLER
 70
0
 40
1.0
 41
2.5
 42
1.0
 43
3.75
 44
1.5
 45
0.0
 46
0.0
 47
0.0
 48
0.0
 49
2.5
140
2.5
141
2.5
142
1.2
143
0.03937007874
144
1.0
145
0.0
146
1.0
147
0.8
148
0.0
 69
0
 70
0
 71
0
 72
0
 73
0
 74
0
 75
0
 76
0
 77
1
 78
8
 79
3
170
0
171
3
172
1
173
0
174
0
175
0
176
3
177
3
178
7
179
2
271
1
272
2
273
2
274
3
275
0
276
0
277
2
278
44
279
0
280
0
281
0
282
0
283
0
284
8
285
0
286
0
288
0
289
3
290
0
340
94
371
25
372
25
  0
ENDTAB
  0
TABLE
  2
BLOCK_RECORD
  5
9
330
0
100
AcDbSymbolTable
 70
32
  0
BLOCK_RECORD
  5
17
330
9
100
AcDbSymbolTableRecord
100
AcDbBlockTableRecord
  2
*Model_Space
340
1A
 70
0
280
1
281
0
  0
BLOCK_RECORD
  5
1B
330
9
100
AcDbSymbolTableRecord
100
AcDbBlockTableRecord
  2
*Paper_Space
340
1E
 70
0
280
1
281
0
  0
BLOCK_RECORD
  5
74
330
9
100
AcDbSymbolTableRecord
100
AcDbBlockTableRecord
  2
_ARCHTICK
340
0
 70
0
280
1
281
0
  0
BLOCK_RECORD
  5
78
330
9
100
AcDbSymbolTableRecord
100
AcDbBlockTableRecord
  2
_CLOSEDFILLED
340
0
 70
0
280
1
281
0
  0
BLOCK_RECORD
  5
84
330
9
100
AcDbSymbolTableRecord
100
AcDbBlockTableRecord
  2
_CLOSEDBLANK
340
0
 70
0
280
1
281
0
  0
BLOCK_RECORD
  5
D8
330
9
100
AcDbSymbolTableRecord
100
AcDbBlockTableRecord
  2
*D1
340
0
 70
0
280
1
281
0
  0
BLOCK_RECORD
  5
DD
330
9
100
AcDbSymbolTableRecord
100
AcDbBlockTableRecord
  2
_OBLIQUE
340
0
 70
0
280
1
281
0
  0
BLOCK_RECORD
  5
EB
330
9
100
AcDbSymbolTableRecord
100
AcDbBlockTableRecord
  2
*D2
340
0
 70
0
280
1
281
0
  0
BLOCK_RECORD
  5
FA
330
9
100
AcDbSymbolTableRecord
100
AcDbBlockTableRecord
  2
*D3
340
0
 70
0
280
1
281
0
  0
BLOCK_RECORD
  5
109
330
9
100
AcDbSymbolTableRecord
100
AcDbBlockTableRecord
  2
*D4
340
0
 70
0
280
1
281
0
  0
BLOCK_RECORD
  5
118
330
9
100
AcDbSymbolTableRecord
100
AcDbBlockTableRecord
  2
*D5
340
0
 70
0
280
1
281
0
  0
BLOCK_RECORD
  5
127
330
9
100
AcDbSymbolTableRecord
100
AcDbBlockTableRecord
  2
*D6
340
0
 70
0
280
1
281
0
  0
BLOCK_RECORD
  5
136
330
9
100
AcDbSymbolTableRecord
100
AcDbBlockTableRecord
  2
*D7
340
0
 70
0
280
1
281
0
  0
BLOCK_RECORD
  5
145
330
9
100
AcDbSymbolTableRecord
100
AcDbBlockTableRecord
  2
*D8
340
0
 70
0
280
1
281
0
  0
BLOCK_RECORD
  5
154
330
9
100
AcDbSymbolTableRecord
100
AcDbBlockTableRecord
  2
*D9
340
0
 70
0
280
1
281
0
  0
BLOCK_RECORD
  5
163
330
9
100
AcDbSymbolTableRecord
100
AcDbBlockTableRecord
  2
*D10
340
0
 70
0
280
1
281
0
  0
BLOCK_RECORD
  5
1B0
330
9
100
AcDbSymbolTableRecord
100
AcDbBlockTableRecord
  2
*D11
340
0
 70
0
280
1
281
0
  0
BLOCK_RECORD
  5
1BF
330
9
100
AcDbSymbolTableRecord
100
AcDbBlockTableRecord
  2
*D12
340
0
 70
0
280
1
281
0
  0
BLOCK_RECORD
  5
1CE
330
9
100
AcDbSymbolTableRecord
100
AcDbBlockTableRecord
  2
*D13
340
0
 70
0
280
1
281
0
  0
BLOCK_RECORD
  5
1DD
330
9
100
AcDbSymbolTableRecord
100
AcDbBlockTableRecord
  2
*D14
340
0
 70
0
280
1
281
0
  0
BLOCK_RECORD
  5
1EC
330
9
100
AcDbSymbolTableRecord
100
AcDbBlockTableRecord
  2
*D15
340
0
 70
0
280
1
281
0
  0
BLOCK_RECORD
  5
1FB
330
9
100
AcDbSymbolTableRecord
100
AcDbBlockTableRecord
  2
*D16
340
0
 70
0
280
1
281
0
  0
BLOCK_RECORD
  5
20A
330
9
100
AcDbSymbolTableRecord
100
AcDbBlockTableRecord
  2
*D17
340
0
 70
0
280
1
281
0
  0
BLOCK_RECORD
  5
219
330
9
100
AcDbSymbolTableRecord
100
AcDbBlockTableRecord
  2
*D18
340
0
 70
0
280
1
281
0
  0
BLOCK_RECORD
  5
228
330
9
100
AcDbSymbolTableRecord
100
AcDbBlockTableRecord
  2
*D19
340
0
 70
0
280
1
281
0
  0
BLOCK_RECORD
  5
237
330
9
100
AcDbSymbolTableRecord
100
AcDbBlockTableRecord
  2
*D20
340
0
 70
0
280
1
281
0
  0
BLOCK_RECORD
  5
246
330
9
100
AcDbSymbolTableRecord
100
AcDbBlockTableRecord
  2
*D21
340
0
 70
0
280
1
281
0
  0
BLOCK_RECORD
  5
255
330
9
100
AcDbSymbolTableRecord
100
AcDbBlockTableRecord
  2
*D22
340
0
 70
0
280
1
281
0
  0
BLOCK_RECORD
  5
264
330
9
100
AcDbSymbolTableRecord
100
AcDbBlockTableRecord
  2
*D23
340
0
 70
0
280
1
281
0
  0
BLOCK_RECORD
  5
293
330
9
100
AcDbSymbolTableRecord
100
AcDbBlockTableRecord
  2
*D24
340
0
 70
0
280
1
281
0
  0
BLOCK_RECORD
  5
2A2
330
9
100
AcDbSymbolTableRecord
100
AcDbBlockTableRecord
  2
*D25
340
0
 70
0
280
1
281
0
  0
BLOCK_RECORD
  5
2E0
330
9
100
AcDbSymbolTableRecord
100
AcDbBlockTableRecord
  2
*D26
340
0
 70
0
280
1
281
0
  0
ENDTAB
  0
ENDSEC
  0
SECTION
  2
BLOCKS
  0
BLOCK
  5
18
330
17
100
AcDbEntity
  8
0
100
AcDbBlockBegin
  2
*Model_Space
 70
0
 10
0.0
 20
0.0
 30
0.0
  3
*Model_Space
  1

  0
ENDBLK
  5
19
330
17
100
AcDbEntity
  8
0
100
AcDbBlockEnd
  0
BLOCK
  5
1C
330
1B
100
AcDbEntity
  8
0
100
AcDbBlockBegin
  2
*Paper_Space
 70
0
 10
0.0
 20
0.0
 30
0.0
  3
*Paper_Space
  1

  0
ENDBLK
  5
1D
330
1B
100
AcDbEntity
  8
0
100
AcDbBlockEnd
  0
BLOCK
  5
75
330
74
100
AcDbEntity
  8
0
100
AcDbBlockBegin
  2
_ARCHTICK
 70
0
 10
0.0
 20
0.0
 30
0.0
  3
_ARCHTICK
  1

  0
LWPOLYLINE
  5
77
330
74
100
AcDbEntity
  8
0
  6
BYBLOCK
 62
0
100
AcDbPolyline
 90
2
 70
0
 43
0.15
 10
-0.5
 20
-0.5
 10
0.5
 20
0.5
  0
ENDBLK
  5
76
330
74
100
AcDbEntity
  8
0
100
AcDbBlockEnd
  0
BLOCK
  5
79
330
78
100
AcDbEntity
  8
0
100
AcDbBlockBegin
  2
_CLOSEDFILLED
 70
0
 10
0.0
 20
0.0
 30
0.0
  3
_CLOSEDFILLED
  1

  0
SOLID
  5
7B
330
78
100
AcDbEntity
  8
0
  6
BYBLOCK
 62
0
100
AcDbTrace
 10
-1.0
 20
0.16439898372402537
 30
0.0
 11
0.0
 21
0.0
 31
0.0
 12
-1.0
 22
-0.16439898372402537
 32
0.0
 13
-1.0
 23
-0.16439898372402537
 33
0.0
  0
ENDBLK
  5
7A
330
78
100
AcDbEntity
  8
0
100
AcDbBlockEnd
  0
BLOCK
  5
85
330
84
100
AcDbEntity
  8
0
100
AcDbBlockBegin
  2
_CLOSEDBLANK
 70
0
 10
0.0
 20
0.0
 30
0.0
  3
_CLOSEDBLANK
  1

  0
LWPOLYLINE
  5
87
330
84
100
AcDbEntity
  8
0
  6
BYBLOCK
 62
0
100
AcDbPolyline
 90
3
 70
1
 10
-1.0
 20
0.16439898372402537
 10
0.0
 20
0.0
 10
-1.0
 20
-0.16439898372402537
  0
ENDBLK
  5
86
330
84
100
AcDbEntity
  8
0
100
AcDbBlockEnd
  0
BLOCK
  5
D9
330
D8
100
AcDbEntity
  8
0
100
AcDbBlockBegin
  2
*D1
 70
1
 10
0.0
 20
0.0
 30
0.0
  3
*D1
  1

  0
LINE
  5
DB
330
D8
100
AcDbEntity
  8
0
 62
3
370
25
100
AcDbLine
 10
47.0
 20
269.0
 30
0.0
 11
47.0
 21
282.5
 31
0.0
  0
LINE
  5
DC
330
D8
100
AcDbEntity
  8
0
 62
3
370
25
100
AcDbLine
 10
223.0
 20
222.0
 30
0.0
 11
223.0
 21
282.5
 31
0.0
  0
INSERT
  5
E1
330
D8
100
AcDbEntity
  8
Bemassung
 62
3
100
AcDbBlockReference
  2
_OBLIQUE
 10
47.0
 20
281.0
 30
0.0
 41
2.4
 42
2.4
  0
INSERT
  5
E3
330
D8
100
AcDbEntity
  8
Bemassung
 62
3
100
AcDbBlockReference
  2
_OBLIQUE
 10
223.0
 20
281.0
 30
0.0
 41
2.4
 42
2.4
  0
LINE
  5
E5
330
D8
100
AcDbEntity
  8
0
 62
3
370
25
100
AcDbLine
 10
47.0
 20
281.0
 30
0.0
 11
223.0
 21
281.0
 31
0.0
  0
MTEXT
  5
E6
330
D8
100
AcDbEntity
  8
Bemassung
 62
7
100
AcDbMText
 10
135.0
 20
283.05
 30
0.0
 40
2.5
 71
5
  1
345
  7
ISO
  0
POINT
  5
E7
330
D8
100
AcDbEntity
  8
Defpoints
100
AcDbPoint
 10
47.0
 20
281.0
 30
0.0
  0
POINT
  5
E8
330
D8
100
AcDbEntity
  8
Defpoints
100
AcDbPoint
 10
47.0
 20
268.0
 30
0.0
  0
POINT
  5
E9
330
D8
100
AcDbEntity
  8
Defpoints
100
AcDbPoint
 10
223.0
 20
221.0
 30
0.0
  0
ENDBLK
  5
DA
330
D8
100
AcDbEntity
  8
0
100
AcDbBlockEnd
  0
BLOCK
  5
DE
330
DD
100
AcDbEntity
  8
0
100
AcDbBlockBegin
  2
_OBLIQUE
 70
0
 10
0.0
 20
0.0
 30
0.0
  3
_OBLIQUE
  1

  0
LINE
  5
E0
330
DD
100
AcDbEntity
  8
0
  6
BYBLOCK
 62
0
100
AcDbLine
 10
-0.5
 20
-0.5
 30
0.0
 11
0.5
 21
0.5
 31
0.0
  0
ENDBLK
  5
DF
330
DD
100
AcDbEntity
  8
0
100
AcDbBlockEnd
  0
BLOCK
  5
EC
330
EB
100
AcDbEntity
  8
0
100
AcDbBlockBegin
  2
*D2
 70
1
 10
0.0
 20
0.0
 30
0.0
  3
*D2
  1

  0
LINE
  5
EE
330
EB
100
AcDbEntity
  8
0
 62
3
370
25
100
AcDbLine
 10
150.0
 20
269.0
 30
0.0
 11
150.0
 21
277.5
 31
0.0
  0
LINE
  5
EF
330
EB
100
AcDbEntity
  8
0
 62
3
370
25
100
AcDbLine
 10
223.0
 20
222.0
 30
0.0
 11
223.0
 21
277.5
 31
0.0
  0
INSERT
  5
F0
330
EB
100
AcDbEntity
  8
Bemassung
 62
3
100
AcDbBlockReference
  2
_OBLIQUE
 10
150.0
 20
276.0
 30
0.0
 41
2.4
 42
2.4
  0
INSERT
  5
F2
330
EB
100
AcDbEntity
  8
Bemassung
 62
3
100
AcDbBlockReference
  2
_OBLIQUE
 10
223.0
 20
276.0
 30
0.0
 41
2.4
 42
2.4
  0
LINE
  5
F4
330
EB
100
AcDbEntity
  8
0
 62
3
370
25
100
AcDbLine
 10
150.0
 20
276.0
 30
0.0
 11
223.0
 21
276.0
 31
0.0
  0
MTEXT
  5
F5
330
EB
100
AcDbEntity
  8
Bemassung
 62
7
100
AcDbMText
 10
186.5
 20
278.05
 30
0.0
 40
2.5
 71
5
  1
73
  7
ISO
  0
POINT
  5
F6
330
EB
100
AcDbEntity
  8
Defpoints
100
AcDbPoint
 10
150.0
 20
276.0
 30
0.0
  0
POINT
  5
F7
330
EB
100
AcDbEntity
  8
Defpoints
100
AcDbPoint
 10
150.0
 20
268.0
 30
0.0
  0
POINT
  5
F8
330
EB
100
AcDbEntity
  8
Defpoints
100
AcDbPoint
 10
223.0
 20
221.0
 30
0.0
  0
ENDBLK
  5
ED
330
EB
100
AcDbEntity
  8
0
100
AcDbBlockEnd
  0
BLOCK
  5
FB
330
FA
100
AcDbEntity
  8
0
100
AcDbBlockBegin
  2
*D3
 70
1
 10
0.0
 20
0.0
 30
0.0
  3
*D3
  1

  0
LINE
  5
FD
330
FA
100
AcDbEntity
  8
0
 62
3
370
25
100
AcDbLine
 10
149.0
 20
268.0
 30
0.0
 11
142.5
 21
268.0
 31
0.0
  0
LINE
  5
FE
330
FA
100
AcDbEntity
  8
0
 62
3
370
25
100
AcDbLine
 10
204.0
 20
213.0
 30
0.0
 11
142.5
 21
213.0
 31
0.0
  0
INSERT
  5
FF
330
FA
100
AcDbEntity
  8
Bemassung
 62
3
100
AcDbBlockReference
  2
_OBLIQUE
 10
144.0
 20
268.0
 30
0.0
 41
2.4
 42
2.4
 50
90.0
  0
INSERT
  5
101
330
FA
100
AcDbEntity
  8
Bemassung
 62
3
100
AcDbBlockReference
  2
_OBLIQUE
 10
144.0
 20
213.0
 30
0.0
 41
2.4
 42
2.4
 50
90.0
  0
LINE
  5
103
330
FA
100
AcDbEntity
  8
0
 62
3
370
25
100
AcDbLine
 10
144.0
 20
268.0
 30
0.0
 11
144.0
 21
213.0
 31
0.0
  0
MTEXT
  5
104
330
FA
100
AcDbEntity
  8
Bemassung
 62
7
100
AcDbMText
 10
146.05
 20
240.5
 30
0.0
 40
2.5
 71
5
  1
55
  7
ISO
 50
90.0
  0
POINT
  5
105
330
FA
100
AcDbEntity
  8
Defpoints
100
AcDbPoint
 10
144.0
 20
268.0
 30
0.0
  0
POINT
  5
106
330
FA
100
AcDbEntity
  8
Defpoints
100
AcDbPoint
 10
150.0
 20
268.0
 30
0.0
  0
POINT
  5
107
330
FA
100
AcDbEntity
  8
Defpoints
100
AcDbPoint
 10
205.0
 20
213.0
 30
0.0
  0
ENDBLK
  5
FC
330
FA
100
AcDbEntity
  8
0
100
AcDbBlockEnd
  0
BLOCK
  5
10A
330
109
100
AcDbEntity
  8
0
100
AcDbBlockBegin
  2
*D4
 70
1
 10
0.0
 20
0.0
 30
0.0
  3
*D4
  1

  0
LINE
  5
10C
330
109
100
AcDbEntity
  8
0
 62
3
370
25
100
AcDbLine
 10
205.0
 20
214.0
 30
0.0
 11
205.0
 21
233.5
 31
0.0
  0
LINE
  5
10D
330
109
100
AcDbEntity
  8
0
 62
3
370
25
100
AcDbLine
 10
210.0
 20
222.0
 30
0.0
 11
210.0
 21
233.5
 31
0.0
  0
INSERT
  5
10E
330
109
100
AcDbEntity
  8
Bemassung
 62
3
100
AcDbBlockReference
  2
_OBLIQUE
 10
205.0
 20
232.0
 30
0.0
 41
2.4
 42
2.4
  0
INSERT
  5
110
330
109
100
AcDbEntity
  8
Bemassung
 62
3
100
AcDbBlockReference
  2
_OBLIQUE
 10
210.0
 20
232.0
 30
0.0
 41
2.4
 42
2.4
  0
LINE
  5
112
330
109
100
AcDbEntity
  8
0
 62
3
370
25
100
AcDbLine
 10
205.0
 20
232.0
 30
0.0
 11
210.0
 21
232.0
 31
0.0
  0
MTEXT
  5
113
330
109
100
AcDbEntity
  8
Bemassung
 62
7
100
AcDbMText
 10
207.5
 20
234.05
 30
0.0
 40
2.5
 71
5
  1
5
  7
ISO
  0
POINT
  5
114
330
109
100
AcDbEntity
  8
Defpoints
100
AcDbPoint
 10
205.0
 20
232.0
 30
0.0
  0
POINT
  5
115
330
109
100
AcDbEntity
  8
Defpoints
100
AcDbPoint
 10
205.0
 20
213.0
 30
0.0
  0
POINT
  5
116
330
109
100
AcDbEntity
  8
Defpoints
100
AcDbPoint
 10
210.0
 20
221.0
 30
0.0
  0
ENDBLK
  5
10B
330
109
100
AcDbEntity
  8
0
100
AcDbBlockEnd
  0
BLOCK
  5
119
330
118
100
AcDbEntity
  8
0
100
AcDbBlockBegin
  2
*D5
 70
1
 10
0.0
 20
0.0
 30
0.0
  3
*D5
  1

  0
LINE
  5
11B
330
118
100
AcDbEntity
  8
0
 62
3
370
25
100
AcDbLine
 10
210.0
 20
222.0
 30
0.0
 11
210.0
 21
233.5
 31
0.0
  0
LINE
  5
11C
330
118
100
AcDbEntity
  8
0
 62
3
370
25
100
AcDbLine
 10
223.0
 20
222.0
 30
0.0
 11
223.0
 21
233.5
 31
0.0
  0
INSERT
  5
11D
330
118
100
AcDbEntity
  8
Bemassung
 62
3
100
AcDbBlockReference
  2
_OBLIQUE
 10
210.0
 20
232.0
 30
0.0
 41
2.4
 42
2.4
  0
INSERT
  5
11F
330
118
100
AcDbEntity
  8
Bemassung
 62
3
100
AcDbBlockReference
  2
_OBLIQUE
 10
223.0
 20
232.0
 30
0.0
 41
2.4
 42
2.4
  0
LINE
  5
121
330
118
100
AcDbEntity
  8
0
 62
3
370
25
100
AcDbLine
 10
210.0
 20
232.0
 30
0.0
 11
223.0
 21
232.0
 31
0.0
  0
MTEXT
  5
122
330
118
100
AcDbEntity
  8
Bemassung
 62
7
100
AcDbMText
 10
216.5
 20
234.05
 30
0.0
 40
2.5
 71
5
  1
13
  7
ISO
  0
POINT
  5
123
330
118
100
AcDbEntity
  8
Defpoints
100
AcDbPoint
 10
210.0
 20
232.0
 30
0.0
  0
POINT
  5
124
330
118
100
AcDbEntity
  8
Defpoints
100
AcDbPoint
 10
210.0
 20
221.0
 30
0.0
  0
POINT
  5
125
330
118
100
AcDbEntity
  8
Defpoints
100
AcDbPoint
 10
223.0
 20
221.0
 30
0.0
  0
ENDBLK
  5
11A
330
118
100
AcDbEntity
  8
0
100
AcDbBlockEnd
  0
BLOCK
  5
128
330
127
100
AcDbEntity
  8
0
100
AcDbBlockBegin
  2
*D6
 70
1
 10
0.0
 20
0.0
 30
0.0
  3
*D6
  1

  0
LINE
  5
12A
330
127
100
AcDbEntity
  8
0
 62
3
370
25
100
AcDbLine
 10
210.0
 20
170.0
 30
0.0
 11
210.0
 21
162.5
 31
0.0
  0
LINE
  5
12B
330
127
100
AcDbEntity
  8
0
 62
3
370
25
100
AcDbLine
 10
215.0
 20
179.0
 30
0.0
 11
215.0
 21
162.5
 31
0.0
  0
INSERT
  5
12C
330
127
100
AcDbEntity
  8
Bemassung
 62
3
100
AcDbBlockReference
  2
_OBLIQUE
 10
210.0
 20
164.0
 30
0.0
 41
2.4
 42
2.4
  0
INSERT
  5
12E
330
127
100
AcDbEntity
  8
Bemassung
 62
3
100
AcDbBlockReference
  2
_OBLIQUE
 10
215.0
 20
164.0
 30
0.0
 41
2.4
 42
2.4
  0
LINE
  5
130
330
127
100
AcDbEntity
  8
0
 62
3
370
25
100
AcDbLine
 10
210.0
 20
164.0
 30
0.0
 11
215.0
 21
164.0
 31
0.0
  0
MTEXT
  5
131
330
127
100
AcDbEntity
  8
Bemassung
 62
7
100
AcDbMText
 10
212.5
 20
166.05
 30
0.0
 40
2.5
 71
5
  1
5
  7
ISO
  0
POINT
  5
132
330
127
100
AcDbEntity
  8
Defpoints
100
AcDbPoint
 10
210.0
 20
164.0
 30
0.0
  0
POINT
  5
133
330
127
100
AcDbEntity
  8
Defpoints
100
AcDbPoint
 10
210.0
 20
171.0
 30
0.0
  0
POINT
  5
134
330
127
100
AcDbEntity
  8
Defpoints
100
AcDbPoint
 10
215.0
 20
180.0
 30
0.0
  0
ENDBLK
  5
129
330
127
100
AcDbEntity
  8
0
100
AcDbBlockEnd
  0
BLOCK
  5
137
330
136
100
AcDbEntity
  8
0
100
AcDbBlockBegin
  2
*D7
 70
1
 10
0.0
 20
0.0
 30
0.0
  3
*D7
  1

  0
LINE
  5
139
330
136
100
AcDbEntity
  8
0
 62
3
370
25
100
AcDbLine
 10
47.0
 20
167.0
 30
0.0
 11
47.0
 21
157.5
 31
0.0
  0
LINE
  5
13A
330
136
100
AcDbEntity
  8
0
 62
3
370
25
100
AcDbLine
 10
215.0
 20
179.0
 30
0.0
 11
215.0
 21
157.5
 31
0.0
  0
INSERT
  5
13B
330
136
100
AcDbEntity
  8
Bemassung
 62
3
100
AcDbBlockReference
  2
_OBLIQUE
 10
47.0
 20
159.0
 30
0.0
 41
2.4
 42
2.4
  0
INSERT
  5
13D
330
136
100
AcDbEntity
  8
Bemassung
 62
3
100
AcDbBlockReference
  2
_OBLIQUE
 10
215.0
 20
159.0
 30
0.0
 41
2.4
 42
2.4
  0
LINE
  5
13F
330
136
100
AcDbEntity
  8
0
 62
3
370
25
100
AcDbLine
 10
47.0
 20
159.0
 30
0.0
 11
215.0
 21
159.0
 31
0.0
  0
MTEXT
  5
140
330
136
100
AcDbEntity
  8
Bemassung
 62
7
100
AcDbMText
 10
131.0
 20
161.05
 30
0.0
 40
2.5
 71
5
  1
337
  7
ISO
  0
POINT
  5
141
330
136
100
AcDbEntity
  8
Defpoints
100
AcDbPoint
 10
47.0
 20
159.0
 30
0.0
  0
POINT
  5
142
330
136
100
AcDbEntity
  8
Defpoints
100
AcDbPoint
 10
47.0
 20
168.0
 30
0.0
  0
POINT
  5
143
330
136
100
AcDbEntity
  8
Defpoints
100
AcDbPoint
 10
215.0
 20
180.0
 30
0.0
  0
ENDBLK
  5
138
330
136
100
AcDbEntity
  8
0
100
AcDbBlockEnd
  0
BLOCK
  5
146
330
145
100
AcDbEntity
  8
0
100
AcDbBlockBegin
  2
*D8
 70
1
 10
0.0
 20
0.0
 30
0.0
  3
*D8
  1

  0
LINE
  5
148
330
145
100
AcDbEntity
  8
0
 62
3
370
25
100
AcDbLine
 10
47.0
 20
167.0
 30
0.0
 11
47.0
 21
151.5
 31
0.0
  0
LINE
  5
149
330
145
100
AcDbEntity
  8
0
 62
3
370
25
100
AcDbLine
 10
228.0
 20
173.0
 30
0.0
 11
228.0
 21
151.5
 31
0.0
  0
INSERT
  5
14A
330
145
100
AcDbEntity
  8
Bemassung
 62
3
100
AcDbBlockReference
  2
_OBLIQUE
 10
47.0
 20
153.0
 30
0.0
 41
2.4
 42
2.4
  0
INSERT
  5
14C
330
145
100
AcDbEntity
  8
Bemassung
 62
3
100
AcDbBlockReference
  2
_OBLIQUE
 10
228.0
 20
153.0
 30
0.0
 41
2.4
 42
2.4
  0
LINE
  5
14E
330
145
100
AcDbEntity
  8
0
 62
3
370
25
100
AcDbLine
 10
47.0
 20
153.0
 30
0.0
 11
228.0
 21
153.0
 31
0.0
  0
MTEXT
  5
14F
330
145
100
AcDbEntity
  8
Bemassung
 62
7
100
AcDbMText
 10
137.5
 20
155.05
 30
0.0
 40
2.5
 71
5
  1
350
  7
ISO
  0
POINT
  5
150
330
145
100
AcDbEntity
  8
Defpoints
100
AcDbPoint
 10
47.0
 20
153.0
 30
0.0
  0
POINT
  5
151
330
145
100
AcDbEntity
  8
Defpoints
100
AcDbPoint
 10
47.0
 20
168.0
 30
0.0
  0
POINT
  5
152
330
145
100
AcDbEntity
  8
Defpoints
100
AcDbPoint
 10
228.0
 20
174.0
 30
0.0
  0
ENDBLK
  5
147
330
145
100
AcDbEntity
  8
0
100
AcDbBlockEnd
  0
BLOCK
  5
155
330
154
100
AcDbEntity
  8
0
100
AcDbBlockBegin
  2
*D9
 70
1
 10
0.0
 20
0.0
 30
0.0
  3
*D9
  1

  0
LINE
  5
157
330
154
100
AcDbEntity
  8
0
 62
3
370
25
100
AcDbLine
 10
46.0
 20
168.0
 30
0.0
 11
31.5
 21
168.0
 31
0.0
  0
LINE
  5
158
330
154
100
AcDbEntity
  8
0
 62
3
370
25
100
AcDbLine
 10
46.0
 20
268.0
 30
0.0
 11
31.5
 21
268.0
 31
0.0
  0
INSERT
  5
159
330
154
100
AcDbEntity
  8
Bemassung
 62
3
100
AcDbBlockReference
  2
_OBLIQUE
 10
33.0
 20
168.0
 30
0.0
 41
2.4
 42
2.4
 50
90.0
  0
INSERT
  5
15B
330
154
100
AcDbEntity
  8
Bemassung
 62
3
100
AcDbBlockReference
  2
_OBLIQUE
 10
33.0
 20
268.0
 30
0.0
 41
2.4
 42
2.4
 50
90.0
  0
LINE
  5
15D
330
154
100
AcDbEntity
  8
0
 62
3
370
25
100
AcDbLine
 10
33.0
 20
168.0
 30
0.0
 11
33.0
 21
268.0
 31
0.0
  0
MTEXT
  5
15E
330
154
100
AcDbEntity
  8
Bemassung
 62
7
100
AcDbMText
 10
30.95
 20
218.0
 30
0.0
 40
2.5
 71
5
  1
100
  7
ISO
 50
90.0
  0
POINT
  5
15F
330
154
100
AcDbEntity
  8
Defpoints
100
AcDbPoint
 10
33.0
 20
168.0
 30
0.0
  0
POINT
  5
160
330
154
100
AcDbEntity
  8
Defpoints
100
AcDbPoint
 10
47.0
 20
168.0
 30
0.0
  0
POINT
  5
161
330
154
100
AcDbEntity
  8
Defpoints
100
AcDbPoint
 10
47.0
 20
268.0
 30
0.0
  0
ENDBLK
  5
156
330
154
100
AcDbEntity
  8
0
100
AcDbBlockEnd
  0
BLOCK
  5
164
330
163
100
AcDbEntity
  8
0
100
AcDbBlockBegin
  2
*D10
 70
1
 10
0.0
 20
0.0
 30
0.0
  3
*D10
  1

  0
LINE
  5
166
330
163
100
AcDbEntity
  8
0
 62
3
370
25
100
AcDbLine
 10
46.0
 20
168.0
 30
0.0
 11
38.5
 21
168.0
 31
0.0
  0
LINE
  5
167
330
163
100
AcDbEntity
  8
0
 62
3
370
25
100
AcDbLine
 10
46.0
 20
185.0
 30
0.0
 11
38.5
 21
185.0
 31
0.0
  0
INSERT
  5
168
330
163
100
AcDbEntity
  8
Bemassung
 62
3
100
AcDbBlockReference
  2
_OBLIQUE
 10
40.0
 20
168.0
 30
0.0
 41
2.4
 42
2.4
 50
90.0
  0
INSERT
  5
16A
330
163
100
AcDbEntity
  8
Bemassung
 62
3
100
AcDbBlockReference
  2
_OBLIQUE
 10
40.0
 20
185.0
 30
0.0
 41
2.4
 42
2.4
 50
90.0
  0
LINE
  5
16C
330
163
100
AcDbEntity
  8
0
 62
3
370
25
100
AcDbLine
 10
40.0
 20
168.0
 30
0.0
 11
40.0
 21
185.0
 31
0.0
  0
MTEXT
  5
16D
330
163
100
AcDbEntity
  8
Bemassung
 62
7
100
AcDbMText
 10
37.95
 20
176.5
 30
0.0
 40
2.5
 71
5
  1
17
  7
ISO
 50
90.0
  0
POINT
  5
16E
330
163
100
AcDbEntity
  8
Defpoints
100
AcDbPoint
 10
40.0
 20
168.0
 30
0.0
  0
POINT
  5
16F
330
163
100
AcDbEntity
  8
Defpoints
100
AcDbPoint
 10
47.0
 20
168.0
 30
0.0
  0
POINT
  5
170
330
163
100
AcDbEntity
  8
Defpoints
100
AcDbPoint
 10
47.0
 20
185.0
 30
0.0
  0
ENDBLK
  5
165
330
163
100
AcDbEntity
  8
0
100
AcDbBlockEnd
  0
BLOCK
  5
1B1
330
1B0
100
AcDbEntity
  8
0
100
AcDbBlockBegin
  2
*D11
 70
1
 10
0.0
 20
0.0
 30
0.0
  3
*D11
  1

  0
LINE
  5
1B3
330
1B0
100
AcDbEntity
  8
0
 62
3
370
25
100
AcDbLine
 10
53.5
 20
132.0
 30
0.0
 11
53.5
 21
142.5
 31
0.0
  0
LINE
  5
1B4
330
1B0
100
AcDbEntity
  8
0
 62
3
370
25
100
AcDbLine
 10
201.5
 20
132.0
 30
0.0
 11
201.5
 21
142.5
 31
0.0
  0
INSERT
  5
1B5
330
1B0
100
AcDbEntity
  8
Bemassung
 62
3
100
AcDbBlockReference
  2
_OBLIQUE
 10
53.5
 20
141.0
 30
0.0
 41
2.4
 42
2.4
  0
INSERT
  5
1B7
330
1B0
100
AcDbEntity
  8
Bemassung
 62
3
100
AcDbBlockReference
  2
_OBLIQUE
 10
201.5
 20
141.0
 30
0.0
 41
2.4
 42
2.4
  0
LINE
  5
1B9
330
1B0
100
AcDbEntity
  8
0
 62
3
370
25
100
AcDbLine
 10
53.5
 20
141.0
 30
0.0
 11
201.5
 21
141.0
 31
0.0
  0
MTEXT
  5
1BA
330
1B0
100
AcDbEntity
  8
Bemassung
 62
7
100
AcDbMText
 10
127.5
 20
143.05
 30
0.0
 40
2.5
 71
5
  1
242 (Prüfmaß)
  7
ISO
  0
POINT
  5
1BB
330
1B0
100
AcDbEntity
  8
Defpoints
100
AcDbPoint
 10
53.5
 20
141.0
 30
0.0
  0
POINT
  5
1BC
330
1B0
100
AcDbEntity
  8
Defpoints
100
AcDbPoint
 10
53.5
 20
131.0
 30
0.0
  0
POINT
  5
1BD
330
1B0
100
AcDbEntity
  8
Defpoints
100
AcDbPoint
 10
201.5
 20
131.0
 30
0.0
  0
ENDBLK
  5
1B2
330
1B0
100
AcDbEntity
  8
0
100
AcDbBlockEnd
  0
BLOCK
  5
1C0
330
1BF
100
AcDbEntity
  8
0
100
AcDbBlockBegin
  2
*D12
 70
1
 10
0.0
 20
0.0
 30
0.0
  3
*D12
  1

  0
LINE
  5
1C2
330
1BF
100
AcDbEntity
  8
0
 62
3
370
25
100
AcDbLine
 10
194.0
 20
127.0
 30
0.0
 11
194.0
 21
137.5
 31
0.0
  0
LINE
  5
1C3
330
1BF
100
AcDbEntity
  8
0
 62
3
370
25
100
AcDbLine
 10
201.5
 20
132.0
 30
0.0
 11
201.5
 21
137.5
 31
0.0
  0
INSERT
  5
1C4
330
1BF
100
AcDbEntity
  8
Bemassung
 62
3
100
AcDbBlockReference
  2
_OBLIQUE
 10
194.0
 20
136.0
 30
0.0
 41
2.4
 42
2.4
  0
INSERT
  5
1C6
330
1BF
100
AcDbEntity
  8
Bemassung
 62
3
100
AcDbBlockReference
  2
_OBLIQUE
 10
201.5
 20
136.0
 30
0.0
 41
2.4
 42
2.4
  0
LINE
  5
1C8
330
1BF
100
AcDbEntity
  8
0
 62
3
370
25
100
AcDbLine
 10
194.0
 20
136.0
 30
0.0
 11
201.5
 21
136.0
 31
0.0
  0
MTEXT
  5
1C9
330
1BF
100
AcDbEntity
  8
Bemassung
 62
7
100
AcDbMText
 10
197.75
 20
138.05
 30
0.0
 40
2.5
 71
5
  1
7,5
  7
ISO
  0
POINT
  5
1CA
330
1BF
100
AcDbEntity
  8
Defpoints
100
AcDbPoint
 10
194.0
 20
136.0
 30
0.0
  0
POINT
  5
1CB
330
1BF
100
AcDbEntity
  8
Defpoints
100
AcDbPoint
 10
194.0
 20
126.0
 30
0.0
  0
POINT
  5
1CC
330
1BF
100
AcDbEntity
  8
Defpoints
100
AcDbPoint
 10
201.5
 20
131.0
 30
0.0
  0
ENDBLK
  5
1C1
330
1BF
100
AcDbEntity
  8
0
100
AcDbBlockEnd
  0
BLOCK
  5
1CF
330
1CE
100
AcDbEntity
  8
0
100
AcDbBlockBegin
  2
*D13
 70
1
 10
0.0
 20
0.0
 30
0.0
  3
*D13
  1

  0
LINE
  5
1D1
330
1CE
100
AcDbEntity
  8
0
 62
3
370
25
100
AcDbLine
 10
201.5
 20
132.0
 30
0.0
 11
201.5
 21
137.5
 31
0.0
  0
LINE
  5
1D2
330
1CE
100
AcDbEntity
  8
0
 62
3
370
25
100
AcDbLine
 10
208.0
 20
132.0
 30
0.0
 11
208.0
 21
137.5
 31
0.0
  0
INSERT
  5
1D3
330
1CE
100
AcDbEntity
  8
Bemassung
 62
3
100
AcDbBlockReference
  2
_OBLIQUE
 10
201.5
 20
136.0
 30
0.0
 41
2.4
 42
2.4
  0
INSERT
  5
1D5
330
1CE
100
AcDbEntity
  8
Bemassung
 62
3
100
AcDbBlockReference
  2
_OBLIQUE
 10
208.0
 20
136.0
 30
0.0
 41
2.4
 42
2.4
  0
LINE
  5
1D7
330
1CE
100
AcDbEntity
  8
0
 62
3
370
25
100
AcDbLine
 10
201.5
 20
136.0
 30
0.0
 11
208.0
 21
136.0
 31
0.0
  0
MTEXT
  5
1D8
330
1CE
100
AcDbEntity
  8
Bemassung
 62
7
100
AcDbMText
 10
204.75
 20
139.55
 30
0.0
 40
2.5
 71
5
  1
(6,5)
  7
ISO
  0
POINT
  5
1D9
330
1CE
100
AcDbEntity
  8
Defpoints
100
AcDbPoint
 10
201.5
 20
136.0
 30
0.0
  0
POINT
  5
1DA
330
1CE
100
AcDbEntity
  8
Defpoints
100
AcDbPoint
 10
201.5
 20
131.0
 30
0.0
  0
POINT
  5
1DB
330
1CE
100
AcDbEntity
  8
Defpoints
100
AcDbPoint
 10
208.0
 20
131.0
 30
0.0
  0
ENDBLK
  5
1D0
330
1CE
100
AcDbEntity
  8
0
100
AcDbBlockEnd
  0
BLOCK
  5
1DE
330
1DD
100
AcDbEntity
  8
0
100
AcDbBlockBegin
  2
*D14
 70
1
 10
0.0
 20
0.0
 30
0.0
  3
*D14
  1

  0
LINE
  5
1E0
330
1DD
100
AcDbEntity
  8
0
 62
3
370
25
100
AcDbLine
 10
62.0
 20
126.0
 30
0.0
 11
70.5
 21
126.0
 31
0.0
  0
LINE
  5
1E1
330
1DD
100
AcDbEntity
  8
0
 62
3
370
25
100
AcDbLine
 10
54.5
 20
131.0
 30
0.0
 11
70.5
 21
131.0
 31
0.0
  0
INSERT
  5
1E2
330
1DD
100
AcDbEntity
  8
Bemassung
 62
3
100
AcDbBlockReference
  2
_OBLIQUE
 10
69.0
 20
126.0
 30
0.0
 41
2.4
 42
2.4
 50
90.0
  0
INSERT
  5
1E4
330
1DD
100
AcDbEntity
  8
Bemassung
 62
3
100
AcDbBlockReference
  2
_OBLIQUE
 10
69.0
 20
131.0
 30
0.0
 41
2.4
 42
2.4
 50
90.0
  0
LINE
  5
1E6
330
1DD
100
AcDbEntity
  8
0
 62
3
370
25
100
AcDbLine
 10
69.0
 20
126.0
 30
0.0
 11
69.0
 21
131.0
 31
0.0
  0
MTEXT
  5
1E7
330
1DD
100
AcDbEntity
  8
Bemassung
 62
7
100
AcDbMText
 10
66.95
 20
128.5
 30
0.0
 40
2.5
 71
5
  1
5
  7
ISO
 50
90.0
  0
POINT
  5
1E8
330
1DD
100
AcDbEntity
  8
Defpoints
100
AcDbPoint
 10
69.0
 20
126.0
 30
0.0
  0
POINT
  5
1E9
330
1DD
100
AcDbEntity
  8
Defpoints
100
AcDbPoint
 10
61.0
 20
126.0
 30
0.0
  0
POINT
  5
1EA
330
1DD
100
AcDbEntity
  8
Defpoints
100
AcDbPoint
 10
53.5
 20
131.0
 30
0.0
  0
ENDBLK
  5
1DF
330
1DD
100
AcDbEntity
  8
0
100
AcDbBlockEnd
  0
BLOCK
  5
1ED
330
1EC
100
AcDbEntity
  8
0
100
AcDbBlockBegin
  2
*D15
 70
1
 10
0.0
 20
0.0
 30
0.0
  3
*D15
  1

  0
LINE
  5
1EF
330
1EC
100
AcDbEntity
  8
0
 62
3
370
25
100
AcDbLine
 10
53.0
 20
31.0
 30
0.0
 11
39.5
 21
31.0
 31
0.0
  0
LINE
  5
1F0
330
1EC
100
AcDbEntity
  8
0
 62
3
370
25
100
AcDbLine
 10
46.0
 20
37.0
 30
0.0
 11
39.5
 21
37.0
 31
0.0
  0
INSERT
  5
1F1
330
1EC
100
AcDbEntity
  8
Bemassung
 62
3
100
AcDbBlockReference
  2
_OBLIQUE
 10
41.0
 20
31.0
 30
0.0
 41
2.4
 42
2.4
 50
90.0
  0
INSERT
  5
1F3
330
1EC
100
AcDbEntity
  8
Bemassung
 62
3
100
AcDbBlockReference
  2
_OBLIQUE
 10
41.0
 20
37.0
 30
0.0
 41
2.4
 42
2.4
 50
90.0
  0
LINE
  5
1F5
330
1EC
100
AcDbEntity
  8
0
 62
3
370
25
100
AcDbLine
 10
41.0
 20
31.0
 30
0.0
 11
41.0
 21
37.0
 31
0.0
  0
MTEXT
  5
1F6
330
1EC
100
AcDbEntity
  8
Bemassung
 62
7
100
AcDbMText
 10
38.95
 20
34.0
 30
0.0
 40
2.5
 71
5
  1
6
  7
ISO
 50
90.0
  0
POINT
  5
1F7
330
1EC
100
AcDbEntity
  8
Defpoints
100
AcDbPoint
 10
41.0
 20
31.0
 30
0.0
  0
POINT
  5
1F8
330
1EC
100
AcDbEntity
  8
Defpoints
100
AcDbPoint
 10
54.0
 20
31.0
 30
0.0
  0
POINT
  5
1F9
330
1EC
100
AcDbEntity
  8
Defpoints
100
AcDbPoint
 10
47.0
 20
37.0
 30
0.0
  0
ENDBLK
  5
1EE
330
1EC
100
AcDbEntity
  8
0
100
AcDbBlockEnd
  0
BLOCK
  5
1FC
330
1FB
100
AcDbEntity
  8
0
100
AcDbBlockBegin
  2
*D16
 70
1
 10
0.0
 20
0.0
 30
0.0
  3
*D16
  1

  0
LINE
  5
1FE
330
1FB
100
AcDbEntity
  8
0
 62
3
370
25
100
AcDbLine
 10
62.0
 20
31.0
 30
0.0
 11
82.5
 21
31.0
 31
0.0
  0
LINE
  5
1FF
330
1FB
100
AcDbEntity
  8
0
 62
3
370
25
100
AcDbLine
 10
78.0
 20
48.0
 30
0.0
 11
82.5
 21
48.0
 31
0.0
  0
INSERT
  5
200
330
1FB
100
AcDbEntity
  8
Bemassung
 62
3
100
AcDbBlockReference
  2
_OBLIQUE
 10
81.0
 20
31.0
 30
0.0
 41
2.4
 42
2.4
 50
90.0
  0
INSERT
  5
202
330
1FB
100
AcDbEntity
  8
Bemassung
 62
3
100
AcDbBlockReference
  2
_OBLIQUE
 10
81.0
 20
48.0
 30
0.0
 41
2.4
 42
2.4
 50
90.0
  0
LINE
  5
204
330
1FB
100
AcDbEntity
  8
0
 62
3
370
25
100
AcDbLine
 10
81.0
 20
31.0
 30
0.0
 11
81.0
 21
48.0
 31
0.0
  0
MTEXT
  5
205
330
1FB
100
AcDbEntity
  8
Bemassung
 62
7
100
AcDbMText
 10
78.95
 20
39.5
 30
0.0
 40
2.5
 71
5
  1
17
  7
ISO
 50
90.0
  0
POINT
  5
206
330
1FB
100
AcDbEntity
  8
Defpoints
100
AcDbPoint
 10
81.0
 20
31.0
 30
0.0
  0
POINT
  5
207
330
1FB
100
AcDbEntity
  8
Defpoints
100
AcDbPoint
 10
61.0
 20
31.0
 30
0.0
  0
POINT
  5
208
330
1FB
100
AcDbEntity
  8
Defpoints
100
AcDbPoint
 10
77.0
 20
48.0
 30
0.0
  0
ENDBLK
  5
1FD
330
1FB
100
AcDbEntity
  8
0
100
AcDbBlockEnd
  0
BLOCK
  5
20B
330
20A
100
AcDbEntity
  8
0
100
AcDbBlockBegin
  2
*D17
 70
1
 10
0.0
 20
0.0
 30
0.0
  3
*D17
  1

  0
LINE
  5
20D
330
20A
100
AcDbEntity
  8
0
 62
3
370
25
100
AcDbLine
 10
68.0
 20
43.0
 30
0.0
 11
67.5
 21
43.0
 31
0.0
  0
LINE
  5
20E
330
20A
100
AcDbEntity
  8
0
 62
3
370
25
100
AcDbLine
 10
68.0
 20
48.0
 30
0.0
 11
67.5
 21
48.0
 31
0.0
  0
INSERT
  5
20F
330
20A
100
AcDbEntity
  8
Bemassung
 62
3
100
AcDbBlockReference
  2
_OBLIQUE
 10
69.0
 20
43.0
 30
0.0
 41
2.4
 42
2.4
 50
90.0
  0
INSERT
  5
211
330
20A
100
AcDbEntity
  8
Bemassung
 62
3
100
AcDbBlockReference
  2
_OBLIQUE
 10
69.0
 20
48.0
 30
0.0
 41
2.4
 42
2.4
 50
90.0
  0
LINE
  5
213
330
20A
100
AcDbEntity
  8
0
 62
3
370
25
100
AcDbLine
 10
69.0
 20
43.0
 30
0.0
 11
69.0
 21
48.0
 31
0.0
  0
MTEXT
  5
214
330
20A
100
AcDbEntity
  8
Bemassung
 62
7
100
AcDbMText
 10
66.95
 20
45.5
 30
0.0
 40
2.5
 71
5
  1
5
  7
ISO
 50
90.0
  0
POINT
  5
215
330
20A
100
AcDbEntity
  8
Defpoints
100
AcDbPoint
 10
69.0
 20
43.0
 30
0.0
  0
POINT
  5
216
330
20A
100
AcDbEntity
  8
Defpoints
100
AcDbPoint
 10
69.0
 20
43.0
 30
0.0
  0
POINT
  5
217
330
20A
100
AcDbEntity
  8
Defpoints
100
AcDbPoint
 10
69.0
 20
48.0
 30
0.0
  0
ENDBLK
  5
20C
330
20A
100
AcDbEntity
  8
0
100
AcDbBlockEnd
  0
BLOCK
  5
21A
330
219
100
AcDbEntity
  8
0
100
AcDbBlockBegin
  2
*D18
 70
1
 10
0.0
 20
0.0
 30
0.0
  3
*D18
  1

  0
LINE
  5
21C
330
219
100
AcDbEntity
  8
0
 62
3
370
25
100
AcDbLine
 10
56.0
 20
42.0
 30
0.0
 11
56.0
 21
23.5
 31
0.0
  0
LINE
  5
21D
330
219
100
AcDbEntity
  8
0
 62
3
370
25
100
AcDbLine
 10
61.0
 20
30.0
 30
0.0
 11
61.0
 21
23.5
 31
0.0
  0
INSERT
  5
21E
330
219
100
AcDbEntity
  8
Bemassung
 62
3
100
AcDbBlockReference
  2
_OBLIQUE
 10
56.0
 20
25.0
 30
0.0
 41
2.4
 42
2.4
  0
INSERT
  5
220
330
219
100
AcDbEntity
  8
Bemassung
 62
3
100
AcDbBlockReference
  2
_OBLIQUE
 10
61.0
 20
25.0
 30
0.0
 41
2.4
 42
2.4
  0
LINE
  5
222
330
219
100
AcDbEntity
  8
0
 62
3
370
25
100
AcDbLine
 10
56.0
 20
25.0
 30
0.0
 11
61.0
 21
25.0
 31
0.0
  0
MTEXT
  5
223
330
219
100
AcDbEntity
  8
Bemassung
 62
7
100
AcDbMText
 10
58.5
 20
27.05
 30
0.0
 40
2.5
 71
5
  1
5
  7
ISO
  0
POINT
  5
224
330
219
100
AcDbEntity
  8
Defpoints
100
AcDbPoint
 10
56.0
 20
25.0
 30
0.0
  0
POINT
  5
225
330
219
100
AcDbEntity
  8
Defpoints
100
AcDbPoint
 10
56.0
 20
43.0
 30
0.0
  0
POINT
  5
226
330
219
100
AcDbEntity
  8
Defpoints
100
AcDbPoint
 10
61.0
 20
31.0
 30
0.0
  0
ENDBLK
  5
21B
330
219
100
AcDbEntity
  8
0
100
AcDbBlockEnd
  0
BLOCK
  5
229
330
228
100
AcDbEntity
  8
0
100
AcDbBlockBegin
  2
*D19
 70
1
 10
0.0
 20
0.0
 30
0.0
  3
*D19
  1

  0
LINE
  5
22B
330
228
100
AcDbEntity
  8
0
 62
3
370
25
100
AcDbLine
 10
61.0
 20
30.0
 30
0.0
 11
61.0
 21
23.5
 31
0.0
  0
LINE
  5
22C
330
228
100
AcDbEntity
  8
0
 62
3
370
25
100
AcDbLine
 10
96.0
 20
34.0
 30
0.0
 11
96.0
 21
23.5
 31
0.0
  0
INSERT
  5
22D
330
228
100
AcDbEntity
  8
Bemassung
 62
3
100
AcDbBlockReference
  2
_OBLIQUE
 10
61.0
 20
25.0
 30
0.0
 41
2.4
 42
2.4
  0
INSERT
  5
22F
330
228
100
AcDbEntity
  8
Bemassung
 62
3
100
AcDbBlockReference
  2
_OBLIQUE
 10
96.0
 20
25.0
 30
0.0
 41
2.4
 42
2.4
  0
LINE
  5
231
330
228
100
AcDbEntity
  8
0
 62
3
370
25
100
AcDbLine
 10
61.0
 20
25.0
 30
0.0
 11
96.0
 21
25.0
 31
0.0
  0
MTEXT
  5
232
330
228
100
AcDbEntity
  8
Bemassung
 62
7
100
AcDbMText
 10
78.5
 20
27.05
 30
0.0
 40
2.5
 71
5
  1
35
  7
ISO
  0
POINT
  5
233
330
228
100
AcDbEntity
  8
Defpoints
100
AcDbPoint
 10
61.0
 20
25.0
 30
0.0
  0
POINT
  5
234
330
228
100
AcDbEntity
  8
Defpoints
100
AcDbPoint
 10
61.0
 20
31.0
 30
0.0
  0
POINT
  5
235
330
228
100
AcDbEntity
  8
Defpoints
100
AcDbPoint
 10
96.0
 20
35.0
 30
0.0
  0
ENDBLK
  5
22A
330
228
100
AcDbEntity
  8
0
100
AcDbBlockEnd
  0
BLOCK
  5
238
330
237
100
AcDbEntity
  8
0
100
AcDbBlockBegin
  2
*D20
 70
1
 10
0.0
 20
0.0
 30
0.0
  3
*D20
  1

  0
LINE
  5
23A
330
237
100
AcDbEntity
  8
0
 62
3
370
25
100
AcDbLine
 10
96.0
 20
34.0
 30
0.0
 11
96.0
 21
23.5
 31
0.0
  0
LINE
  5
23B
330
237
100
AcDbEntity
  8
0
 62
3
370
25
100
AcDbLine
 10
159.0
 20
34.0
 30
0.0
 11
159.0
 21
23.5
 31
0.0
  0
INSERT
  5
23C
330
237
100
AcDbEntity
  8
Bemassung
 62
3
100
AcDbBlockReference
  2
_OBLIQUE
 10
96.0
 20
25.0
 30
0.0
 41
2.4
 42
2.4
  0
INSERT
  5
23E
330
237
100
AcDbEntity
  8
Bemassung
 62
3
100
AcDbBlockReference
  2
_OBLIQUE
 10
159.0
 20
25.0
 30
0.0
 41
2.4
 42
2.4
  0
LINE
  5
240
330
237
100
AcDbEntity
  8
0
 62
3
370
25
100
AcDbLine
 10
96.0
 20
25.0
 30
0.0
 11
159.0
 21
25.0
 31
0.0
  0
MTEXT
  5
241
330
237
100
AcDbEntity
  8
Bemassung
 62
7
100
AcDbMText
 10
127.5
 20
27.05
 30
0.0
 40
2.5
 71
5
  1
2x78,5
  7
ISO
  0
POINT
  5
242
330
237
100
AcDbEntity
  8
Defpoints
100
AcDbPoint
 10
96.0
 20
25.0
 30
0.0
  0
POINT
  5
243
330
237
100
AcDbEntity
  8
Defpoints
100
AcDbPoint
 10
96.0
 20
35.0
 30
0.0
  0
POINT
  5
244
330
237
100
AcDbEntity
  8
Defpoints
100
AcDbPoint
 10
159.0
 20
35.0
 30
0.0
  0
ENDBLK
  5
239
330
237
100
AcDbEntity
  8
0
100
AcDbBlockEnd
  0
BLOCK
  5
247
330
246
100
AcDbEntity
  8
0
100
AcDbBlockBegin
  2
*D21
 70
1
 10
0.0
 20
0.0
 30
0.0
  3
*D21
  1

  0
LINE
  5
249
330
246
100
AcDbEntity
  8
0
 62
3
370
25
100
AcDbLine
 10
201.0
 20
30.0
 30
0.0
 11
201.0
 21
23.5
 31
0.0
  0
LINE
  5
24A
330
246
100
AcDbEntity
  8
0
 62
3
370
25
100
AcDbLine
 10
208.0
 20
36.0
 30
0.0
 11
208.0
 21
23.5
 31
0.0
  0
INSERT
  5
24B
330
246
100
AcDbEntity
  8
Bemassung
 62
3
100
AcDbBlockReference
  2
_OBLIQUE
 10
201.0
 20
25.0
 30
0.0
 41
2.4
 42
2.4
  0
INSERT
  5
24D
330
246
100
AcDbEntity
  8
Bemassung
 62
3
100
AcDbBlockReference
  2
_OBLIQUE
 10
208.0
 20
25.0
 30
0.0
 41
2.4
 42
2.4
  0
LINE
  5
24F
330
246
100
AcDbEntity
  8
0
 62
3
370
25
100
AcDbLine
 10
201.0
 20
25.0
 30
0.0
 11
208.0
 21
25.0
 31
0.0
  0
MTEXT
  5
250
330
246
100
AcDbEntity
  8
Bemassung
 62
7
100
AcDbMText
 10
204.5
 20
27.05
 30
0.0
 40
2.5
 71
5
  1
7
  7
ISO
  0
POINT
  5
251
330
246
100
AcDbEntity
  8
Defpoints
100
AcDbPoint
 10
201.0
 20
25.0
 30
0.0
  0
POINT
  5
252
330
246
100
AcDbEntity
  8
Defpoints
100
AcDbPoint
 10
201.0
 20
31.0
 30
0.0
  0
POINT
  5
253
330
246
100
AcDbEntity
  8
Defpoints
100
AcDbPoint
 10
208.0
 20
37.0
 30
0.0
  0
ENDBLK
  5
248
330
246
100
AcDbEntity
  8
0
100
AcDbBlockEnd
  0
BLOCK
  5
256
330
255
100
AcDbEntity
  8
0
100
AcDbBlockBegin
  2
*D22
 70
1
 10
0.0
 20
0.0
 30
0.0
  3
*D22
  1

  0
LINE
  5
258
330
255
100
AcDbEntity
  8
0
 62
3
370
25
100
AcDbLine
 10
56.0
 20
42.0
 30
0.0
 11
56.0
 21
17.5
 31
0.0
  0
LINE
  5
259
330
255
100
AcDbEntity
  8
0
 62
3
370
25
100
AcDbLine
 10
199.0
 20
42.0
 30
0.0
 11
199.0
 21
17.5
 31
0.0
  0
INSERT
  5
25A
330
255
100
AcDbEntity
  8
Bemassung
 62
3
100
AcDbBlockReference
  2
_OBLIQUE
 10
56.0
 20
19.0
 30
0.0
 41
2.4
 42
2.4
  0
INSERT
  5
25C
330
255
100
AcDbEntity
  8
Bemassung
 62
3
100
AcDbBlockReference
  2
_OBLIQUE
 10
199.0
 20
19.0
 30
0.0
 41
2.4
 42
2.4
  0
LINE
  5
25E
330
255
100
AcDbEntity
  8
0
 62
3
370
25
100
AcDbLine
 10
56.0
 20
19.0
 30
0.0
 11
199.0
 21
19.0
 31
0.0
  0
MTEXT
  5
25F
330
255
100
AcDbEntity
  8
Bemassung
 62
7
100
AcDbMText
 10
127.5
 20
21.05
 30
0.0
 40
2.5
 71
5
  1
237
  7
ISO
  0
POINT
  5
260
330
255
100
AcDbEntity
  8
Defpoints
100
AcDbPoint
 10
56.0
 20
19.0
 30
0.0
  0
POINT
  5
261
330
255
100
AcDbEntity
  8
Defpoints
100
AcDbPoint
 10
56.0
 20
43.0
 30
0.0
  0
POINT
  5
262
330
255
100
AcDbEntity
  8
Defpoints
100
AcDbPoint
 10
199.0
 20
43.0
 30
0.0
  0
ENDBLK
  5
257
330
255
100
AcDbEntity
  8
0
100
AcDbBlockEnd
  0
BLOCK
  5
265
330
264
100
AcDbEntity
  8
0
100
AcDbBlockBegin
  2
*D23
 70
1
 10
0.0
 20
0.0
 30
0.0
  3
*D23
  1

  0
LINE
  5
267
330
264
100
AcDbEntity
  8
0
 62
3
370
25
100
AcDbLine
 10
54.0
 20
30.0
 30
0.0
 11
54.0
 21
11.5
 31
0.0
  0
LINE
  5
268
330
264
100
AcDbEntity
  8
0
 62
3
370
25
100
AcDbLine
 10
201.0
 20
30.0
 30
0.0
 11
201.0
 21
11.5
 31
0.0
  0
INSERT
  5
269
330
264
100
AcDbEntity
  8
Bemassung
 62
3
100
AcDbBlockReference
  2
_OBLIQUE
 10
54.0
 20
13.0
 30
0.0
 41
2.4
 42
2.4
  0
INSERT
  5
26B
330
264
100
AcDbEntity
  8
Bemassung
 62
3
100
AcDbBlockReference
  2
_OBLIQUE
 10
201.0
 20
13.0
 30
0.0
 41
2.4
 42
2.4
  0
LINE
  5
26D
330
264
100
AcDbEntity
  8
0
 62
3
370
25
100
AcDbLine
 10
54.0
 20
13.0
 30
0.0
 11
201.0
 21
13.0
 31
0.0
  0
MTEXT
  5
26E
330
264
100
AcDbEntity
  8
Bemassung
 62
7
100
AcDbMText
 10
127.5
 20
15.05
 30
0.0
 40
2.5
 71
5
  1
241 (Prüfmaß)
  7
ISO
  0
POINT
  5
26F
330
264
100
AcDbEntity
  8
Defpoints
100
AcDbPoint
 10
54.0
 20
13.0
 30
0.0
  0
POINT
  5
270
330
264
100
AcDbEntity
  8
Defpoints
100
AcDbPoint
 10
54.0
 20
31.0
 30
0.0
  0
POINT
  5
271
330
264
100
AcDbEntity
  8
Defpoints
100
AcDbPoint
 10
201.0
 20
31.0
 30
0.0
  0
ENDBLK
  5
266
330
264
100
AcDbEntity
  8
0
100
AcDbBlockEnd
  0
BLOCK
  5
294
330
293
100
AcDbEntity
  8
0
100
AcDbBlockBegin
  2
*D24
 70
1
 10
0.0
 20
0.0
 30
0.0
  3
*D24
  1

  0
LINE
  5
296
330
293
100
AcDbEntity
  8
0
 62
3
370
25
100
AcDbLine
 10
243.0
 20
254.0
 30
0.0
 11
243.0
 21
232.5
 31
0.0
  0
LINE
  5
297
330
293
100
AcDbEntity
  8
0
 62
3
370
25
100
AcDbLine
 10
294.0
 20
254.0
 30
0.0
 11
294.0
 21
232.5
 31
0.0
  0
INSERT
  5
298
330
293
100
AcDbEntity
  8
Bemassung
 62
3
100
AcDbBlockReference
  2
_OBLIQUE
 10
243.0
 20
234.0
 30
0.0
 41
2.4
 42
2.4
  0
INSERT
  5
29A
330
293
100
AcDbEntity
  8
Bemassung
 62
3
100
AcDbBlockReference
  2
_OBLIQUE
 10
294.0
 20
234.0
 30
0.0
 41
2.4
 42
2.4
  0
LINE
  5
29C
330
293
100
AcDbEntity
  8
0
 62
3
370
25
100
AcDbLine
 10
243.0
 20
234.0
 30
0.0
 11
294.0
 21
234.0
 31
0.0
  0
MTEXT
  5
29D
330
293
100
AcDbEntity
  8
Bemassung
 62
7
100
AcDbMText
 10
268.5
 20
236.05
 30
0.0
 40
2.5
 71
5
  1
255
  7
ISO
  0
POINT
  5
29E
330
293
100
AcDbEntity
  8
Defpoints
100
AcDbPoint
 10
243.0
 20
234.0
 30
0.0
  0
POINT
  5
29F
330
293
100
AcDbEntity
  8
Defpoints
100
AcDbPoint
 10
243.0
 20
255.0
 30
0.0
  0
POINT
  5
2A0
330
293
100
AcDbEntity
  8
Defpoints
100
AcDbPoint
 10
294.0
 20
255.0
 30
0.0
  0
ENDBLK
  5
295
330
293
100
AcDbEntity
  8
0
100
AcDbBlockEnd
  0
BLOCK
  5
2A3
330
2A2
100
AcDbEntity
  8
0
100
AcDbBlockBegin
  2
*D25
 70
1
 10
0.0
 20
0.0
 30
0.0
  3
*D25
  1

  0
LINE
  5
2A5
330
2A2
100
AcDbEntity
  8
0
 62
3
370
25
100
AcDbLine
 10
295.0
 20
255.0
 30
0.0
 11
304.5
 21
255.0
 31
0.0
  0
LINE
  5
2A6
330
2A2
100
AcDbEntity
  8
0
 62
3
370
25
100
AcDbLine
 10
295.0
 20
275.0
 30
0.0
 11
304.5
 21
275.0
 31
0.0
  0
INSERT
  5
2A7
330
2A2
100
AcDbEntity
  8
Bemassung
 62
3
100
AcDbBlockReference
  2
_OBLIQUE
 10
303.0
 20
255.0
 30
0.0
 41
2.4
 42
2.4
 50
90.0
  0
INSERT
  5
2A9
330
2A2
100
AcDbEntity
  8
Bemassung
 62
3
100
AcDbBlockReference
  2
_OBLIQUE
 10
303.0
 20
275.0
 30
0.0
 41
2.4
 42
2.4
 50
90.0
  0
LINE
  5
2AB
330
2A2
100
AcDbEntity
  8
0
 62
3
370
25
100
AcDbLine
 10
303.0
 20
255.0
 30
0.0
 11
303.0
 21
275.0
 31
0.0
  0
MTEXT
  5
2AC
330
2A2
100
AcDbEntity
  8
Bemassung
 62
7
100
AcDbMText
 10
300.95
 20
265.0
 30
0.0
 40
2.5
 71
5
  1
100
  7
ISO
 50
90.0
  0
POINT
  5
2AD
330
2A2
100
AcDbEntity
  8
Defpoints
100
AcDbPoint
 10
303.0
 20
255.0
 30
0.0
  0
POINT
  5
2AE
330
2A2
100
AcDbEntity
  8
Defpoints
100
AcDbPoint
 10
294.0
 20
255.0
 30
0.0
  0
POINT
  5
2AF
330
2A2
100
AcDbEntity
  8
Defpoints
100
AcDbPoint
 10
294.0
 20
275.0
 30
0.0
  0
ENDBLK
  5
2A4
330
2A2
100
AcDbEntity
  8
0
100
AcDbBlockEnd
  0
BLOCK
  5
2E1
330
2E0
100
AcDbEntity
  8
0
100
AcDbBlockBegin
  2
*D26
 70
1
 10
0.0
 20
0.0
 30
0.0
  3
*D26
  1

  0
LINE
  5
2E3
330
2E0
100
AcDbEntity
  8
0
 62
3
370
25
100
AcDbLine
 10
320.0
 20
258.0
 30
0.0
 11
320.0
 21
236.5
 31
0.0
  0
LINE
  5
2E4
330
2E0
100
AcDbEntity
  8
0
 62
3
370
25
100
AcDbLine
 10
390.0
 20
256.6
 30
0.0
 11
390.0
 21
236.5
 31
0.0
  0
INSERT
  5
2E5
330
2E0
100
AcDbEntity
  8
Bemassung
 62
3
100
AcDbBlockReference
  2
_OBLIQUE
 10
320.0
 20
238.0
 30
0.0
 41
2.4
 42
2.4
  0
INSERT
  5
2E7
330
2E0
100
AcDbEntity
  8
Bemassung
 62
3
100
AcDbBlockReference
  2
_OBLIQUE
 10
390.0
 20
238.0
 30
0.0
 41
2.4
 42
2.4
  0
LINE
  5
2E9
330
2E0
100
AcDbEntity
  8
0
 62
3
370
25
100
AcDbLine
 10
320.0
 20
238.0
 30
0.0
 11
390.0
 21
238.0
 31
0.0
  0
MTEXT
  5
2EA
330
2E0
100
AcDbEntity
  8
Bemassung
 62
7
100
AcDbMText
 10
355.0
 20
240.05
 30
0.0
 40
2.5
 71
5
  1
350
  7
ISO
  0
POINT
  5
2EB
330
2E0
100
AcDbEntity
  8
Defpoints
100
AcDbPoint
 10
320.0
 20
238.0
 30
0.0
  0
POINT
  5
2EC
330
2E0
100
AcDbEntity
  8
Defpoints
100
AcDbPoint
 10
320.0
 20
259.0
 30
0.0
  0
POINT
  5
2ED
330
2E0
100
AcDbEntity
  8
Defpoints
100
AcDbPoint
 10
390.0
 20
257.6
 30
0.0
  0
ENDBLK
  5
2E2
330
2E0
100
AcDbEntity
  8
0
100
AcDbBlockEnd
  0
ENDSEC
  0
SECTION
  2
ENTITIES
  0
LWPOLYLINE
  5
96
330
17
100
AcDbEntity
  8
Duenn
100
AcDbPolyline
 90
4
 70
1
 10
0.0
 20
0.0
 10
420.0
 20
0.0
 10
420.0
 20
297.0
 10
0.0
 20
297.0
  0
LWPOLYLINE
  5
97
330
17
100
AcDbEntity
  8
Rahmen
100
AcDbPolyline
 90
4
 70
1
 10
20.0
 20
10.0
 10
410.0
 20
10.0
 10
410.0
 20
287.0
 10
20.0
 20
287.0
  0
LWPOLYLINE
  5
98
330
17
100
AcDbEntity
  8
Kontur
100
AcDbPolyline
 90
5
 70
1
 10
47.0
 20
185.0
 10
61.0
 20
185.0
 10
61.0
 20
258.0
 10
59.0
 20
260.0
 10
47.0
 20
260.0
  0
LWPOLYLINE
  5
99
330
17
100
AcDbEntity
  8
Duenn
100
AcDbPolyline
 90
7
 70
1
 10
51.0
 20
180.0
 10
57.0
 20
180.0
 10
55.5
 20
181.5
 10
55.5
 20
194.0
 10
54.0
 20
196.0
 10
52.5
 20
194.0
 10
52.5
 20
181.5
  0
HATCH
  5
9A
330
17
100
AcDbEntity
  8
Schraffur
 62
7
100
AcDbHatch
 10
0.0
 20
0.0
 30
0.0
210
0.0
220
0.0
230
1.0
  2
ANSI31
 70
0
 71
0
 91
3
 92
3
 72
0
 73
1
 93
5
 10
47.0
 20
185.0
 10
61.0
 20
185.0
 10
61.0
 20
258.0
 10
59.0
 20
260.0
 10
47.0
 20
260.0
 97
0
 92
3
 72
0
 73
1
 93
5
 10
55.5
 20
185.0
 10
55.5
 20
194.0
 10
54.0
 20
196.0
 10
52.5
 20
194.0
 10
52.5
 20
185.0
 97
0
 92
3
 72
0
 73
1
 93
4
 10
48.9
 20
221.15
 10
59.1
 20
221.15
 10
59.1
 20
224.85
 10
48.9
 20
224.85
 97
0
 75
1
 76
1
 52
0.0
 41
1.2
 77
0
 78
1
 53
45.0
 43
0.0
 44
0.0
 45
-2.6940768364
 46
2.6940768364
 79
0
 98
0
  0
TEXT
  5
9B
330
17
100
AcDbEntity
  8
Text
100
AcDbText
 10
54.0
 20
223.0
 30
0.0
 40
2.5
  1
14/75
  7
ISO
 72
1
 11
54.0
 21
223.0
 31
0.0
100
AcDbText
 73
2
  0
LWPOLYLINE
  5
9C
330
17
100
AcDbEntity
  8
Kontur
100
AcDbPolyline
 90
11
 70
1
 10
210.0
 20
171.0
 10
225.0
 20
171.0
 42
0.41421356237309503
 10
228.0
 20
174.0
 10
228.0
 20
218.0
 42
0.41421356237309503
 10
225.0
 20
221.0
 10
213.0
 20
221.0
 42
0.41421356237309503
 10
210.0
 20
218.0
 10
210.0
 20
185.0
 10
215.0
 20
185.0
 10
215.0
 20
180.0
 10
210.0
 20
180.0
  0
HATCH
  5
9D
330
17
100
AcDbEntity
  8
Schraffur
 62
7
100
AcDbHatch
 10
0.0
 20
0.0
 30
0.0
210
0.0
220
0.0
230
1.0
  2
ANSI31
 70
0
 71
0
 91
2
 92
3
 72
1
 73
1
 93
11
 10
210.0
 20
171.0
 42
0.0
 10
225.0
 20
171.0
 42
0.41421356237309503
 10
228.0
 20
174.0
 42
0.0
 10
228.0
 20
218.0
 42
0.41421356237309503
 10
225.0
 20
221.0
 42
0.0
 10
213.0
 20
221.0
 42
0.41421356237309503
 10
210.0
 20
218.0
 42
0.0
 10
210.0
 20
185.0
 42
0.0
 10
215.0
 20
185.0
 42
0.0
 10
215.0
 20
180.0
 42
0.0
 10
210.0
 20
180.0
 42
0.0
 97
0
 92
3
 72
0
 73
1
 93
4
 10
214.8
 20
199.4
 10
223.2
 20
199.4
 10
223.2
 20
202.6
 10
214.8
 20
202.6
 97
0
 75
1
 76
1
 52
0.0
 41
1.2
 77
0
 78
1
 53
45.0
 43
0.0
 44
0.0
 45
-2.6940768364
 46
2.6940768364
 79
0
 98
0
  0
TEXT
  5
9E
330
17
100
AcDbEntity
  8
Text
100
AcDbText
 10
219.0
 20
201.0
 30
0.0
 40
2.0
  1
18/50
  7
ISO
 72
1
 11
219.0
 21
201.0
 31
0.0
100
AcDbText
 73
2
  0
LINE
  5
9F
330
17
100
AcDbEntity
  8
Kontur
100
AcDbLine
 10
47.0
 20
180.0
 30
0.0
 11
127.0
 21
180.0
 31
0.0
  0
LINE
  5
A0
330
17
100
AcDbEntity
  8
Kontur
100
AcDbLine
 10
47.0
 20
185.0
 30
0.0
 11
127.0
 21
185.0
 31
0.0
  0
LINE
  5
A1
330
17
100
AcDbEntity
  8
Kontur
100
AcDbLine
 10
47.0
 20
180.0
 30
0.0
 11
47.0
 21
185.0
 31
0.0
  0
LINE
  5
A2
330
17
100
AcDbEntity
  8
Duenn
100
AcDbLine
 10
59.0
 20
180.0
 30
0.0
 11
59.0
 21
185.0
 31
0.0
  0
LINE
  5
A3
330
17
100
AcDbEntity
  8
Duenn
100
AcDbLine
 10
63.0
 20
180.0
 30
0.0
 11
63.0
 21
185.0
 31
0.0
  0
LINE
  5
A4
330
17
100
AcDbEntity
  8
Duenn
100
AcDbLine
 10
67.0
 20
180.0
 30
0.0
 11
67.0
 21
185.0
 31
0.0
  0
LINE
  5
A5
330
17
100
AcDbEntity
  8
Duenn
100
AcDbLine
 10
71.0
 20
180.0
 30
0.0
 11
71.0
 21
185.0
 31
0.0
  0
LINE
  5
A6
330
17
100
AcDbEntity
  8
Duenn
100
AcDbLine
 10
75.0
 20
180.0
 30
0.0
 11
75.0
 21
185.0
 31
0.0
  0
LINE
  5
A7
330
17
100
AcDbEntity
  8
Duenn
100
AcDbLine
 10
79.0
 20
180.0
 30
0.0
 11
79.0
 21
185.0
 31
0.0
  0
LINE
  5
A8
330
17
100
AcDbEntity
  8
Duenn
100
AcDbLine
 10
83.0
 20
180.0
 30
0.0
 11
83.0
 21
185.0
 31
0.0
  0
LINE
  5
A9
330
17
100
AcDbEntity
  8
Duenn
100
AcDbLine
 10
103.0
 20
180.0
 30
0.0
 11
103.0
 21
185.0
 31
0.0
  0
LINE
  5
AA
330
17
100
AcDbEntity
  8
Duenn
100
AcDbLine
 10
107.0
 20
180.0
 30
0.0
 11
107.0
 21
185.0
 31
0.0
  0
LINE
  5
AB
330
17
100
AcDbEntity
  8
Duenn
100
AcDbLine
 10
111.0
 20
180.0
 30
0.0
 11
111.0
 21
185.0
 31
0.0
  0
LINE
  5
AC
330
17
100
AcDbEntity
  8
Duenn
100
AcDbLine
 10
115.0
 20
180.0
 30
0.0
 11
115.0
 21
185.0
 31
0.0
  0
LINE
  5
AD
330
17
100
AcDbEntity
  8
Duenn
100
AcDbLine
 10
119.0
 20
180.0
 30
0.0
 11
119.0
 21
185.0
 31
0.0
  0
LINE
  5
AE
330
17
100
AcDbEntity
  8
Duenn
100
AcDbLine
 10
123.0
 20
180.0
 30
0.0
 11
123.0
 21
185.0
 31
0.0
  0
LINE
  5
AF
330
17
100
AcDbEntity
  8
Kontur
100
AcDbLine
 10
133.0
 20
180.0
 30
0.0
 11
215.0
 21
180.0
 31
0.0
  0
LINE
  5
B0
330
17
100
AcDbEntity
  8
Kontur
100
AcDbLine
 10
133.0
 20
185.0
 30
0.0
 11
215.0
 21
185.0
 31
0.0
  0
LINE
  5
B1
330
17
100
AcDbEntity
  8
Kontur
100
AcDbLine
 10
215.0
 20
180.0
 30
0.0
 11
215.0
 21
185.0
 31
0.0
  0
LINE
  5
B2
330
17
100
AcDbEntity
  8
Duenn
100
AcDbLine
 10
137.0
 20
180.0
 30
0.0
 11
137.0
 21
185.0
 31
0.0
  0
LINE
  5
B3
330
17
100
AcDbEntity
  8
Duenn
100
AcDbLine
 10
141.0
 20
180.0
 30
0.0
 11
141.0
 21
185.0
 31
0.0
  0
LINE
  5
B4
330
17
100
AcDbEntity
  8
Duenn
100
AcDbLine
 10
145.0
 20
180.0
 30
0.0
 11
145.0
 21
185.0
 31
0.0
  0
LINE
  5
B5
330
17
100
AcDbEntity
  8
Duenn
100
AcDbLine
 10
149.0
 20
180.0
 30
0.0
 11
149.0
 21
185.0
 31
0.0
  0
LINE
  5
B6
330
17
100
AcDbEntity
  8
Duenn
100
AcDbLine
 10
153.0
 20
180.0
 30
0.0
 11
153.0
 21
185.0
 31
0.0
  0
LINE
  5
B7
330
17
100
AcDbEntity
  8
Duenn
100
AcDbLine
 10
157.0
 20
180.0
 30
0.0
 11
157.0
 21
185.0
 31
0.0
  0
LINE
  5
B8
330
17
100
AcDbEntity
  8
Duenn
100
AcDbLine
 10
161.0
 20
180.0
 30
0.0
 11
161.0
 21
185.0
 31
0.0
  0
LINE
  5
B9
330
17
100
AcDbEntity
  8
Duenn
100
AcDbLine
 10
165.0
 20
180.0
 30
0.0
 11
165.0
 21
185.0
 31
0.0
  0
LINE
  5
BA
330
17
100
AcDbEntity
  8
Duenn
100
AcDbLine
 10
169.0
 20
180.0
 30
0.0
 11
169.0
 21
185.0
 31
0.0
  0
LINE
  5
BB
330
17
100
AcDbEntity
  8
Duenn
100
AcDbLine
 10
173.0
 20
180.0
 30
0.0
 11
173.0
 21
185.0
 31
0.0
  0
LINE
  5
BC
330
17
100
AcDbEntity
  8
Duenn
100
AcDbLine
 10
177.0
 20
180.0
 30
0.0
 11
177.0
 21
185.0
 31
0.0
  0
LINE
  5
BD
330
17
100
AcDbEntity
  8
Duenn
100
AcDbLine
 10
181.0
 20
180.0
 30
0.0
 11
181.0
 21
185.0
 31
0.0
  0
LINE
  5
BE
330
17
100
AcDbEntity
  8
Duenn
100
AcDbLine
 10
185.0
 20
180.0
 30
0.0
 11
185.0
 21
185.0
 31
0.0
  0
LINE
  5
BF
330
17
100
AcDbEntity
  8
Duenn
100
AcDbLine
 10
189.0
 20
180.0
 30
0.0
 11
189.0
 21
185.0
 31
0.0
  0
LINE
  5
C0
330
17
100
AcDbEntity
  8
Duenn
100
AcDbLine
 10
193.0
 20
180.0
 30
0.0
 11
193.0
 21
185.0
 31
0.0
  0
LINE
  5
C1
330
17
100
AcDbEntity
  8
Duenn
100
AcDbLine
 10
197.0
 20
180.0
 30
0.0
 11
197.0
 21
185.0
 31
0.0
  0
LINE
  5
C2
330
17
100
AcDbEntity
  8
Duenn
100
AcDbLine
 10
201.0
 20
180.0
 30
0.0
 11
201.0
 21
185.0
 31
0.0
  0
LINE
  5
C3
330
17
100
AcDbEntity
  8
Duenn
100
AcDbLine
 10
205.0
 20
180.0
 30
0.0
 11
205.0
 21
185.0
 31
0.0
  0
LINE
  5
C4
330
17
100
AcDbEntity
  8
Duenn
100
AcDbLine
 10
209.0
 20
180.0
 30
0.0
 11
209.0
 21
185.0
 31
0.0
  0
LINE
  5
C5
330
17
100
AcDbEntity
  8
Duenn
100
AcDbLine
 10
213.0
 20
180.0
 30
0.0
 11
213.0
 21
185.0
 31
0.0
  0
TEXT
  5
C6
330
17
100
AcDbEntity
  8
Text
100
AcDbText
 10
93.0
 20
182.5
 30
0.0
 40
2.0
  1
FU 5
  7
ISO
 72
1
 11
93.0
 21
182.5
 31
0.0
100
AcDbText
 73
2
  0
LINE
  5
C7
330
17
100
AcDbEntity
  8
Kontur
100
AcDbLine
 10
47.0
 20
171.0
 30
0.0
 11
47.0
 21
180.0
 31
0.0
  0
LINE
  5
C8
330
17
100
AcDbEntity
  8
Kontur
100
AcDbLine
 10
47.0
 20
260.0
 30
0.0
 11
47.0
 21
268.0
 31
0.0
  0
LINE
  5
C9
330
17
100
AcDbEntity
  8
Kontur
100
AcDbLine
 10
47.0
 20
171.0
 30
0.0
 11
57.0
 21
168.0
 31
0.0
  0
LINE
  5
CA
330
17
100
AcDbEntity
  8
Kontur
100
AcDbLine
 10
57.0
 20
168.0
 30
0.0
 11
127.0
 21
168.0
 31
0.0
  0
LINE
  5
CB
330
17
100
AcDbEntity
  8
Kontur
100
AcDbLine
 10
133.0
 20
168.0
 30
0.0
 11
223.0
 21
168.0
 31
0.0
  0
LINE
  5
CC
330
17
100
AcDbEntity
  8
Kontur
100
AcDbLine
 10
223.0
 20
168.0
 30
0.0
 11
223.0
 21
171.0
 31
0.0
  0
LINE
  5
CD
330
17
100
AcDbEntity
  8
Kontur
100
AcDbLine
 10
47.0
 20
268.0
 30
0.0
 11
127.0
 21
268.0
 31
0.0
  0
LINE
  5
CE
330
17
100
AcDbEntity
  8
Kontur
100
AcDbLine
 10
133.0
 20
268.0
 30
0.0
 11
150.0
 21
268.0
 31
0.0
  0
LINE
  5
CF
330
17
100
AcDbEntity
  8
Kontur
100
AcDbLine
 10
47.0
 20
263.0
 30
0.0
 11
127.0
 21
263.0
 31
0.0
  0
LINE
  5
D0
330
17
100
AcDbEntity
  8
Kontur
100
AcDbLine
 10
133.0
 20
263.0
 30
0.0
 11
155.0
 21
263.0
 31
0.0
  0
LINE
  5
D1
330
17
100
AcDbEntity
  8
Kontur
100
AcDbLine
 10
150.0
 20
268.0
 30
0.0
 11
205.0
 21
213.0
 31
0.0
  0
LINE
  5
D2
330
17
100
AcDbEntity
  8
Kontur
100
AcDbLine
 10
205.0
 20
213.0
 30
0.0
 11
210.0
 21
213.0
 31
0.0
  0
LINE
  5
D3
330
17
100
AcDbEntity
  8
Verdeckt
100
AcDbLine
 10
47.0
 20
174.0
 30
0.0
 11
127.0
 21
174.0
 31
0.0
  0
LINE
  5
D4
330
17
100
AcDbEntity
  8
Verdeckt
100
AcDbLine
 10
133.0
 20
174.0
 30
0.0
 11
210.0
 21
174.0
 31
0.0
  0
SPLINE
  5
D5
330
17
100
AcDbEntity
  8
Duenn
100
AcDbSpline
 70
0
 71
3
 72
0
 73
0
 74
25
 11
128.5
 21
166.0
 31
0.0
 11
129.1
 21
170.33333333333334
 31
0.0
 11
129.53923048454132
 21
174.66666666666666
 31
0.0
 11
129.7
 21
179.0
 31
0.0
 11
129.53923048454132
 21
183.33333333333334
 31
0.0
 11
129.1
 21
187.66666666666666
 31
0.0
 11
128.5
 21
192.0
 31
0.0
 11
127.9
 21
196.33333333333334
 31
0.0
 11
127.46076951545868
 21
200.66666666666666
 31
0.0
 11
127.3
 21
205.0
 31
0.0
 11
127.46076951545868
 21
209.33333333333334
 31
0.0
 11
127.9
 21
213.66666666666666
 31
0.0
 11
128.5
 21
218.0
 31
0.0
 11
129.1
 21
222.33333333333331
 31
0.0
 11
129.53923048454132
 21
226.66666666666669
 31
0.0
 11
129.7
 21
231.0
 31
0.0
 11
129.53923048454132
 21
235.33333333333331
 31
0.0
 11
129.1
 21
239.66666666666669
 31
0.0
 11
128.5
 21
244.0
 31
0.0
 11
127.9
 21
248.33333333333331
 31
0.0
 11
127.46076951545868
 21
252.66666666666669
 31
0.0
 11
127.3
 21
257.0
 31
0.0
 11
127.46076951545868
 21
261.3333333333333
 31
0.0
 11
127.9
 21
265.6666666666667
 31
0.0
 11
128.5
 21
270.0
 31
0.0
  0
SPLINE
  5
D6
330
17
100
AcDbEntity
  8
Duenn
100
AcDbSpline
 70
0
 71
3
 72
0
 73
0
 74
25
 11
131.5
 21
166.0
 31
0.0
 11
132.1
 21
170.33333333333334
 31
0.0
 11
132.53923048454132
 21
174.66666666666666
 31
0.0
 11
132.7
 21
179.0
 31
0.0
 11
132.53923048454132
 21
183.33333333333334
 31
0.0
 11
132.1
 21
187.66666666666666
 31
0.0
 11
131.5
 21
192.0
 31
0.0
 11
130.9
 21
196.33333333333334
 31
0.0
 11
130.46076951545868
 21
200.66666666666666
 31
0.0
 11
130.3
 21
205.0
 31
0.0
 11
130.46076951545868
 21
209.33333333333334
 31
0.0
 11
130.9
 21
213.66666666666666
 31
0.0
 11
131.5
 21
218.0
 31
0.0
 11
132.1
 21
222.33333333333331
 31
0.0
 11
132.53923048454132
 21
226.66666666666669
 31
0.0
 11
132.7
 21
231.0
 31
0.0
 11
132.53923048454132
 21
235.33333333333331
 31
0.0
 11
132.1
 21
239.66666666666669
 31
0.0
 11
131.5
 21
244.0
 31
0.0
 11
130.9
 21
248.33333333333331
 31
0.0
 11
130.46076951545868
 21
252.66666666666669
 31
0.0
 11
130.3
 21
257.0
 31
0.0
 11
130.46076951545868
 21
261.3333333333333
 31
0.0
 11
130.9
 21
265.6666666666667
 31
0.0
 11
131.5
 21
270.0
 31
0.0
  0
DIMENSION
  5
D7
330
17
100
AcDbEntity
  8
Bemassung
100
AcDbDimension
280
0
  2
*D1
  3
TISCHLER
 10
47.0
 20
281.0
 30
0.0
 11
135.0
 21
283.05
 31
0.0
 70
32
 71
5
  1
345
100
AcDbAlignedDimension
 13
47.0
 23
268.0
 33
0.0
 14
223.0
 24
221.0
 34
0.0
 50
0.0
100
AcDbRotatedDimension
  0
DIMENSION
  5
EA
330
17
100
AcDbEntity
  8
Bemassung
100
AcDbDimension
280
0
  2
*D2
  3
TISCHLER
 10
150.0
 20
276.0
 30
0.0
 11
186.5
 21
278.05
 31
0.0
 70
32
 71
5
  1
73
100
AcDbAlignedDimension
 13
150.0
 23
268.0
 33
0.0
 14
223.0
 24
221.0
 34
0.0
 50
0.0
100
AcDbRotatedDimension
  0
DIMENSION
  5
F9
330
17
100
AcDbEntity
  8
Bemassung
100
AcDbDimension
280
0
  2
*D3
  3
TISCHLER
 10
144.0
 20
268.0
 30
0.0
 11
146.05
 21
240.5
 31
0.0
 70
32
 71
5
  1
55
100
AcDbAlignedDimension
 13
150.0
 23
268.0
 33
0.0
 14
205.0
 24
213.0
 34
0.0
 50
90.0
100
AcDbRotatedDimension
  0
DIMENSION
  5
108
330
17
100
AcDbEntity
  8
Bemassung
100
AcDbDimension
280
0
  2
*D4
  3
TISCHLER
 10
205.0
 20
232.0
 30
0.0
 11
207.5
 21
234.05
 31
0.0
 70
32
 71
5
  1
5
100
AcDbAlignedDimension
 13
205.0
 23
213.0
 33
0.0
 14
210.0
 24
221.0
 34
0.0
 50
0.0
100
AcDbRotatedDimension
  0
DIMENSION
  5
117
330
17
100
AcDbEntity
  8
Bemassung
100
AcDbDimension
280
0
  2
*D5
  3
TISCHLER
 10
210.0
 20
232.0
 30
0.0
 11
216.5
 21
234.05
 31
0.0
 70
32
 71
5
  1
13
100
AcDbAlignedDimension
 13
210.0
 23
221.0
 33
0.0
 14
223.0
 24
221.0
 34
0.0
 50
0.0
100
AcDbRotatedDimension
  0
DIMENSION
  5
126
330
17
100
AcDbEntity
  8
Bemassung
100
AcDbDimension
280
0
  2
*D6
  3
TISCHLER
 10
210.0
 20
164.0
 30
0.0
 11
212.5
 21
166.05
 31
0.0
 70
32
 71
5
  1
5
100
AcDbAlignedDimension
 13
210.0
 23
171.0
 33
0.0
 14
215.0
 24
180.0
 34
0.0
 50
0.0
100
AcDbRotatedDimension
  0
DIMENSION
  5
135
330
17
100
AcDbEntity
  8
Bemassung
100
AcDbDimension
280
0
  2
*D7
  3
TISCHLER
 10
47.0
 20
159.0
 30
0.0
 11
131.0
 21
161.05
 31
0.0
 70
32
 71
5
  1
337
100
AcDbAlignedDimension
 13
47.0
 23
168.0
 33
0.0
 14
215.0
 24
180.0
 34
0.0
 50
0.0
100
AcDbRotatedDimension
  0
DIMENSION
  5
144
330
17
100
AcDbEntity
  8
Bemassung
100
AcDbDimension
280
0
  2
*D8
  3
TISCHLER
 10
47.0
 20
153.0
 30
0.0
 11
137.5
 21
155.05
 31
0.0
 70
32
 71
5
  1
350
100
AcDbAlignedDimension
 13
47.0
 23
168.0
 33
0.0
 14
228.0
 24
174.0
 34
0.0
 50
0.0
100
AcDbRotatedDimension
  0
DIMENSION
  5
153
330
17
100
AcDbEntity
  8
Bemassung
100
AcDbDimension
280
0
  2
*D9
  3
TISCHLER
 10
33.0
 20
168.0
 30
0.0
 11
30.95
 21
218.0
 31
0.0
 70
32
 71
5
  1
100
100
AcDbAlignedDimension
 13
47.0
 23
168.0
 33
0.0
 14
47.0
 24
268.0
 34
0.0
 50
90.0
100
AcDbRotatedDimension
  0
DIMENSION
  5
162
330
17
100
AcDbEntity
  8
Bemassung
100
AcDbDimension
280
0
  2
*D10
  3
TISCHLER
 10
40.0
 20
168.0
 30
0.0
 11
37.95
 21
176.5
 31
0.0
 70
32
 71
5
  1
17
100
AcDbAlignedDimension
 13
47.0
 23
168.0
 33
0.0
 14
47.0
 24
185.0
 34
0.0
 50
90.0
100
AcDbRotatedDimension
  0
LWPOLYLINE
  5
171
330
17
100
AcDbEntity
  8
Bemassung
100
AcDbPolyline
 90
3
 70
0
 10
227.10000000000002
 20
220.1
 10
232.0
 20
225.0
 10
234.0
 20
225.0
  0
SOLID
  5
172
330
17
100
AcDbEntity
  8
Bemassung
100
AcDbTrace
 10
227.10000000000002
 20
220.1
 30
0.0
 11
229.18596500450033
 21
221.54956890143242
 31
0.0
 12
228.54956890143242
 22
222.18596500450033
 32
0.0
 13
228.54956890143242
 23
222.18596500450033
 33
0.0
  0
TEXT
  5
173
330
17
100
AcDbEntity
  8
Text
100
AcDbText
 10
234.8
 20
225.6
 30
0.0
 40
2.5
  1
R3
  7
ISO
 11
234.8
 21
225.6
 31
0.0
100
AcDbText
  0
LWPOLYLINE
  5
174
330
17
100
AcDbEntity
  8
Bemassung
100
AcDbPolyline
 90
3
 70
0
 10
60.0
 20
259.0
 10
67.0
 20
263.0
 10
70.0
 20
263.0
  0
SOLID
  5
175
330
17
100
AcDbEntity
  8
Bemassung
100
AcDbTrace
 10
60.0
 20
259.0
 30
0.0
 11
62.39387037757172
 21
259.84963793193606
 31
0.0
 12
61.94734533305057
 22
260.6310567598481
 32
0.0
 13
61.94734533305057
 23
260.6310567598481
 33
0.0
  0
TEXT
  5
176
330
17
100
AcDbEntity
  8
Text
100
AcDbText
 10
70.8
 20
263.6
 30
0.0
 40
2.5
  1
Fase 2x45°
  7
ISO
 11
70.8
 21
263.6
 31
0.0
100
AcDbText
  0
LWPOLYLINE
  5
177
330
17
100
AcDbEntity
  8
Bemassung
100
AcDbPolyline
 90
3
 70
0
 10
51.0
 20
169.8
 10
56.0
 20
164.0
 10
59.0
 20
164.0
  0
SOLID
  5
178
330
17
100
AcDbEntity
  8
Bemassung
100
AcDbTrace
 10
51.0
 20
169.8
 30
0.0
 11
52.291514572453394
 21
167.6126522660673
 31
0.0
 12
52.97318353789392
 22
168.20029792592982
 32
0.0
 13
52.97318353789392
 23
168.20029792592982
 33
0.0
  0
TEXT
  5
179
330
17
100
AcDbEntity
  8
Text
100
AcDbText
 10
59.8
 20
164.6
 30
0.0
 40
2.5
  1
Fase 3x10
  7
ISO
 11
59.8
 21
164.6
 31
0.0
100
AcDbText
  0
LWPOLYLINE
  5
17A
330
17
100
AcDbEntity
  8
Bemassung
100
AcDbPolyline
 90
3
 70
0
 10
55.5
 20
194.0
 10
73.0
 20
213.0
 10
76.0
 20
213.0
  0
SOLID
  5
17B
330
17
100
AcDbEntity
  8
Bemassung
100
AcDbTrace
 10
55.5
 20
194.0
 30
0.0
 11
57.52468468420106
 21
195.53399867325942
 31
0.0
 12
56.86269408955789
 22
196.14372685253602
 32
0.0
 13
56.86269408955789
 23
196.14372685253602
 33
0.0
  0
TEXT
  5
17C
330
17
100
AcDbEntity
  8
Text
100
AcDbText
 10
76.8
 20
213.6
 30
0.0
 40
2.5
  1
3x16 DIN 97-St
  7
ISO
 11
76.8
 21
213.6
 31
0.0
100
AcDbText
  0
TEXT
  5
17D
330
17
100
AcDbEntity
  8
Text
100
AcDbText
 10
95.0
 20
228.0
 30
0.0
 40
5.0
  1
A - A
  7
ISO
 72
1
 11
95.0
 21
228.0
 31
0.0
100
AcDbText
 73
2
  0
LWPOLYLINE
  5
17E
330
17
100
AcDbEntity
  8
Kontur
100
AcDbPolyline
 90
12
 70
1
 10
47.0
 20
37.0
 10
47.0
 20
131.0
 10
53.5
 20
131.0
 10
53.5
 20
126.0
 10
61.0
 20
126.0
 10
61.0
 20
48.0
 10
56.0
 20
48.0
 10
56.0
 20
43.0
 10
61.0
 20
43.0
 10
61.0
 20
31.0
 10
54.0
 20
31.0
 10
54.0
 20
37.0
  0
HATCH
  5
17F
330
17
100
AcDbEntity
  8
Schraffur
 62
7
100
AcDbHatch
 10
0.0
 20
0.0
 30
0.0
210
0.0
220
0.0
230
1.0
  2
ANSI31
 70
0
 71
0
 91
2
 92
3
 72
0
 73
1
 93
12
 10
47.0
 20
37.0
 10
47.0
 20
131.0
 10
53.5
 20
131.0
 10
53.5
 20
126.0
 10
61.0
 20
126.0
 10
61.0
 20
48.0
 10
56.0
 20
48.0
 10
56.0
 20
43.0
 10
61.0
 20
43.0
 10
61.0
 20
31.0
 10
54.0
 20
31.0
 10
54.0
 20
37.0
 97
0
 92
3
 72
0
 73
1
 93
4
 10
49.08
 20
84.4
 10
58.92
 20
84.4
 10
58.92
 20
87.6
 10
49.08
 20
87.6
 97
0
 75
1
 76
1
 52
0.0
 41
1.2
 77
0
 78
1
 53
45.0
 43
0.0
 44
0.0
 45
-2.6940768364
 46
2.6940768364
 79
0
 98
0
  0
TEXT
  5
180
330
17
100
AcDbEntity
  8
Text
100
AcDbText
 10
54.0
 20
86.0
 30
0.0
 40
2.0
  1
14/100
  7
ISO
 72
1
 11
54.0
 21
86.0
 31
0.0
100
AcDbText
 73
2
  0
LWPOLYLINE
  5
181
330
17
100
AcDbEntity
  8
Kontur
100
AcDbPolyline
 90
12
 70
1
 10
208.0
 20
37.0
 10
208.0
 20
131.0
 10
201.5
 20
131.0
 10
201.5
 20
126.0
 10
194.0
 20
126.0
 10
194.0
 20
48.0
 10
199.0
 20
48.0
 10
199.0
 20
43.0
 10
194.0
 20
43.0
 10
194.0
 20
31.0
 10
201.0
 20
31.0
 10
201.0
 20
37.0
  0
HATCH
  5
182
330
17
100
AcDbEntity
  8
Schraffur
 62
7
100
AcDbHatch
 10
0.0
 20
0.0
 30
0.0
210
0.0
220
0.0
230
1.0
  2
ANSI31
 70
0
 71
0
 91
2
 92
3
 72
0
 73
1
 93
12
 10
208.0
 20
37.0
 10
208.0
 20
131.0
 10
201.5
 20
131.0
 10
201.5
 20
126.0
 10
194.0
 20
126.0
 10
194.0
 20
48.0
 10
199.0
 20
48.0
 10
199.0
 20
43.0
 10
194.0
 20
43.0
 10
194.0
 20
31.0
 10
201.0
 20
31.0
 10
201.0
 20
37.0
 97
0
 92
3
 72
0
 73
1
 93
4
 10
196.08
 20
84.4
 10
205.92
 20
84.4
 10
205.92
 20
87.6
 10
196.08
 20
87.6
 97
0
 75
1
 76
1
 52
0.0
 41
1.2
 77
0
 78
1
 53
45.0
 43
0.0
 44
0.0
 45
-2.6940768364
 46
2.6940768364
 79
0
 98
0
  0
TEXT
  5
183
330
17
100
AcDbEntity
  8
Text
100
AcDbText
 10
201.0
 20
86.0
 30
0.0
 40
2.0
  1
14/100
  7
ISO
 72
1
 11
201.0
 21
86.0
 31
0.0
100
AcDbText
 73
2
  0
LINE
  5
184
330
17
100
AcDbEntity
  8
Kontur
100
AcDbLine
 10
56.0
 20
43.0
 30
0.0
 11
142.0
 21
43.0
 31
0.0
  0
LINE
  5
185
330
17
100
AcDbEntity
  8
Kontur
100
AcDbLine
 10
56.0
 20
48.0
 30
0.0
 11
142.0
 21
48.0
 31
0.0
  0
LINE
  5
186
330
17
100
AcDbEntity
  8
Kontur
100
AcDbLine
 10
56.0
 20
43.0
 30
0.0
 11
56.0
 21
48.0
 31
0.0
  0
LINE
  5
187
330
17
100
AcDbEntity
  8
Duenn
100
AcDbLine
 10
60.0
 20
43.0
 30
0.0
 11
60.0
 21
48.0
 31
0.0
  0
LINE
  5
188
330
17
100
AcDbEntity
  8
Duenn
100
AcDbLine
 10
76.0
 20
43.0
 30
0.0
 11
76.0
 21
48.0
 31
0.0
  0
LINE
  5
189
330
17
100
AcDbEntity
  8
Duenn
100
AcDbLine
 10
80.0
 20
43.0
 30
0.0
 11
80.0
 21
48.0
 31
0.0
  0
LINE
  5
18A
330
17
100
AcDbEntity
  8
Duenn
100
AcDbLine
 10
84.0
 20
43.0
 30
0.0
 11
84.0
 21
48.0
 31
0.0
  0
LINE
  5
18B
330
17
100
AcDbEntity
  8
Duenn
100
AcDbLine
 10
88.0
 20
43.0
 30
0.0
 11
88.0
 21
48.0
 31
0.0
  0
LINE
  5
18C
330
17
100
AcDbEntity
  8
Duenn
100
AcDbLine
 10
92.0
 20
43.0
 30
0.0
 11
92.0
 21
48.0
 31
0.0
  0
LINE
  5
18D
330
17
100
AcDbEntity
  8
Duenn
100
AcDbLine
 10
96.0
 20
43.0
 30
0.0
 11
96.0
 21
48.0
 31
0.0
  0
LINE
  5
18E
330
17
100
AcDbEntity
  8
Duenn
100
AcDbLine
 10
100.0
 20
43.0
 30
0.0
 11
100.0
 21
48.0
 31
0.0
  0
LINE
  5
18F
330
17
100
AcDbEntity
  8
Duenn
100
AcDbLine
 10
104.0
 20
43.0
 30
0.0
 11
104.0
 21
48.0
 31
0.0
  0
LINE
  5
190
330
17
100
AcDbEntity
  8
Duenn
100
AcDbLine
 10
124.0
 20
43.0
 30
0.0
 11
124.0
 21
48.0
 31
0.0
  0
LINE
  5
191
330
17
100
AcDbEntity
  8
Duenn
100
AcDbLine
 10
128.0
 20
43.0
 30
0.0
 11
128.0
 21
48.0
 31
0.0
  0
LINE
  5
192
330
17
100
AcDbEntity
  8
Duenn
100
AcDbLine
 10
132.0
 20
43.0
 30
0.0
 11
132.0
 21
48.0
 31
0.0
  0
LINE
  5
193
330
17
100
AcDbEntity
  8
Duenn
100
AcDbLine
 10
136.0
 20
43.0
 30
0.0
 11
136.0
 21
48.0
 31
0.0
  0
LINE
  5
194
330
17
100
AcDbEntity
  8
Duenn
100
AcDbLine
 10
140.0
 20
43.0
 30
0.0
 11
140.0
 21
48.0
 31
0.0
  0
LINE
  5
195
330
17
100
AcDbEntity
  8
Kontur
100
AcDbLine
 10
148.0
 20
43.0
 30
0.0
 11
199.0
 21
43.0
 31
0.0
  0
LINE
  5
196
330
17
100
AcDbEntity
  8
Kontur
100
AcDbLine
 10
148.0
 20
48.0
 30
0.0
 11
199.0
 21
48.0
 31
0.0
  0
LINE
  5
197
330
17
100
AcDbEntity
  8
Kontur
100
AcDbLine
 10
199.0
 20
43.0
 30
0.0
 11
199.0
 21
48.0
 31
0.0
  0
LINE
  5
198
330
17
100
AcDbEntity
  8
Duenn
100
AcDbLine
 10
152.0
 20
43.0
 30
0.0
 11
152.0
 21
48.0
 31
0.0
  0
LINE
  5
199
330
17
100
AcDbEntity
  8
Duenn
100
AcDbLine
 10
156.0
 20
43.0
 30
0.0
 11
156.0
 21
48.0
 31
0.0
  0
LINE
  5
19A
330
17
100
AcDbEntity
  8
Duenn
100
AcDbLine
 10
160.0
 20
43.0
 30
0.0
 11
160.0
 21
48.0
 31
0.0
  0
LINE
  5
19B
330
17
100
AcDbEntity
  8
Duenn
100
AcDbLine
 10
164.0
 20
43.0
 30
0.0
 11
164.0
 21
48.0
 31
0.0
  0
LINE
  5
19C
330
17
100
AcDbEntity
  8
Duenn
100
AcDbLine
 10
168.0
 20
43.0
 30
0.0
 11
168.0
 21
48.0
 31
0.0
  0
LINE
  5
19D
330
17
100
AcDbEntity
  8
Duenn
100
AcDbLine
 10
172.0
 20
43.0
 30
0.0
 11
172.0
 21
48.0
 31
0.0
  0
LINE
  5
19E
330
17
100
AcDbEntity
  8
Duenn
100
AcDbLine
 10
176.0
 20
43.0
 30
0.0
 11
176.0
 21
48.0
 31
0.0
  0
LINE
  5
19F
330
17
100
AcDbEntity
  8
Duenn
100
AcDbLine
 10
180.0
 20
43.0
 30
0.0
 11
180.0
 21
48.0
 31
0.0
  0
LINE
  5
1A0
330
17
100
AcDbEntity
  8
Duenn
100
AcDbLine
 10
184.0
 20
43.0
 30
0.0
 11
184.0
 21
48.0
 31
0.0
  0
LINE
  5
1A1
330
17
100
AcDbEntity
  8
Duenn
100
AcDbLine
 10
188.0
 20
43.0
 30
0.0
 11
188.0
 21
48.0
 31
0.0
  0
LINE
  5
1A2
330
17
100
AcDbEntity
  8
Duenn
100
AcDbLine
 10
192.0
 20
43.0
 30
0.0
 11
192.0
 21
48.0
 31
0.0
  0
LINE
  5
1A3
330
17
100
AcDbEntity
  8
Duenn
100
AcDbLine
 10
196.0
 20
43.0
 30
0.0
 11
196.0
 21
48.0
 31
0.0
  0
TEXT
  5
1A4
330
17
100
AcDbEntity
  8
Text
100
AcDbText
 10
114.0
 20
45.5
 30
0.0
 40
2.0
  1
FU 5
  7
ISO
 72
1
 11
114.0
 21
45.5
 31
0.0
100
AcDbText
 73
2
  0
LINE
  5
1A5
330
17
100
AcDbEntity
  8
Kontur
100
AcDbLine
 10
61.0
 20
123.0
 30
0.0
 11
142.0
 21
123.0
 31
0.0
  0
LINE
  5
1A6
330
17
100
AcDbEntity
  8
Kontur
100
AcDbLine
 10
148.0
 20
123.0
 30
0.0
 11
194.0
 21
123.0
 31
0.0
  0
LINE
  5
1A7
330
17
100
AcDbEntity
  8
Kontur
100
AcDbLine
 10
61.0
 20
121.0
 30
0.0
 11
142.0
 21
121.0
 31
0.0
  0
LINE
  5
1A8
330
17
100
AcDbEntity
  8
Kontur
100
AcDbLine
 10
148.0
 20
121.0
 30
0.0
 11
194.0
 21
121.0
 31
0.0
  0
LINE
  5
1A9
330
17
100
AcDbEntity
  8
Mittellinie
100
AcDbLine
 10
96.0
 20
35.0
 30
0.0
 11
96.0
 21
67.0
 31
0.0
  0
LINE
  5
1AA
330
17
100
AcDbEntity
  8
Mittellinie
100
AcDbLine
 10
159.0
 20
35.0
 30
0.0
 11
159.0
 21
67.0
 31
0.0
  0
LWPOLYLINE
  5
1AB
330
17
100
AcDbEntity
  8
Bemassung
100
AcDbPolyline
 90
4
 70
0
 10
96.0
 20
64.0
 10
104.0
 20
72.0
 10
156.0
 20
72.0
 10
159.0
 20
64.0
  0
TEXT
  5
1AC
330
17
100
AcDbEntity
  8
Text
100
AcDbText
 10
130.0
 20
72.8
 30
0.0
 40
2.5
  1
3x16 DIN 97-St
  7
ISO
 72
1
 11
130.0
 21
72.8
 31
0.0
100
AcDbText
 73
1
  0
SPLINE
  5
1AD
330
17
100
AcDbEntity
  8
Duenn
100
AcDbSpline
 70
0
 71
3
 72
0
 73
0
 74
25
 11
143.5
 21
29.0
 31
0.0
 11
144.1
 21
33.333333333333336
 31
0.0
 11
144.53923048454132
 21
37.666666666666664
 31
0.0
 11
144.7
 21
42.0
 31
0.0
 11
144.53923048454132
 21
46.33333333333333
 31
0.0
 11
144.1
 21
50.66666666666667
 31
0.0
 11
143.5
 21
55.0
 31
0.0
 11
142.9
 21
59.333333333333336
 31
0.0
 11
142.46076951545868
 21
63.666666666666664
 31
0.0
 11
142.3
 21
68.0
 31
0.0
 11
142.46076951545868
 21
72.33333333333334
 31
0.0
 11
142.9
 21
76.66666666666666
 31
0.0
 11
143.5
 21
81.0
 31
0.0
 11
144.1
 21
85.33333333333333
 31
0.0
 11
144.53923048454132
 21
89.66666666666667
 31
0.0
 11
144.7
 21
94.0
 31
0.0
 11
144.53923048454132
 21
98.33333333333333
 31
0.0
 11
144.1
 21
102.66666666666667
 31
0.0
 11
143.5
 21
107.0
 31
0.0
 11
142.9
 21
111.33333333333333
 31
0.0
 11
142.46076951545868
 21
115.66666666666667
 31
0.0
 11
142.3
 21
120.0
 31
0.0
 11
142.46076951545868
 21
124.33333333333333
 31
0.0
 11
142.9
 21
128.66666666666669
 31
0.0
 11
143.5
 21
133.0
 31
0.0
  0
SPLINE
  5
1AE
330
17
100
AcDbEntity
  8
Duenn
100
AcDbSpline
 70
0
 71
3
 72
0
 73
0
 74
25
 11
146.5
 21
29.0
 31
0.0
 11
147.1
 21
33.333333333333336
 31
0.0
 11
147.53923048454132
 21
37.666666666666664
 31
0.0
 11
147.7
 21
42.0
 31
0.0
 11
147.53923048454132
 21
46.33333333333333
 31
0.0
 11
147.1
 21
50.66666666666667
 31
0.0
 11
146.5
 21
55.0
 31
0.0
 11
145.9
 21
59.333333333333336
 31
0.0
 11
145.46076951545868
 21
63.666666666666664
 31
0.0
 11
145.3
 21
68.0
 31
0.0
 11
145.46076951545868
 21
72.33333333333334
 31
0.0
 11
145.9
 21
76.66666666666666
 31
0.0
 11
146.5
 21
81.0
 31
0.0
 11
147.1
 21
85.33333333333333
 31
0.0
 11
147.53923048454132
 21
89.66666666666667
 31
0.0
 11
147.7
 21
94.0
 31
0.0
 11
147.53923048454132
 21
98.33333333333333
 31
0.0
 11
147.1
 21
102.66666666666667
 31
0.0
 11
146.5
 21
107.0
 31
0.0
 11
145.9
 21
111.33333333333333
 31
0.0
 11
145.46076951545868
 21
115.66666666666667
 31
0.0
 11
145.3
 21
120.0
 31
0.0
 11
145.46076951545868
 21
124.33333333333333
 31
0.0
 11
145.9
 21
128.66666666666669
 31
0.0
 11
146.5
 21
133.0
 31
0.0
  0
DIMENSION
  5
1AF
330
17
100
AcDbEntity
  8
Bemassung
100
AcDbDimension
280
0
  2
*D11
  3
TISCHLER
 10
53.5
 20
141.0
 30
0.0
 11
127.5
 21
143.05
 31
0.0
 70
32
 71
5
  1
242 (Prüfmaß)
100
AcDbAlignedDimension
 13
53.5
 23
131.0
 33
0.0
 14
201.5
 24
131.0
 34
0.0
 50
0.0
100
AcDbRotatedDimension
  0
DIMENSION
  5
1BE
330
17
100
AcDbEntity
  8
Bemassung
100
AcDbDimension
280
0
  2
*D12
  3
TISCHLER
 10
194.0
 20
136.0
 30
0.0
 11
197.75
 21
138.05
 31
0.0
 70
32
 71
5
  1
7,5
100
AcDbAlignedDimension
 13
194.0
 23
126.0
 33
0.0
 14
201.5
 24
131.0
 34
0.0
 50
0.0
100
AcDbRotatedDimension
  0
DIMENSION
  5
1CD
330
17
100
AcDbEntity
  8
Bemassung
100
AcDbDimension
280
0
  2
*D13
  3
TISCHLER
 10
201.5
 20
136.0
 30
0.0
 11
204.75
 21
139.55
 31
0.0
 70
32
 71
5
  1
(6,5)
100
AcDbAlignedDimension
 13
201.5
 23
131.0
 33
0.0
 14
208.0
 24
131.0
 34
0.0
 50
0.0
100
AcDbRotatedDimension
  0
DIMENSION
  5
1DC
330
17
100
AcDbEntity
  8
Bemassung
100
AcDbDimension
280
0
  2
*D14
  3
TISCHLER
 10
69.0
 20
126.0
 30
0.0
 11
66.95
 21
128.5
 31
0.0
 70
32
 71
5
  1
5
100
AcDbAlignedDimension
 13
61.0
 23
126.0
 33
0.0
 14
53.5
 24
131.0
 34
0.0
 50
90.0
100
AcDbRotatedDimension
  0
DIMENSION
  5
1EB
330
17
100
AcDbEntity
  8
Bemassung
100
AcDbDimension
280
0
  2
*D15
  3
TISCHLER
 10
41.0
 20
31.0
 30
0.0
 11
38.95
 21
34.0
 31
0.0
 70
32
 71
5
  1
6
100
AcDbAlignedDimension
 13
54.0
 23
31.0
 33
0.0
 14
47.0
 24
37.0
 34
0.0
 50
90.0
100
AcDbRotatedDimension
  0
DIMENSION
  5
1FA
330
17
100
AcDbEntity
  8
Bemassung
100
AcDbDimension
280
0
  2
*D16
  3
TISCHLER
 10
81.0
 20
31.0
 30
0.0
 11
78.95
 21
39.5
 31
0.0
 70
32
 71
5
  1
17
100
AcDbAlignedDimension
 13
61.0
 23
31.0
 33
0.0
 14
77.0
 24
48.0
 34
0.0
 50
90.0
100
AcDbRotatedDimension
  0
DIMENSION
  5
209
330
17
100
AcDbEntity
  8
Bemassung
100
AcDbDimension
280
0
  2
*D17
  3
TISCHLER
 10
69.0
 20
43.0
 30
0.0
 11
66.95
 21
45.5
 31
0.0
 70
32
 71
5
  1
5
100
AcDbAlignedDimension
 13
69.0
 23
43.0
 33
0.0
 14
69.0
 24
48.0
 34
0.0
 50
90.0
100
AcDbRotatedDimension
  0
DIMENSION
  5
218
330
17
100
AcDbEntity
  8
Bemassung
100
AcDbDimension
280
0
  2
*D18
  3
TISCHLER
 10
56.0
 20
25.0
 30
0.0
 11
58.5
 21
27.05
 31
0.0
 70
32
 71
5
  1
5
100
AcDbAlignedDimension
 13
56.0
 23
43.0
 33
0.0
 14
61.0
 24
31.0
 34
0.0
 50
0.0
100
AcDbRotatedDimension
  0
DIMENSION
  5
227
330
17
100
AcDbEntity
  8
Bemassung
100
AcDbDimension
280
0
  2
*D19
  3
TISCHLER
 10
61.0
 20
25.0
 30
0.0
 11
78.5
 21
27.05
 31
0.0
 70
32
 71
5
  1
35
100
AcDbAlignedDimension
 13
61.0
 23
31.0
 33
0.0
 14
96.0
 24
35.0
 34
0.0
 50
0.0
100
AcDbRotatedDimension
  0
DIMENSION
  5
236
330
17
100
AcDbEntity
  8
Bemassung
100
AcDbDimension
280
0
  2
*D20
  3
TISCHLER
 10
96.0
 20
25.0
 30
0.0
 11
127.5
 21
27.05
 31
0.0
 70
32
 71
5
  1
2x78,5
100
AcDbAlignedDimension
 13
96.0
 23
35.0
 33
0.0
 14
159.0
 24
35.0
 34
0.0
 50
0.0
100
AcDbRotatedDimension
  0
DIMENSION
  5
245
330
17
100
AcDbEntity
  8
Bemassung
100
AcDbDimension
280
0
  2
*D21
  3
TISCHLER
 10
201.0
 20
25.0
 30
0.0
 11
204.5
 21
27.05
 31
0.0
 70
32
 71
5
  1
7
100
AcDbAlignedDimension
 13
201.0
 23
31.0
 33
0.0
 14
208.0
 24
37.0
 34
0.0
 50
0.0
100
AcDbRotatedDimension
  0
DIMENSION
  5
254
330
17
100
AcDbEntity
  8
Bemassung
100
AcDbDimension
280
0
  2
*D22
  3
TISCHLER
 10
56.0
 20
19.0
 30
0.0
 11
127.5
 21
21.05
 31
0.0
 70
32
 71
5
  1
237
100
AcDbAlignedDimension
 13
56.0
 23
43.0
 33
0.0
 14
199.0
 24
43.0
 34
0.0
 50
0.0
100
AcDbRotatedDimension
  0
DIMENSION
  5
263
330
17
100
AcDbEntity
  8
Bemassung
100
AcDbDimension
280
0
  2
*D23
  3
TISCHLER
 10
54.0
 20
13.0
 30
0.0
 11
127.5
 21
15.05
 31
0.0
 70
32
 71
5
  1
241 (Prüfmaß)
100
AcDbAlignedDimension
 13
54.0
 23
31.0
 33
0.0
 14
201.0
 24
31.0
 34
0.0
 50
0.0
100
AcDbRotatedDimension
  0
TEXT
  5
272
330
17
100
AcDbEntity
  8
Text
100
AcDbText
 10
107.0
 20
91.0
 30
0.0
 40
5.0
  1
B - B
  7
ISO
 72
1
 11
107.0
 21
91.0
 31
0.0
100
AcDbText
 73
2
  0
LINE
  5
273
330
17
100
AcDbEntity
  8
Kontur
100
AcDbLine
 10
243.0
 20
265.55128205128204
 30
0.0
 11
243.0
 21
275.0
 31
0.0
  0
LINE
  5
274
330
17
100
AcDbEntity
  8
Kontur
100
AcDbLine
 10
244.3
 20
274.0128205128205
 30
0.0
 11
244.3
 21
275.0
 31
0.0
  0
LINE
  5
275
330
17
100
AcDbEntity
  8
Kontur
100
AcDbLine
 10
243.0
 20
275.0
 30
0.0
 11
244.3
 21
275.0
 31
0.0
  0
LINE
  5
276
330
17
100
AcDbEntity
  8
Kontur
100
AcDbLine
 10
292.7
 20
274.0128205128205
 30
0.0
 11
292.7
 21
275.0
 31
0.0
  0
LINE
  5
277
330
17
100
AcDbEntity
  8
Kontur
100
AcDbLine
 10
294.0
 20
265.55128205128204
 30
0.0
 11
294.0
 21
275.0
 31
0.0
  0
LINE
  5
278
330
17
100
AcDbEntity
  8
Kontur
100
AcDbLine
 10
292.7
 20
275.0
 30
0.0
 11
294.0
 21
275.0
 31
0.0
  0
LINE
  5
279
330
17
100
AcDbEntity
  8
Kontur
100
AcDbLine
 10
244.3
 20
274.0
 30
0.0
 11
244.4
 21
274.0
 31
0.0
  0
LINE
  5
27A
330
17
100
AcDbEntity
  8
Kontur
100
AcDbLine
 10
292.6
 20
274.0
 30
0.0
 11
292.7
 21
274.0
 31
0.0
  0
LINE
  5
27B
330
17
100
AcDbEntity
  8
Kontur
100
AcDbLine
 10
244.4
 20
255.0
 30
0.0
 11
244.4
 21
255.6
 31
0.0
  0
LINE
  5
27C
330
17
100
AcDbEntity
  8
Kontur
100
AcDbLine
 10
244.4
 20
255.0
 30
0.0
 11
244.8
 21
255.0
 31
0.0
  0
LINE
  5
27D
330
17
100
AcDbEntity
  8
Kontur
100
AcDbLine
 10
244.4
 20
274.0
 30
0.0
 11
244.8
 21
274.0
 31
0.0
  0
LINE
  5
27E
330
17
100
AcDbEntity
  8
Kontur
100
AcDbLine
 10
292.6
 20
255.0
 30
0.0
 11
292.6
 21
255.6
 31
0.0
  0
LINE
  5
27F
330
17
100
AcDbEntity
  8
Kontur
100
AcDbLine
 10
292.2
 20
255.0
 30
0.0
 11
292.6
 21
255.0
 31
0.0
  0
LINE
  5
280
330
17
100
AcDbEntity
  8
Kontur
100
AcDbLine
 10
292.2
 20
274.0
 30
0.0
 11
292.6
 21
274.0
 31
0.0
  0
LINE
  5
281
330
17
100
AcDbEntity
  8
Kontur
100
AcDbLine
 10
245.8
 20
255.0
 30
0.0
 11
245.8
 21
255.6
 31
0.0
  0
LINE
  5
282
330
17
100
AcDbEntity
  8
Kontur
100
AcDbLine
 10
244.8
 20
255.0
 30
0.0
 11
245.8
 21
255.0
 31
0.0
  0
LINE
  5
283
330
17
100
AcDbEntity
  8
Kontur
100
AcDbLine
 10
291.2
 20
255.0
 30
0.0
 11
291.2
 21
255.6
 31
0.0
  0
LINE
  5
284
330
17
100
AcDbEntity
  8
Kontur
100
AcDbLine
 10
291.2
 20
255.0
 30
0.0
 11
292.2
 21
255.0
 31
0.0
  0
LINE
  5
285
330
17
100
AcDbEntity
  8
Kontur
100
AcDbLine
 10
245.8
 20
265.5492957746479
 30
0.0
 11
245.8
 21
274.0
 31
0.0
  0
LINE
  5
286
330
17
100
AcDbEntity
  8
Kontur
100
AcDbLine
 10
244.8
 20
274.0
 30
0.0
 11
245.8
 21
274.0
 31
0.0
  0
LINE
  5
287
330
17
100
AcDbEntity
  8
Kontur
100
AcDbLine
 10
291.2
 20
265.5492957746479
 30
0.0
 11
291.2
 21
274.0
 31
0.0
  0
LINE
  5
288
330
17
100
AcDbEntity
  8
Kontur
100
AcDbLine
 10
291.2
 20
274.0
 30
0.0
 11
292.2
 21
274.0
 31
0.0
  0
LINE
  5
289
330
17
100
AcDbEntity
  8
Kontur
100
AcDbLine
 10
245.8
 20
273.4
 30
0.0
 11
291.2
 21
273.4
 31
0.0
  0
LINE
  5
28A
330
17
100
AcDbEntity
  8
Kontur
100
AcDbLine
 10
243.0
 20
255.6
 30
0.0
 11
243.0
 21
265.6
 31
0.0
  0
LINE
  5
28B
330
17
100
AcDbEntity
  8
Kontur
100
AcDbLine
 10
243.0
 20
255.6
 30
0.0
 11
245.8
 21
255.6
 31
0.0
  0
LINE
  5
28C
330
17
100
AcDbEntity
  8
Kontur
100
AcDbLine
 10
243.0
 20
265.6
 30
0.0
 11
245.8
 21
265.6
 31
0.0
  0
LINE
  5
28D
330
17
100
AcDbEntity
  8
Kontur
100
AcDbLine
 10
294.0
 20
255.6
 30
0.0
 11
294.0
 21
265.6
 31
0.0
  0
LINE
  5
28E
330
17
100
AcDbEntity
  8
Kontur
100
AcDbLine
 10
291.2
 20
255.6
 30
0.0
 11
294.0
 21
255.6
 31
0.0
  0
LINE
  5
28F
330
17
100
AcDbEntity
  8
Kontur
100
AcDbLine
 10
291.2
 20
265.6
 30
0.0
 11
294.0
 21
265.6
 31
0.0
  0
LINE
  5
290
330
17
100
AcDbEntity
  8
Kontur
100
AcDbLine
 10
245.8
 20
255.6
 30
0.0
 11
291.2
 21
255.6
 31
0.0
  0
LINE
  5
291
330
17
100
AcDbEntity
  8
Kontur
100
AcDbLine
 10
245.8
 20
265.6
 30
0.0
 11
291.2
 21
265.6
 31
0.0
  0
DIMENSION
  5
292
330
17
100
AcDbEntity
  8
Bemassung
100
AcDbDimension
280
0
  2
*D24
  3
TISCHLER
 10
243.0
 20
234.0
 30
0.0
 11
268.5
 21
236.05
 31
0.0
 70
32
 71
5
  1
255
100
AcDbAlignedDimension
 13
243.0
 23
255.0
 33
0.0
 14
294.0
 24
255.0
 34
0.0
 50
0.0
100
AcDbRotatedDimension
  0
DIMENSION
  5
2A1
330
17
100
AcDbEntity
  8
Bemassung
100
AcDbDimension
280
0
  2
*D25
  3
TISCHLER
 10
303.0
 20
255.0
 30
0.0
 11
300.95
 21
265.0
 31
0.0
 70
32
 71
5
  1
100
100
AcDbAlignedDimension
 13
294.0
 23
255.0
 33
0.0
 14
294.0
 24
275.0
 34
0.0
 50
90.0
100
AcDbRotatedDimension
  0
LINE
  5
2B0
330
17
100
AcDbEntity
  8
Mittellinie
100
AcDbLine
 10
268.5
 20
278.0
 30
0.0
 11
268.5
 21
252.0
 31
0.0
  0
LINE
  5
2B1
330
17
100
AcDbEntity
  8
Schnittverlauf
100
AcDbLine
 10
268.5
 20
275.5
 30
0.0
 11
268.5
 21
278.0
 31
0.0
  0
LINE
  5
2B2
330
17
100
AcDbEntity
  8
Bemassung
100
AcDbLine
 10
268.5
 20
276.8
 30
0.0
 11
263.5
 21
276.8
 31
0.0
  0
SOLID
  5
2B3
330
17
100
AcDbEntity
  8
Bemassung
100
AcDbTrace
 10
263.5
 20
276.8
 30
0.0
 11
265.7
 21
276.404
 31
0.0
 12
265.7
 22
277.196
 32
0.0
 13
265.7
 23
277.196
 33
0.0
  0
TEXT
  5
2B4
330
17
100
AcDbEntity
  8
Text
100
AcDbText
 10
266.0
 20
279.0
 30
0.0
 40
3.5
  1
A
  7
ISO
 72
1
 11
266.0
 21
279.0
 31
0.0
100
AcDbText
 73
1
  0
LINE
  5
2B5
330
17
100
AcDbEntity
  8
Schnittverlauf
100
AcDbLine
 10
268.5
 20
254.5
 30
0.0
 11
268.5
 21
252.0
 31
0.0
  0
LINE
  5
2B6
330
17
100
AcDbEntity
  8
Bemassung
100
AcDbLine
 10
268.5
 20
253.2
 30
0.0
 11
263.5
 21
253.2
 31
0.0
  0
SOLID
  5
2B7
330
17
100
AcDbEntity
  8
Bemassung
100
AcDbTrace
 10
263.5
 20
253.2
 30
0.0
 11
265.7
 21
252.804
 31
0.0
 12
265.7
 22
253.59599999999998
 32
0.0
 13
265.7
 23
253.59599999999998
 33
0.0
  0
TEXT
  5
2B8
330
17
100
AcDbEntity
  8
Text
100
AcDbText
 10
266.0
 20
251.0
 30
0.0
 40
3.5
  1
A
  7
ISO
 72
1
 11
266.0
 21
251.0
 31
0.0
100
AcDbText
 73
3
  0
LINE
  5
2B9
330
17
100
AcDbEntity
  8
Kontur
100
AcDbLine
 10
320.0
 20
258.2
 30
0.0
 11
386.4
 21
258.2
 31
0.0
  0
LINE
  5
2BA
330
17
100
AcDbEntity
  8
Kontur
100
AcDbLine
 10
386.4
 20
258.2
 30
0.0
 11
386.4
 21
258.6
 31
0.0
  0
LINE
  5
2BB
330
17
100
AcDbEntity
  8
Kontur
100
AcDbLine
 10
386.4
 20
258.6
 30
0.0
 11
389.0
 21
258.6
 31
0.0
  0
LINE
  5
2BC
330
17
100
AcDbEntity
  8
Kontur
100
AcDbLine
 10
389.0
 20
258.6
 30
0.0
 11
389.0
 21
261.0
 31
0.0
  0
LINE
  5
2BD
330
17
100
AcDbEntity
  8
Kontur
100
AcDbLine
 10
389.0
 20
261.0
 30
0.0
 11
386.4
 21
261.0
 31
0.0
  0
LINE
  5
2BE
330
17
100
AcDbEntity
  8
Kontur
100
AcDbLine
 10
386.4
 20
261.0
 30
0.0
 11
386.4
 21
262.6
 31
0.0
  0
LINE
  5
2BF
330
17
100
AcDbEntity
  8
Kontur
100
AcDbLine
 10
386.4
 20
262.6
 30
0.0
 11
389.0
 21
262.6
 31
0.0
  0
LINE
  5
2C0
330
17
100
AcDbEntity
  8
Kontur
100
AcDbLine
 10
389.0
 20
262.6
 30
0.0
 11
389.0
 21
265.0
 31
0.0
  0
LINE
  5
2C1
330
17
100
AcDbEntity
  8
Kontur
100
AcDbLine
 10
389.0
 20
265.0
 30
0.0
 11
386.4
 21
265.0
 31
0.0
  0
LINE
  5
2C2
330
17
100
AcDbEntity
  8
Kontur
100
AcDbLine
 10
386.4
 20
265.0
 30
0.0
 11
386.4
 21
266.0
 31
0.0
  0
LINE
  5
2C3
330
17
100
AcDbEntity
  8
Kontur
100
AcDbLine
 10
386.4
 20
266.0
 30
0.0
 11
385.4
 21
266.0
 31
0.0
  0
LINE
  5
2C4
330
17
100
AcDbEntity
  8
Kontur
100
AcDbLine
 10
385.4
 20
266.0
 30
0.0
 11
374.4
 21
277.0
 31
0.0
  0
LINE
  5
2C5
330
17
100
AcDbEntity
  8
Kontur
100
AcDbLine
 10
374.4
 20
277.0
 30
0.0
 11
320.0
 21
277.0
 31
0.0
  0
LINE
  5
2C6
330
17
100
AcDbEntity
  8
Kontur
100
AcDbLine
 10
320.0
 20
277.0
 30
0.0
 11
320.0
 21
274.4
 31
0.0
  0
LINE
  5
2C7
330
17
100
AcDbEntity
  8
Kontur
100
AcDbLine
 10
320.0
 20
274.4
 30
0.0
 11
322.8
 21
274.4
 31
0.0
  0
LINE
  5
2C8
330
17
100
AcDbEntity
  8
Kontur
100
AcDbLine
 10
322.8
 20
274.4
 30
0.0
 11
322.8
 21
271.4
 31
0.0
  0
LINE
  5
2C9
330
17
100
AcDbEntity
  8
Kontur
100
AcDbLine
 10
322.8
 20
271.4
 30
0.0
 11
320.0
 21
271.4
 31
0.0
  0
LINE
  5
2CA
330
17
100
AcDbEntity
  8
Kontur
100
AcDbLine
 10
320.0
 20
271.4
 30
0.0
 11
320.0
 21
269.4
 31
0.0
  0
LINE
  5
2CB
330
17
100
AcDbEntity
  8
Kontur
100
AcDbLine
 10
320.0
 20
269.4
 30
0.0
 11
322.8
 21
269.4
 31
0.0
  0
LINE
  5
2CC
330
17
100
AcDbEntity
  8
Kontur
100
AcDbLine
 10
322.8
 20
269.4
 30
0.0
 11
322.8
 21
266.4
 31
0.0
  0
LINE
  5
2CD
330
17
100
AcDbEntity
  8
Kontur
100
AcDbLine
 10
322.8
 20
266.4
 30
0.0
 11
320.0
 21
266.4
 31
0.0
  0
LINE
  5
2CE
330
17
100
AcDbEntity
  8
Kontur
100
AcDbLine
 10
320.0
 20
266.4
 30
0.0
 11
320.0
 21
264.4
 31
0.0
  0
LINE
  5
2CF
330
17
100
AcDbEntity
  8
Kontur
100
AcDbLine
 10
320.0
 20
264.4
 30
0.0
 11
322.8
 21
264.4
 31
0.0
  0
LINE
  5
2D0
330
17
100
AcDbEntity
  8
Kontur
100
AcDbLine
 10
322.8
 20
264.4
 30
0.0
 11
322.8
 21
261.4
 31
0.0
  0
LINE
  5
2D1
330
17
100
AcDbEntity
  8
Kontur
100
AcDbLine
 10
322.8
 20
261.4
 30
0.0
 11
320.0
 21
261.4
 31
0.0
  0
LINE
  5
2D2
330
17
100
AcDbEntity
  8
Kontur
100
AcDbLine
 10
320.0
 20
261.4
 30
0.0
 11
320.0
 21
258.2
 31
0.0
  0
LINE
  5
2D3
330
17
100
AcDbEntity
  8
Kontur
100
AcDbLine
 10
322.0
 20
257.0
 30
0.0
 11
386.4
 21
257.0
 31
0.0
  0
LINE
  5
2D4
330
17
100
AcDbEntity
  8
Kontur
100
AcDbLine
 10
386.4
 20
257.0
 30
0.0
 11
386.4
 21
257.6
 31
0.0
  0
LINE
  5
2D5
330
17
100
AcDbEntity
  8
Kontur
100
AcDbLine
 10
320.0
 20
258.2
 30
0.0
 11
320.0
 21
257.6
 31
0.0
  0
LINE
  5
2D6
330
17
100
AcDbEntity
  8
Kontur
100
AcDbLine
 10
320.0
 20
257.6
 30
0.0
 11
322.0
 21
257.0
 31
0.0
  0
LINE
  5
2D7
330
17
100
AcDbEntity
  8
Kontur
100
AcDbLine
 10
320.0
 20
264.4
 30
0.0
 11
320.0
 21
261.4
 31
0.0
  0
LINE
  5
2D8
330
17
100
AcDbEntity
  8
Kontur
100
AcDbLine
 10
320.0
 20
269.4
 30
0.0
 11
320.0
 21
266.4
 31
0.0
  0
LINE
  5
2D9
330
17
100
AcDbEntity
  8
Kontur
100
AcDbLine
 10
320.0
 20
274.4
 30
0.0
 11
320.0
 21
271.4
 31
0.0
  0
LINE
  5
2DA
330
17
100
AcDbEntity
  8
Kontur
100
AcDbLine
 10
386.4
 20
257.6
 30
0.0
 11
390.0
 21
257.6
 31
0.0
  0
LINE
  5
2DB
330
17
100
AcDbEntity
  8
Kontur
100
AcDbLine
 10
390.0
 20
257.6
 30
0.0
 11
390.0
 21
267.6
 31
0.0
  0
LINE
  5
2DC
330
17
100
AcDbEntity
  8
Kontur
100
AcDbLine
 10
390.0
 20
267.6
 30
0.0
 11
386.4
 21
267.6
 31
0.0
  0
LINE
  5
2DD
330
17
100
AcDbEntity
  8
Kontur
100
AcDbLine
 10
386.4
 20
267.6
 30
0.0
 11
386.4
 21
266.0
 31
0.0
  0
LINE
  5
2DE
330
17
100
AcDbEntity
  8
Kontur
100
AcDbLine
 10
386.4
 20
258.2
 30
0.0
 11
386.4
 21
257.6
 31
0.0
  0
DIMENSION
  5
2DF
330
17
100
AcDbEntity
  8
Bemassung
100
AcDbDimension
280
0
  2
*D26
  3
TISCHLER
 10
320.0
 20
238.0
 30
0.0
 11
355.0
 21
240.05
 31
0.0
 70
32
 71
5
  1
350
100
AcDbAlignedDimension
 13
320.0
 23
259.0
 33
0.0
 14
390.0
 24
257.6
 34
0.0
 50
0.0
100
AcDbRotatedDimension
  0
LINE
  5
2EE
330
17
100
AcDbEntity
  8
Mittellinie
100
AcDbLine
 10
354.0
 20
280.0
 30
0.0
 11
354.0
 21
254.0
 31
0.0
  0
LINE
  5
2EF
330
17
100
AcDbEntity
  8
Schnittverlauf
100
AcDbLine
 10
354.0
 20
277.5
 30
0.0
 11
354.0
 21
280.0
 31
0.0
  0
LINE
  5
2F0
330
17
100
AcDbEntity
  8
Bemassung
100
AcDbLine
 10
354.0
 20
278.8
 30
0.0
 11
349.0
 21
278.8
 31
0.0
  0
SOLID
  5
2F1
330
17
100
AcDbEntity
  8
Bemassung
100
AcDbTrace
 10
349.0
 20
278.8
 30
0.0
 11
351.2
 21
278.404
 31
0.0
 12
351.2
 22
279.196
 32
0.0
 13
351.2
 23
279.196
 33
0.0
  0
TEXT
  5
2F2
330
17
100
AcDbEntity
  8
Text
100
AcDbText
 10
351.5
 20
281.0
 30
0.0
 40
3.5
  1
B
  7
ISO
 72
1
 11
351.5
 21
281.0
 31
0.0
100
AcDbText
 73
1
  0
LINE
  5
2F3
330
17
100
AcDbEntity
  8
Schnittverlauf
100
AcDbLine
 10
354.0
 20
256.5
 30
0.0
 11
354.0
 21
254.0
 31
0.0
  0
LINE
  5
2F4
330
17
100
AcDbEntity
  8
Bemassung
100
AcDbLine
 10
354.0
 20
255.2
 30
0.0
 11
349.0
 21
255.2
 31
0.0
  0
SOLID
  5
2F5
330
17
100
AcDbEntity
  8
Bemassung
100
AcDbTrace
 10
349.0
 20
255.2
 30
0.0
 11
351.2
 21
254.804
 31
0.0
 12
351.2
 22
255.59599999999998
 32
0.0
 13
351.2
 23
255.59599999999998
 33
0.0
  0
TEXT
  5
2F6
330
17
100
AcDbEntity
  8
Text
100
AcDbText
 10
351.5
 20
253.0
 30
0.0
 40
3.5
  1
B
  7
ISO
 72
1
 11
351.5
 21
253.0
 31
0.0
100
AcDbText
 73
3
  0
LINE
  5
2F7
330
17
100
AcDbEntity
  8
Kontur
100
AcDbLine
 10
243.0
 20
161.6
 30
0.0
 11
243.0
 21
162.6
 31
0.0
  0
LINE
  5
2F8
330
17
100
AcDbEntity
  8
Kontur
100
AcDbLine
 10
243.0
 20
162.6
 30
0.0
 11
243.0
 21
173.6
 31
0.0
  0
LINE
  5
2F9
330
17
100
AcDbEntity
  8
Kontur
100
AcDbLine
 10
244.3
 20
172.61282051282052
 30
0.0
 11
244.3
 21
173.6
 31
0.0
  0
LINE
  5
2FA
330
17
100
AcDbEntity
  8
Kontur
100
AcDbLine
 10
243.0
 20
162.6
 30
0.0
 11
244.3
 21
162.6
 31
0.0
  0
LINE
  5
2FB
330
17
100
AcDbEntity
  8
Kontur
100
AcDbLine
 10
243.0
 20
173.6
 30
0.0
 11
243.0
 21
228.0
 31
0.0
  0
LINE
  5
2FC
330
17
100
AcDbEntity
  8
Kontur
100
AcDbLine
 10
244.3
 20
173.6
 30
0.0
 11
244.3
 21
228.0
 31
0.0
  0
LINE
  5
2FD
330
17
100
AcDbEntity
  8
Kontur
100
AcDbLine
 10
243.0
 20
173.6
 30
0.0
 11
244.3
 21
173.6
 31
0.0
  0
LINE
  5
2FE
330
17
100
AcDbEntity
  8
Kontur
100
AcDbLine
 10
243.0
 20
228.0
 30
0.0
 11
244.3
 21
228.0
 31
0.0
  0
LINE
  5
2FF
330
17
100
AcDbEntity
  8
Kontur
100
AcDbLine
 10
294.0
 20
161.6
 30
0.0
 11
294.0
 21
162.6
 31
0.0
  0
LINE
  5
300
330
17
100
AcDbEntity
  8
Kontur
100
AcDbLine
 10
292.7
 20
172.61282051282052
 30
0.0
 11
292.7
 21
173.6
 31
0.0
  0
LINE
  5
301
330
17
100
AcDbEntity
  8
Kontur
100
AcDbLine
 10
294.0
 20
162.6
 30
0.0
 11
294.0
 21
173.6
 31
0.0
  0
LINE
  5
302
330
17
100
AcDbEntity
  8
Kontur
100
AcDbLine
 10
292.7
 20
162.6
 30
0.0
 11
294.0
 21
162.6
 31
0.0
  0
LINE
  5
303
330
17
100
AcDbEntity
  8
Kontur
100
AcDbLine
 10
292.7
 20
173.6
 30
0.0
 11
292.7
 21
228.0
 31
0.0
  0
LINE
  5
304
330
17
100
AcDbEntity
  8
Kontur
100
AcDbLine
 10
294.0
 20
173.6
 30
0.0
 11
294.0
 21
228.0
 31
0.0
  0
LINE
  5
305
330
17
100
AcDbEntity
  8
Kontur
100
AcDbLine
 10
292.7
 20
173.6
 30
0.0
 11
294.0
 21
173.6
 31
0.0
  0
LINE
  5
306
330
17
100
AcDbEntity
  8
Kontur
100
AcDbLine
 10
292.7
 20
228.0
 30
0.0
 11
294.0
 21
228.0
 31
0.0
  0
LINE
  5
307
330
17
100
AcDbEntity
  8
Kontur
100
AcDbLine
 10
244.3
 20
162.6
 30
0.0
 11
244.4
 21
162.6
 31
0.0
  0
LINE
  5
308
330
17
100
AcDbEntity
  8
Kontur
100
AcDbLine
 10
244.3
 20
172.6
 30
0.0
 11
244.4
 21
172.6
 31
0.0
  0
LINE
  5
309
330
17
100
AcDbEntity
  8
Kontur
100
AcDbLine
 10
244.3
 20
228.0
 30
0.0
 11
244.4
 21
228.0
 31
0.0
  0
LINE
  5
30A
330
17
100
AcDbEntity
  8
Kontur
100
AcDbLine
 10
292.6
 20
162.6
 30
0.0
 11
292.7
 21
162.6
 31
0.0
  0
LINE
  5
30B
330
17
100
AcDbEntity
  8
Kontur
100
AcDbLine
 10
292.6
 20
172.6
 30
0.0
 11
292.7
 21
172.6
 31
0.0
  0
LINE
  5
30C
330
17
100
AcDbEntity
  8
Kontur
100
AcDbLine
 10
292.6
 20
228.0
 30
0.0
 11
292.7
 21
228.0
 31
0.0
  0
LINE
  5
30D
330
17
100
AcDbEntity
  8
Kontur
100
AcDbLine
 10
244.4
 20
162.6
 30
0.0
 11
244.8
 21
162.6
 31
0.0
  0
LINE
  5
30E
330
17
100
AcDbEntity
  8
Kontur
100
AcDbLine
 10
244.4
 20
172.6
 30
0.0
 11
244.8
 21
172.6
 31
0.0
  0
LINE
  5
30F
330
17
100
AcDbEntity
  8
Kontur
100
AcDbLine
 10
244.4
 20
228.0
 30
0.0
 11
244.8
 21
228.0
 31
0.0
  0
LINE
  5
310
330
17
100
AcDbEntity
  8
Kontur
100
AcDbLine
 10
292.2
 20
162.6
 30
0.0
 11
292.6
 21
162.6
 31
0.0
  0
LINE
  5
311
330
17
100
AcDbEntity
  8
Kontur
100
AcDbLine
 10
292.2
 20
172.6
 30
0.0
 11
292.6
 21
172.6
 31
0.0
  0
LINE
  5
312
330
17
100
AcDbEntity
  8
Kontur
100
AcDbLine
 10
292.2
 20
228.0
 30
0.0
 11
292.6
 21
228.0
 31
0.0
  0
LINE
  5
313
330
17
100
AcDbEntity
  8
Kontur
100
AcDbLine
 10
245.8
 20
161.6
 30
0.0
 11
245.8
 21
162.6
 31
0.0
  0
LINE
  5
314
330
17
100
AcDbEntity
  8
Kontur
100
AcDbLine
 10
245.8
 20
162.6
 30
0.0
 11
245.8
 21
172.6
 31
0.0
  0
LINE
  5
315
330
17
100
AcDbEntity
  8
Kontur
100
AcDbLine
 10
244.8
 20
162.6
 30
0.0
 11
245.8
 21
162.6
 31
0.0
  0
LINE
  5
316
330
17
100
AcDbEntity
  8
Kontur
100
AcDbLine
 10
245.8
 20
172.6
 30
0.0
 11
245.8
 21
228.0
 31
0.0
  0
LINE
  5
317
330
17
100
AcDbEntity
  8
Kontur
100
AcDbLine
 10
244.8
 20
172.6
 30
0.0
 11
245.8
 21
172.6
 31
0.0
  0
LINE
  5
318
330
17
100
AcDbEntity
  8
Kontur
100
AcDbLine
 10
244.8
 20
228.0
 30
0.0
 11
245.8
 21
228.0
 31
0.0
  0
LINE
  5
319
330
17
100
AcDbEntity
  8
Kontur
100
AcDbLine
 10
291.2
 20
161.6
 30
0.0
 11
291.2
 21
162.6
 31
0.0
  0
LINE
  5
31A
330
17
100
AcDbEntity
  8
Kontur
100
AcDbLine
 10
291.2
 20
162.6
 30
0.0
 11
291.2
 21
172.6
 31
0.0
  0
LINE
  5
31B
330
17
100
AcDbEntity
  8
Kontur
100
AcDbLine
 10
291.2
 20
162.6
 30
0.0
 11
292.2
 21
162.6
 31
0.0
  0
LINE
  5
31C
330
17
100
AcDbEntity
  8
Kontur
100
AcDbLine
 10
291.2
 20
172.6
 30
0.0
 11
291.2
 21
228.0
 31
0.0
  0
LINE
  5
31D
330
17
100
AcDbEntity
  8
Kontur
100
AcDbLine
 10
291.2
 20
172.6
 30
0.0
 11
292.2
 21
172.6
 31
0.0
  0
LINE
  5
31E
330
17
100
AcDbEntity
  8
Kontur
100
AcDbLine
 10
291.2
 20
228.0
 30
0.0
 11
292.2
 21
228.0
 31
0.0
  0
LINE
  5
31F
330
17
100
AcDbEntity
  8
Kontur
100
AcDbLine
 10
245.8
 20
225.2
 30
0.0
 11
291.2
 21
225.2
 31
0.0
  0
LINE
  5
320
330
17
100
AcDbEntity
  8
Kontur
100
AcDbLine
 10
245.8
 20
228.0
 30
0.0
 11
291.2
 21
228.0
 31
0.0
  0
LINE
  5
321
330
17
100
AcDbEntity
  8
Kontur
100
AcDbLine
 10
243.0
 20
158.0
 30
0.0
 11
243.0
 21
161.6
 31
0.0
  0
LINE
  5
322
330
17
100
AcDbEntity
  8
Kontur
100
AcDbLine
 10
243.0
 20
158.0
 30
0.0
 11
245.8
 21
158.0
 31
0.0
  0
LINE
  5
323
330
17
100
AcDbEntity
  8
Kontur
100
AcDbLine
 10
243.0
 20
161.6
 30
0.0
 11
245.8
 21
161.6
 31
0.0
  0
LINE
  5
324
330
17
100
AcDbEntity
  8
Kontur
100
AcDbLine
 10
294.0
 20
158.0
 30
0.0
 11
294.0
 21
161.6
 31
0.0
  0
LINE
  5
325
330
17
100
AcDbEntity
  8
Kontur
100
AcDbLine
 10
291.2
 20
158.0
 30
0.0
 11
294.0
 21
158.0
 31
0.0
  0
LINE
  5
326
330
17
100
AcDbEntity
  8
Kontur
100
AcDbLine
 10
291.2
 20
161.6
 30
0.0
 11
294.0
 21
161.6
 31
0.0
  0
LINE
  5
327
330
17
100
AcDbEntity
  8
Kontur
100
AcDbLine
 10
245.8
 20
158.0
 30
0.0
 11
291.2
 21
158.0
 31
0.0
  0
LINE
  5
328
330
17
100
AcDbEntity
  8
Kontur
100
AcDbLine
 10
245.8
 20
161.6
 30
0.0
 11
291.2
 21
161.6
 31
0.0
  0
LINE
  5
329
330
17
100
AcDbEntity
  8
Duenn
100
AcDbLine
 10
262.38
 20
191.6
 30
0.0
 11
274.62
 21
191.6
 31
0.0
  0
LINE
  5
32A
330
17
100
AcDbEntity
  8
Duenn
100
AcDbLine
 10
259.32
 20
189.85
 30
0.0
 11
277.68
 21
189.85
 31
0.0
  0
LINE
  5
32B
330
17
100
AcDbEntity
  8
Duenn
100
AcDbLine
 10
263.4
 20
188.1
 30
0.0
 11
273.6
 21
188.1
 31
0.0
  0
LINE
  5
32C
330
17
100
AcDbEntity
  8
Kontur
100
AcDbLine
 10
307.0
 20
184.97979589711326
 30
0.0
 11
353.95189027078675
 21
157.87210941031276
 31
0.0
  0
LINE
  5
32D
330
17
100
AcDbEntity
  8
Kontur
100
AcDbLine
 10
353.95189027078675
 20
157.87210941031276
 30
0.0
 11
353.95189027078675
 21
158.19870804268385
 31
0.0
  0
LINE
  5
32E
330
17
100
AcDbEntity
  8
Kontur
100
AcDbLine
 10
353.95189027078675
 20
158.19870804268385
 30
0.0
 11
355.7903679018718
 21
157.1372624874778
 31
0.0
  0
LINE
  5
32F
330
17
100
AcDbEntity
  8
Kontur
100
AcDbLine
 10
355.7903679018718
 20
157.1372624874778
 30
0.0
 11
355.7903679018718
 21
159.09685428170434
 31
0.0
  0
LINE
  5
330
330
17
100
AcDbEntity
  8
Kontur
100
AcDbLine
 10
355.7903679018718
 20
159.09685428170434
 30
0.0
 11
353.95189027078675
 21
160.1582998369104
 31
0.0
  0
LINE
  5
331
330
17
100
AcDbEntity
  8
Kontur
100
AcDbLine
 10
353.95189027078675
 20
160.1582998369104
 30
0.0
 11
353.95189027078675
 21
161.46469436639475
 31
0.0
  0
LINE
  5
332
330
17
100
AcDbEntity
  8
Kontur
100
AcDbLine
 10
353.95189027078675
 20
161.46469436639475
 30
0.0
 11
355.7903679018718
 21
160.40324881118872
 31
0.0
  0
LINE
  5
333
330
17
100
AcDbEntity
  8
Kontur
100
AcDbLine
 10
355.7903679018718
 20
160.40324881118872
 30
0.0
 11
355.7903679018718
 21
162.36284060541527
 31
0.0
  0
LINE
  5
334
330
17
100
AcDbEntity
  8
Kontur
100
AcDbLine
 10
355.7903679018718
 20
162.36284060541527
 30
0.0
 11
353.95189027078675
 21
163.4242861606213
 31
0.0
  0
LINE
  5
335
330
17
100
AcDbEntity
  8
Kontur
100
AcDbLine
 10
353.95189027078675
 20
163.4242861606213
 30
0.0
 11
353.95189027078675
 21
164.24078274154903
 31
0.0
  0
LINE
  5
336
330
17
100
AcDbEntity
  8
Kontur
100
AcDbLine
 10
353.95189027078675
 20
164.24078274154903
 30
0.0
 11
353.2447834896002
 21
164.64903103201289
 31
0.0
  0
LINE
  5
337
330
17
100
AcDbEntity
  8
Kontur
100
AcDbLine
 10
353.2447834896002
 20
164.64903103201289
 30
0.0
 11
345.46660889654817
 21
178.12122461732037
 31
0.0
  0
LINE
  5
338
330
17
100
AcDbEntity
  8
Kontur
100
AcDbLine
 10
347.08388902172356
 20
177.44290438085733
 30
0.0
 11
346.3858477120907
 21
178.65194739492338
 31
0.0
  0
LINE
  5
339
330
17
100
AcDbEntity
  8
Kontur
100
AcDbLine
 10
353.2447834896002
 20
164.64903103201289
 30
0.0
 11
353.90138264355915
 21
165.02811873030078
 31
0.0
  0
LINE
  5
33A
330
17
100
AcDbEntity
  8
Kontur
100
AcDbLine
 10
345.46660889654817
 20
178.12122461732037
 30
0.0
 11
307.0
 21
200.32993161855453
 31
0.0
  0
LINE
  5
33B
330
17
100
AcDbEntity
  8
Kontur
100
AcDbLine
 10
346.3858477120907
 20
178.65194739492338
 30
0.0
 11
307.9192388155425
 21
200.86065439615754
 31
0.0
  0
LINE
  5
33C
330
17
100
AcDbEntity
  8
Kontur
100
AcDbLine
 10
345.46660889654817
 20
178.12122461732037
 30
0.0
 11
346.3858477120907
 21
178.65194739492338
 31
0.0
  0
LINE
  5
33D
330
17
100
AcDbEntity
  8
Kontur
100
AcDbLine
 10
307.0
 20
200.32993161855453
 30
0.0
 11
307.0
 21
198.20704050814243
 31
0.0
  0
LINE
  5
33E
330
17
100
AcDbEntity
  8
Kontur
100
AcDbLine
 10
307.0
 20
200.32993161855453
 30
0.0
 11
307.9192388155425
 21
200.86065439615754
 31
0.0
  0
LINE
  5
33F
330
17
100
AcDbEntity
  8
Kontur
100
AcDbLine
 10
307.0
 20
198.20704050814243
 30
0.0
 11
308.9798989873223
 21
197.06394529484362
 31
0.0
  0
LINE
  5
340
330
17
100
AcDbEntity
  8
Kontur
100
AcDbLine
 10
308.9798989873223
 20
197.06394529484362
 30
0.0
 11
308.9798989873223
 21
194.61445555206043
 31
0.0
  0
LINE
  5
341
330
17
100
AcDbEntity
  8
Kontur
100
AcDbLine
 10
308.9798989873223
 20
194.61445555206043
 30
0.0
 11
307.0
 21
195.75755076535927
 31
0.0
  0
LINE
  5
342
330
17
100
AcDbEntity
  8
Kontur
100
AcDbLine
 10
307.0
 20
195.75755076535927
 30
0.0
 11
307.0
 21
194.1245576035038
 31
0.0
  0
LINE
  5
343
330
17
100
AcDbEntity
  8
Kontur
100
AcDbLine
 10
307.0
 20
194.1245576035038
 30
0.0
 11
308.9798989873223
 21
192.981462390205
 31
0.0
  0
LINE
  5
344
330
17
100
AcDbEntity
  8
Kontur
100
AcDbLine
 10
308.9798989873223
 20
192.981462390205
 30
0.0
 11
308.9798989873223
 21
190.5319726474218
 31
0.0
  0
LINE
  5
345
330
17
100
AcDbEntity
  8
Kontur
100
AcDbLine
 10
308.9798989873223
 20
190.5319726474218
 30
0.0
 11
307.0
 21
191.67506786072062
 31
0.0
  0
LINE
  5
346
330
17
100
AcDbEntity
  8
Kontur
100
AcDbLine
 10
307.0
 20
191.67506786072062
 30
0.0
 11
307.0
 21
190.04207469886518
 31
0.0
  0
LINE
  5
347
330
17
100
AcDbEntity
  8
Kontur
100
AcDbLine
 10
307.0
 20
190.04207469886518
 30
0.0
 11
308.9798989873223
 21
188.89897948556637
 31
0.0
  0
LINE
  5
348
330
17
100
AcDbEntity
  8
Kontur
100
AcDbLine
 10
308.9798989873223
 20
188.89897948556637
 30
0.0
 11
308.9798989873223
 21
186.4494897427832
 31
0.0
  0
LINE
  5
349
330
17
100
AcDbEntity
  8
Kontur
100
AcDbLine
 10
308.9798989873223
 20
186.4494897427832
 30
0.0
 11
307.0
 21
187.592584956082
 31
0.0
  0
LINE
  5
34A
330
17
100
AcDbEntity
  8
Kontur
100
AcDbLine
 10
307.0
 20
187.592584956082
 30
0.0
 11
307.0
 21
184.97979589711326
 31
0.0
  0
LINE
  5
34B
330
17
100
AcDbEntity
  8
Kontur
100
AcDbLine
 10
381.30785723115247
 20
197.2021216393083
 30
0.0
 11
380.6098159215196
 21
198.41116465337436
 31
0.0
  0
LINE
  5
34C
330
17
100
AcDbEntity
  8
Kontur
100
AcDbLine
 10
389.1077889559333
 20
185.81513470683163
 30
0.0
 11
381.5290547370621
 21
198.94188743097737
 31
0.0
  0
LINE
  5
34D
330
17
100
AcDbEntity
  8
Kontur
100
AcDbLine
 10
380.6098159215196
 20
198.41116465337436
 30
0.0
 11
342.1432070249714
 21
220.61987165460852
 31
0.0
  0
LINE
  5
34E
330
17
100
AcDbEntity
  8
Kontur
100
AcDbLine
 10
381.5290547370621
 20
198.94188743097737
 30
0.0
 11
343.06244584051393
 21
221.15059443221153
 31
0.0
  0
LINE
  5
34F
330
17
100
AcDbEntity
  8
Kontur
100
AcDbLine
 10
380.6098159215196
 20
198.41116465337436
 30
0.0
 11
381.5290547370621
 21
198.94188743097737
 31
0.0
  0
LINE
  5
350
330
17
100
AcDbEntity
  8
Kontur
100
AcDbLine
 10
342.1432070249714
 20
220.61987165460852
 30
0.0
 11
342.1432070249714
 21
219.8033750736808
 31
0.0
  0
LINE
  5
351
330
17
100
AcDbEntity
  8
Kontur
100
AcDbLine
 10
342.1432070249714
 20
220.61987165460852
 30
0.0
 11
343.06244584051393
 21
221.15059443221153
 31
0.0
  0
LINE
  5
352
330
17
100
AcDbEntity
  8
Kontur
100
AcDbLine
 10
381.31692270270617
 20
197.18641978198278
 30
0.0
 11
342.1432070249714
 21
219.8033750736808
 31
0.0
  0
LINE
  5
353
330
17
100
AcDbEntity
  8
Kontur
100
AcDbLine
 10
347.1636651713959
 20
177.4680273525782
 30
0.0
 11
347.44650788387054
 21
177.63132666876373
 31
0.0
  0
LINE
  5
354
330
17
100
AcDbEntity
  8
Kontur
100
AcDbLine
 10
380.9633693121129
 20
196.98229563675085
 30
0.0
 11
381.2462120245875
 21
197.1455949529364
 31
0.0
  0
LINE
  5
355
330
17
100
AcDbEntity
  8
Kontur
100
AcDbLine
 10
341.7896536343781
 20
219.59925092844887
 30
0.0
 11
342.07249634685274
 21
219.7625502446344
 31
0.0
  0
LINE
  5
356
330
17
100
AcDbEntity
  8
Kontur
100
AcDbLine
 10
355.0254974681376
 20
166.13712480063327
 30
0.0
 11
348.15361466505703
 21
178.0395749592276
 31
0.0
  0
LINE
  5
357
330
17
100
AcDbEntity
  8
Kontur
100
AcDbLine
 10
348.15361466505703
 20
178.0395749592276
 30
0.0
 11
308.9798989873223
 21
200.6565302509256
 31
0.0
  0
LINE
  5
358
330
17
100
AcDbEntity
  8
Kontur
100
AcDbLine
 10
347.44650788387054
 20
177.63132666876373
 30
0.0
 11
348.15361466505703
 21
178.0395749592276
 31
0.0
  0
LINE
  5
359
330
17
100
AcDbEntity
  8
Kontur
100
AcDbLine
 10
308.69705627484774
 20
200.49323093474007
 30
0.0
 11
308.9798989873223
 21
200.6565302509256
 31
0.0
  0
LINE
  5
35A
330
17
100
AcDbEntity
  8
Kontur
100
AcDbLine
 10
343.06244584051393
 20
205.31056076221364
 30
0.0
 11
382.9432682994352
 21
182.2853571800518
 31
0.0
  0
LINE
  5
35B
330
17
100
AcDbEntity
  8
Kontur
100
AcDbLine
 10
387.12814533400683
 20
184.67159718769267
 30
0.0
 11
380.25626253092634
 21
196.574047346287
 31
0.0
  0
LINE
  5
35C
330
17
100
AcDbEntity
  8
Kontur
100
AcDbLine
 10
380.25626253092634
 20
196.574047346287
 30
0.0
 11
341.0825468531916
 21
219.191002637985
 31
0.0
  0
LINE
  5
35D
330
17
100
AcDbEntity
  8
Kontur
100
AcDbLine
 10
380.25626253092634
 20
196.574047346287
 30
0.0
 11
380.9633693121129
 21
196.98229563675085
 31
0.0
  0
LINE
  5
35E
330
17
100
AcDbEntity
  8
Kontur
100
AcDbLine
 10
341.0825468531916
 20
219.191002637985
 30
0.0
 11
341.0825468531916
 21
218.70110468942835
 31
0.0
  0
LINE
  5
35F
330
17
100
AcDbEntity
  8
Kontur
100
AcDbLine
 10
341.0825468531916
 20
219.191002637985
 30
0.0
 11
341.7896536343781
 21
219.59925092844887
 31
0.0
  0
LINE
  5
360
330
17
100
AcDbEntity
  8
Kontur
100
AcDbLine
 10
343.06244584051393
 20
216.74151289520182
 30
0.0
 11
343.06244584051393
 21
214.29202315241864
 31
0.0
  0
LINE
  5
361
330
17
100
AcDbEntity
  8
Kontur
100
AcDbLine
 10
343.06244584051393
 20
212.6590299905632
 30
0.0
 11
343.06244584051393
 21
210.20954024778
 31
0.0
  0
LINE
  5
362
330
17
100
AcDbEntity
  8
Kontur
100
AcDbLine
 10
343.06244584051393
 20
208.57654708592457
 30
0.0
 11
343.06244584051393
 21
206.1270573431414
 31
0.0
  0
LINE
  5
363
330
17
100
AcDbEntity
  8
Kontur
100
AcDbLine
 10
343.06244584051393
 20
205.31056076221364
 30
0.0
 11
343.06244584051393
 21
206.1270573431414
 31
0.0
  0
LINE
  5
364
330
17
100
AcDbEntity
  8
Kontur
100
AcDbLine
 10
343.06244584051393
 20
208.57654708592457
 30
0.0
 11
343.06244584051393
 21
210.20954024778
 31
0.0
  0
LINE
  5
365
330
17
100
AcDbEntity
  8
Kontur
100
AcDbLine
 10
343.06244584051393
 20
212.6590299905632
 30
0.0
 11
343.06244584051393
 21
214.29202315241864
 31
0.0
  0
LINE
  5
366
330
17
100
AcDbEntity
  8
Kontur
100
AcDbLine
 10
343.06244584051393
 20
216.74151289520182
 30
0.0
 11
343.06244584051393
 21
217.55800947612954
 31
0.0
  0
LINE
  5
367
330
17
100
AcDbEntity
  8
Kontur
100
AcDbLine
 10
321.9906637611548
 20
193.14476170639054
 30
0.0
 11
343.06244584051393
 21
205.31056076221364
 31
0.0
  0
LINE
  5
368
330
17
100
AcDbEntity
  8
Kontur
100
AcDbLine
 10
343.06244584051393
 20
217.55800947612954
 30
0.0
 11
341.0825468531916
 21
218.70110468942835
 31
0.0
  0
LINE
  5
369
330
17
100
AcDbEntity
  8
Kontur
100
AcDbLine
 10
311.3840620433566
 20
199.2684860633485
 30
0.0
 11
343.06244584051393
 21
217.55800947612954
 31
0.0
  0
LINE
  5
36A
330
17
100
AcDbEntity
  8
Kontur
100
AcDbLine
 10
309.40416305603424
 20
200.4115812766473
 30
0.0
 11
341.0825468531916
 21
218.70110468942835
 31
0.0
  0
LINE
  5
36B
330
17
100
AcDbEntity
  8
Kontur
100
AcDbLine
 10
307.0
 20
190.04207469886518
 30
0.0
 11
307.0
 21
187.592584956082
 31
0.0
  0
LINE
  5
36C
330
17
100
AcDbEntity
  8
Kontur
100
AcDbLine
 10
307.0
 20
194.1245576035038
 30
0.0
 11
307.0
 21
191.67506786072062
 31
0.0
  0
LINE
  5
36D
330
17
100
AcDbEntity
  8
Kontur
100
AcDbLine
 10
307.0
 20
198.20704050814243
 30
0.0
 11
307.0
 21
195.75755076535927
 31
0.0
  0
LINE
  5
36E
330
17
100
AcDbEntity
  8
Kontur
100
AcDbLine
 10
353.95189027078675
 20
157.38221146175613
 30
0.0
 11
356.49747468305833
 21
155.91251761608623
 31
0.0
  0
LINE
  5
36F
330
17
100
AcDbEntity
  8
Kontur
100
AcDbLine
 10
356.49747468305833
 20
155.91251761608623
 30
0.0
 11
356.49747468305833
 21
164.07748342536348
 31
0.0
  0
LINE
  5
370
330
17
100
AcDbEntity
  8
Kontur
100
AcDbLine
 10
356.49747468305833
 20
155.91251761608623
 30
0.0
 11
358.47737367038064
 21
157.05561282938504
 31
0.0
  0
LINE
  5
371
330
17
100
AcDbEntity
  8
Kontur
100
AcDbLine
 10
356.49747468305833
 20
164.07748342536348
 30
0.0
 11
353.95189027078675
 21
165.54717727103338
 31
0.0
  0
LINE
  5
372
330
17
100
AcDbEntity
  8
Kontur
100
AcDbLine
 10
356.49747468305833
 20
164.07748342536348
 30
0.0
 11
358.47737367038064
 21
165.2205786386623
 31
0.0
  0
LINE
  5
373
330
17
100
AcDbEntity
  8
Kontur
100
AcDbLine
 10
353.95189027078675
 20
165.54717727103338
 30
0.0
 11
353.95189027078675
 21
164.24078274154903
 31
0.0
  0
LINE
  5
374
330
17
100
AcDbEntity
  8
Kontur
100
AcDbLine
 10
353.95189027078675
 20
165.54717727103338
 30
0.0
 11
355.9317892581091
 21
166.6902724843322
 31
0.0
  0
LINE
  5
375
330
17
100
AcDbEntity
  8
Kontur
100
AcDbLine
 10
353.95189027078675
 20
157.87210941031276
 30
0.0
 11
353.95189027078675
 21
157.38221146175613
 31
0.0
  0
LINE
  5
376
330
17
100
AcDbEntity
  8
Kontur
100
AcDbLine
 10
392.55992052357226
 20
176.73318042974324
 30
0.0
 11
392.55992052357226
 21
184.8981462390205
 31
0.0
  0
LINE
  5
377
330
17
100
AcDbEntity
  8
Kontur
100
AcDbLine
 10
390.5800215362499
 20
175.59008521644444
 30
0.0
 11
392.55992052357226
 21
176.73318042974324
 31
0.0
  0
LINE
  5
378
330
17
100
AcDbEntity
  8
Kontur
100
AcDbLine
 10
392.55992052357226
 20
184.8981462390205
 30
0.0
 11
390.0143361113007
 21
186.3678400846904
 31
0.0
  0
LINE
  5
379
330
17
100
AcDbEntity
  8
Kontur
100
AcDbLine
 10
390.5800215362499
 20
183.75505102572168
 30
0.0
 11
392.55992052357226
 21
184.8981462390205
 31
0.0
  0
LINE
  5
37A
330
17
100
AcDbEntity
  8
Kontur
100
AcDbLine
 10
388.03443712397836
 20
185.22474487139158
 30
0.0
 11
390.0143361113007
 21
186.3678400846904
 31
0.0
  0
LINE
  5
37B
330
17
100
AcDbEntity
  8
Kontur
100
AcDbLine
 10
358.47737367038064
 20
157.05561282938504
 30
0.0
 11
390.5800215362499
 21
175.59008521644444
 31
0.0
  0
LINE
  5
37C
330
17
100
AcDbEntity
  8
Kontur
100
AcDbLine
 10
358.47737367038064
 20
165.2205786386623
 30
0.0
 11
390.5800215362499
 21
183.75505102572168
 31
0.0
  0
LINE
  5
37D
330
17
100
AcDbEntity
  8
Kontur
100
AcDbLine
 10
355.9317892581091
 20
166.6902724843322
 30
0.0
 11
388.03443712397836
 21
185.22474487139158
 31
0.0
  0
LINE
  5
37E
330
17
100
AcDbEntity
  8
Kontur
100
AcDbLine
 10
267.9289321881345
 20
109.89731299247464
 30
0.0
 11
314.8808224589213
 21
82.78962650567414
 31
0.0
  0
LINE
  5
37F
330
17
100
AcDbEntity
  8
Kontur
100
AcDbLine
 10
314.8808224589213
 20
82.78962650567414
 30
0.0
 11
314.8808224589213
 21
83.11622513804522
 31
0.0
  0
LINE
  5
380
330
17
100
AcDbEntity
  8
Kontur
100
AcDbLine
 10
314.8808224589213
 20
82.78962650567414
 30
0.0
 11
315.14346212050486
 21
82.94126158498928
 31
0.0
  0
LINE
  5
381
330
17
100
AcDbEntity
  8
Kontur
100
AcDbLine
 10
314.8808224589213
 20
83.11622513804522
 30
0.0
 11
316.7193000900063
 21
82.05477958283919
 31
0.0
  0
LINE
  5
382
330
17
100
AcDbEntity
  8
Kontur
100
AcDbLine
 10
316.7193000900063
 20
82.05477958283919
 30
0.0
 11
316.7193000900063
 21
84.01437137706573
 31
0.0
  0
LINE
  5
383
330
17
100
AcDbEntity
  8
Kontur
100
AcDbLine
 10
316.7193000900063
 20
82.05477958283919
 30
0.0
 11
317.6385389055488
 21
82.5855023604422
 31
0.0
  0
LINE
  5
384
330
17
100
AcDbEntity
  8
Kontur
100
AcDbLine
 10
316.7193000900063
 20
84.01437137706573
 30
0.0
 11
314.8808224589213
 21
85.07581693227176
 31
0.0
  0
LINE
  5
385
330
17
100
AcDbEntity
  8
Kontur
100
AcDbLine
 10
316.7193000900063
 20
84.01437137706573
 30
0.0
 11
317.6385389055488
 21
84.54509415466875
 31
0.0
  0
LINE
  5
386
330
17
100
AcDbEntity
  8
Kontur
100
AcDbLine
 10
314.8808224589213
 20
85.07581693227176
 30
0.0
 11
314.8808224589213
 21
86.38221146175613
 31
0.0
  0
LINE
  5
387
330
17
100
AcDbEntity
  8
Kontur
100
AcDbLine
 10
314.8808224589213
 20
85.07581693227176
 30
0.0
 11
315.8000612744638
 21
85.6065397098748
 31
0.0
  0
LINE
  5
388
330
17
100
AcDbEntity
  8
Kontur
100
AcDbLine
 10
314.8808224589213
 20
86.38221146175613
 30
0.0
 11
316.7193000900063
 21
85.3207659065501
 31
0.0
  0
LINE
  5
389
330
17
100
AcDbEntity
  8
Kontur
100
AcDbLine
 10
316.7193000900063
 20
85.3207659065501
 30
0.0
 11
316.7193000900063
 21
87.28035770077663
 31
0.0
  0
LINE
  5
38A
330
17
100
AcDbEntity
  8
Kontur
100
AcDbLine
 10
316.7193000900063
 20
85.3207659065501
 30
0.0
 11
317.6385389055488
 21
85.85148868415311
 31
0.0
  0
LINE
  5
38B
330
17
100
AcDbEntity
  8
Kontur
100
AcDbLine
 10
316.7193000900063
 20
87.28035770077663
 30
0.0
 11
314.8808224589213
 21
88.34180325598267
 31
0.0
  0
LINE
  5
38C
330
17
100
AcDbEntity
  8
Kontur
100
AcDbLine
 10
316.7193000900063
 20
87.28035770077663
 30
0.0
 11
317.6385389055488
 21
87.81108047837965
 31
0.0
  0
LINE
  5
38D
330
17
100
AcDbEntity
  8
Kontur
100
AcDbLine
 10
314.8808224589213
 20
88.34180325598267
 30
0.0
 11
314.8808224589213
 21
89.1582998369104
 31
0.0
  0
LINE
  5
38E
330
17
100
AcDbEntity
  8
Kontur
100
AcDbLine
 10
314.8808224589213
 20
88.34180325598267
 30
0.0
 11
315.8000612744638
 21
88.8725260335857
 31
0.0
  0
LINE
  5
38F
330
17
100
AcDbEntity
  8
Kontur
100
AcDbLine
 10
314.8808224589213
 20
89.1582998369104
 30
0.0
 11
314.1737156777347
 21
89.56654812737426
 31
0.0
  0
LINE
  5
390
330
17
100
AcDbEntity
  8
Kontur
100
AcDbLine
 10
314.8808224589213
 20
89.1582998369104
 30
0.0
 11
315.8000612744638
 21
89.68902261451342
 31
0.0
  0
LINE
  5
391
330
17
100
AcDbEntity
  8
Kontur
100
AcDbLine
 10
314.1737156777347
 20
89.56654812737426
 30
0.0
 11
306.3955410846827
 21
103.03874171268174
 31
0.0
  0
LINE
  5
392
330
17
100
AcDbEntity
  8
Kontur
100
AcDbLine
 10
308.0128212098581
 20
102.3604214762187
 30
0.0
 11
307.31477990022523
 21
103.56946449028476
 31
0.0
  0
LINE
  5
393
330
17
100
AcDbEntity
  8
Kontur
100
AcDbLine
 10
314.1737156777347
 20
89.56654812737426
 30
0.0
 11
315.09295449327726
 21
90.09727090497728
 31
0.0
  0
LINE
  5
394
330
17
100
AcDbEntity
  8
Kontur
100
AcDbLine
 10
306.3955410846827
 20
103.03874171268174
 30
0.0
 11
267.9289321881345
 21
125.2474487139159
 31
0.0
  0
LINE
  5
395
330
17
100
AcDbEntity
  8
Kontur
100
AcDbLine
 10
307.31477990022523
 20
103.56946449028476
 30
0.0
 11
268.84817100367707
 21
125.77817149151892
 31
0.0
  0
LINE
  5
396
330
17
100
AcDbEntity
  8
Kontur
100
AcDbLine
 10
306.3955410846827
 20
103.03874171268174
 30
0.0
 11
307.31477990022523
 21
103.56946449028476
 31
0.0
  0
LINE
  5
397
330
17
100
AcDbEntity
  8
Kontur
100
AcDbLine
 10
267.9289321881345
 20
125.2474487139159
 30
0.0
 11
267.9289321881345
 21
123.1245576035038
 31
0.0
  0
LINE
  5
398
330
17
100
AcDbEntity
  8
Kontur
100
AcDbLine
 10
267.9289321881345
 20
125.2474487139159
 30
0.0
 11
268.848171003677
 21
125.77817149151892
 31
0.0
  0
LINE
  5
399
330
17
100
AcDbEntity
  8
Kontur
100
AcDbLine
 10
267.9289321881345
 20
123.1245576035038
 30
0.0
 11
269.90883117545684
 21
121.98146239020498
 31
0.0
  0
LINE
  5
39A
330
17
100
AcDbEntity
  8
Kontur
100
AcDbLine
 10
269.90883117545684
 20
121.98146239020498
 30
0.0
 11
269.90883117545684
 21
119.53197264742181
 31
0.0
  0
LINE
  5
39B
330
17
100
AcDbEntity
  8
Kontur
100
AcDbLine
 10
269.90883117545684
 20
119.53197264742181
 30
0.0
 11
267.9289321881345
 21
120.67506786072063
 31
0.0
  0
LINE
  5
39C
330
17
100
AcDbEntity
  8
Kontur
100
AcDbLine
 10
267.9289321881345
 20
120.67506786072063
 30
0.0
 11
267.9289321881345
 21
119.04207469886518
 31
0.0
  0
LINE
  5
39D
330
17
100
AcDbEntity
  8
Kontur
100
AcDbLine
 10
267.9289321881345
 20
120.67506786072063
 30
0.0
 11
268.848171003677
 21
121.20579063832365
 31
0.0
  0
LINE
  5
39E
330
17
100
AcDbEntity
  8
Kontur
100
AcDbLine
 10
267.9289321881345
 20
119.04207469886518
 30
0.0
 11
269.90883117545684
 21
117.89897948556636
 31
0.0
  0
LINE
  5
39F
330
17
100
AcDbEntity
  8
Kontur
100
AcDbLine
 10
269.90883117545684
 20
117.89897948556636
 30
0.0
 11
269.90883117545684
 21
115.44948974278319
 31
0.0
  0
LINE
  5
3A0
330
17
100
AcDbEntity
  8
Kontur
100
AcDbLine
 10
269.90883117545684
 20
115.44948974278319
 30
0.0
 11
267.9289321881345
 21
116.59258495608199
 31
0.0
  0
LINE
  5
3A1
330
17
100
AcDbEntity
  8
Kontur
100
AcDbLine
 10
267.9289321881345
 20
116.59258495608199
 30
0.0
 11
267.9289321881345
 21
114.95959179422654
 31
0.0
  0
LINE
  5
3A2
330
17
100
AcDbEntity
  8
Kontur
100
AcDbLine
 10
267.9289321881345
 20
116.59258495608199
 30
0.0
 11
268.848171003677
 21
117.12330773368501
 31
0.0
  0
LINE
  5
3A3
330
17
100
AcDbEntity
  8
Kontur
100
AcDbLine
 10
267.9289321881345
 20
114.95959179422654
 30
0.0
 11
269.90883117545684
 21
113.81649658092772
 31
0.0
  0
LINE
  5
3A4
330
17
100
AcDbEntity
  8
Kontur
100
AcDbLine
 10
269.90883117545684
 20
113.81649658092772
 30
0.0
 11
269.90883117545684
 21
111.36700683814455
 31
0.0
  0
LINE
  5
3A5
330
17
100
AcDbEntity
  8
Kontur
100
AcDbLine
 10
269.90883117545684
 20
111.36700683814455
 30
0.0
 11
267.9289321881345
 21
112.51010205144337
 31
0.0
  0
LINE
  5
3A6
330
17
100
AcDbEntity
  8
Kontur
100
AcDbLine
 10
267.9289321881345
 20
112.51010205144337
 30
0.0
 11
267.9289321881345
 21
109.89731299247464
 31
0.0
  0
LINE
  5
3A7
330
17
100
AcDbEntity
  8
Kontur
100
AcDbLine
 10
267.9289321881345
 20
112.51010205144337
 30
0.0
 11
268.848171003677
 21
113.04082482904639
 31
0.0
  0
LINE
  5
3A8
330
17
100
AcDbEntity
  8
Kontur
100
AcDbLine
 10
366.9238815542512
 20
111.04040820577346
 30
0.0
 11
366.9238815542512
 21
113.0
 31
0.0
  0
LINE
  5
3A9
330
17
100
AcDbEntity
  8
Kontur
100
AcDbLine
 10
366.00464273870864
 20
110.50968542817044
 30
0.0
 11
366.9238815542512
 21
111.04040820577346
 31
0.0
  0
LINE
  5
3AA
330
17
100
AcDbEntity
  8
Kontur
100
AcDbLine
 10
366.9238815542512
 20
113.0
 30
0.0
 11
365.7925107043527
 21
113.65319726474218
 31
0.0
  0
LINE
  5
3AB
330
17
100
AcDbEntity
  8
Kontur
100
AcDbLine
 10
366.00464273870864
 20
112.46927722239698
 30
0.0
 11
366.9238815542512
 21
113.0
 31
0.0
  0
LINE
  5
3AC
330
17
100
AcDbEntity
  8
Kontur
100
AcDbLine
 10
364.16616510762367
 20
113.53072277760302
 30
0.0
 11
364.29748493841544
 21
113.6065403172606
 31
0.0
  0
LINE
  5
3AD
330
17
100
AcDbEntity
  8
Kontur
100
AcDbLine
 10
366.9238815542512
 20
114.30639452948436
 30
0.0
 11
366.9238815542512
 21
116.2659863237109
 31
0.0
  0
LINE
  5
3AE
330
17
100
AcDbEntity
  8
Kontur
100
AcDbLine
 10
366.00464273870864
 20
113.77567175188135
 30
0.0
 11
366.9238815542512
 21
114.30639452948436
 31
0.0
  0
LINE
  5
3AF
330
17
100
AcDbEntity
  8
Kontur
100
AcDbLine
 10
366.9238815542512
 20
116.2659863237109
 30
0.0
 11
365.08540392316615
 21
117.32743187891695
 31
0.0
  0
LINE
  5
3B0
330
17
100
AcDbEntity
  8
Kontur
100
AcDbLine
 10
366.00464273870864
 20
115.73526354610789
 30
0.0
 11
366.9238815542512
 21
116.2659863237109
 31
0.0
  0
LINE
  5
3B1
330
17
100
AcDbEntity
  8
Kontur
100
AcDbLine
 10
365.08540392316615
 20
117.32743187891695
 30
0.0
 11
365.08540392316615
 21
118.14392845984467
 31
0.0
  0
LINE
  5
3B2
330
17
100
AcDbEntity
  8
Kontur
100
AcDbLine
 10
364.16616510762367
 20
116.79670910131392
 30
0.0
 11
365.08540392316615
 21
117.32743187891695
 31
0.0
  0
LINE
  5
3B3
330
17
100
AcDbEntity
  8
Kontur
100
AcDbLine
 10
365.08540392316615
 20
118.14392845984467
 30
0.0
 11
364.3782971419796
 21
118.55217675030855
 31
0.0
  0
LINE
  5
3B4
330
17
100
AcDbEntity
  8
Kontur
100
AcDbLine
 10
364.16616510762367
 20
117.61320568224166
 30
0.0
 11
365.08540392316615
 21
118.14392845984467
 31
0.0
  0
LINE
  5
3B5
330
17
100
AcDbEntity
  8
Kontur
100
AcDbLine
 10
356.37892504301794
 20
130.28460454394695
 30
0.0
 11
355.6808837333851
 21
131.493647558013
 31
0.0
  0
LINE
  5
3B6
330
17
100
AcDbEntity
  8
Kontur
100
AcDbLine
 10
364.3782971419796
 20
118.55217675030855
 30
0.0
 11
356.6001225489276
 21
132.02437033561603
 31
0.0
  0
LINE
  5
3B7
330
17
100
AcDbEntity
  8
Kontur
100
AcDbLine
 10
363.4590583264371
 20
118.02145397270552
 30
0.0
 11
364.3782971419796
 21
118.55217675030855
 31
0.0
  0
LINE
  5
3B8
330
17
100
AcDbEntity
  8
Kontur
100
AcDbLine
 10
355.6808837333851
 20
131.493647558013
 30
0.0
 11
317.21427483683686
 21
153.70235455924714
 31
0.0
  0
LINE
  5
3B9
330
17
100
AcDbEntity
  8
Kontur
100
AcDbLine
 10
356.6001225489276
 20
132.02437033561603
 30
0.0
 11
318.1335136523794
 21
154.23307733685016
 31
0.0
  0
LINE
  5
3BA
330
17
100
AcDbEntity
  8
Kontur
100
AcDbLine
 10
355.6808837333851
 20
131.493647558013
 30
0.0
 11
356.6001225489276
 21
132.02437033561603
 31
0.0
  0
LINE
  5
3BB
330
17
100
AcDbEntity
  8
Kontur
100
AcDbLine
 10
317.21427483683686
 20
153.70235455924714
 30
0.0
 11
317.21427483683686
 21
152.88585797831942
 31
0.0
  0
LINE
  5
3BC
330
17
100
AcDbEntity
  8
Kontur
100
AcDbLine
 10
317.21427483683686
 20
153.70235455924714
 30
0.0
 11
318.1335136523794
 21
154.23307733685016
 31
0.0
  0
LINE
  5
3BD
330
17
100
AcDbEntity
  8
Kontur
100
AcDbLine
 10
317.21427483683686
 20
149.12997370605189
 30
0.0
 11
318.1335136523794
 21
149.6606964836549
 31
0.0
  0
LINE
  5
3BE
330
17
100
AcDbEntity
  8
Kontur
100
AcDbLine
 10
317.21427483683686
 20
145.04749080141326
 30
0.0
 11
318.1335136523794
 21
145.57821357901628
 31
0.0
  0
LINE
  5
3BF
330
17
100
AcDbEntity
  8
Kontur
100
AcDbLine
 10
317.21427483683686
 20
140.96500789677464
 30
0.0
 11
318.1335136523794
 21
141.49573067437765
 31
0.0
  0
LINE
  5
3C0
330
17
100
AcDbEntity
  8
Kontur
100
AcDbLine
 10
356.38799051457164
 20
130.2689026866214
 30
0.0
 11
317.21427483683686
 21
152.88585797831942
 31
0.0
  0
LINE
  5
3C1
330
17
100
AcDbEntity
  8
Kontur
100
AcDbLine
 10
315.0222438151586
 20
82.87127616376691
 30
0.0
 11
315.87077195258246
 21
82.38137821521028
 31
0.0
  0
LINE
  5
3C2
330
17
100
AcDbEntity
  8
Kontur
100
AcDbLine
 10
315.87077195258246
 20
82.38137821521028
 30
0.0
 11
315.87077195258246
 21
82.54467753139582
 31
0.0
  0
LINE
  5
3C3
330
17
100
AcDbEntity
  8
Kontur
100
AcDbLine
 10
315.87077195258246
 20
82.38137821521028
 30
0.0
 11
316.01219330881975
 21
82.46302787330305
 31
0.0
  0
LINE
  5
3C4
330
17
100
AcDbEntity
  8
Kontur
100
AcDbLine
 10
317.9920922961421
 20
83.44282377041631
 30
0.0
 11
317.9920922961421
 21
84.25932035134404
 31
0.0
  0
LINE
  5
3C5
330
17
100
AcDbEntity
  8
Kontur
100
AcDbLine
 10
317.7092495836675
 20
82.62632718948859
 30
0.0
 11
317.9920922961421
 21
82.78962650567414
 31
0.0
  0
LINE
  5
3C6
330
17
100
AcDbEntity
  8
Kontur
100
AcDbLine
 10
317.7092495836675
 20
84.58591898371513
 30
0.0
 11
317.9920922961421
 21
84.74921829990068
 31
0.0
  0
LINE
  5
3C7
330
17
100
AcDbEntity
  8
Kontur
100
AcDbLine
 10
315.87077195258246
 20
85.64736453892118
 30
0.0
 11
316.01219330881975
 21
85.72901419701395
 31
0.0
  0
LINE
  5
3C8
330
17
100
AcDbEntity
  8
Kontur
100
AcDbLine
 10
317.7092495836675
 20
85.8923135131995
 30
0.0
 11
317.9920922961421
 21
86.05561282938504
 31
0.0
  0
LINE
  5
3C9
330
17
100
AcDbEntity
  8
Kontur
100
AcDbLine
 10
317.7092495836675
 20
87.85190530742604
 30
0.0
 11
317.9920922961421
 21
88.01520462361158
 31
0.0
  0
LINE
  5
3CA
330
17
100
AcDbEntity
  8
Kontur
100
AcDbLine
 10
315.87077195258246
 20
88.91335086263209
 30
0.0
 11
316.15361466505703
 21
89.07665017881763
 31
0.0
  0
LINE
  5
3CB
330
17
100
AcDbEntity
  8
Kontur
100
AcDbLine
 10
315.87077195258246
 20
89.7298474435598
 30
0.0
 11
316.15361466505703
 21
89.89314675974535
 31
0.0
  0
LINE
  5
3CC
330
17
100
AcDbEntity
  8
Kontur
100
AcDbLine
 10
315.1636651713959
 20
90.13809573402366
 30
0.0
 11
315.44650788387054
 21
90.30139505020921
 31
0.0
  0
LINE
  5
3CD
330
17
100
AcDbEntity
  8
Kontur
100
AcDbLine
 10
308.09259735953043
 20
102.38554444793957
 30
0.0
 11
308.37544007200506
 21
102.54884376412511
 31
0.0
  0
LINE
  5
3CE
330
17
100
AcDbEntity
  8
Kontur
100
AcDbLine
 10
268.9188816817957
 20
121.24661546737003
 30
0.0
 11
269.2017243942703
 21
121.40991478355558
 31
0.0
  0
LINE
  5
3CF
330
17
100
AcDbEntity
  8
Kontur
100
AcDbLine
 10
268.9188816817957
 20
117.16413256273141
 30
0.0
 11
269.2017243942703
 21
117.32743187891695
 31
0.0
  0
LINE
  5
3D0
330
17
100
AcDbEntity
  8
Kontur
100
AcDbLine
 10
268.9188816817957
 20
113.08164965809277
 30
0.0
 11
269.2017243942703
 21
113.24494897427832
 31
0.0
  0
LINE
  5
3D1
330
17
100
AcDbEntity
  8
Kontur
100
AcDbLine
 10
364.09545442950497
 20
110.22391162484573
 30
0.0
 11
364.09545442950497
 21
110.38721094103127
 31
0.0
  0
LINE
  5
3D2
330
17
100
AcDbEntity
  8
Kontur
100
AcDbLine
 10
363.81261171703034
 20
110.06061230866018
 30
0.0
 11
364.09545442950497
 21
110.22391162484573
 31
0.0
  0
LINE
  5
3D3
330
17
100
AcDbEntity
  8
Kontur
100
AcDbLine
 10
365.6510893481154
 20
110.95875854768069
 30
0.0
 11
365.6510893481154
 21
111.7752551286084
 31
0.0
  0
LINE
  5
3D4
330
17
100
AcDbEntity
  8
Kontur
100
AcDbLine
 10
365.6510893481154
 20
110.30556128293851
 30
0.0
 11
365.93393206059
 21
110.46886059912406
 31
0.0
  0
LINE
  5
3D5
330
17
100
AcDbEntity
  8
Kontur
100
AcDbLine
 10
365.6510893481154
 20
112.26515307716505
 30
0.0
 11
365.93393206059
 21
112.4284523933506
 31
0.0
  0
LINE
  5
3D6
330
17
100
AcDbEntity
  8
Kontur
100
AcDbLine
 10
363.81261171703034
 20
113.32659863237109
 30
0.0
 11
364.09545442950497
 21
113.48989794855663
 31
0.0
  0
LINE
  5
3D7
330
17
100
AcDbEntity
  8
Kontur
100
AcDbLine
 10
365.6510893481154
 20
113.57154760664942
 30
0.0
 11
365.93393206059
 21
113.73484692283496
 31
0.0
  0
LINE
  5
3D8
330
17
100
AcDbEntity
  8
Kontur
100
AcDbLine
 10
365.6510893481154
 20
115.53113940087596
 30
0.0
 11
365.93393206059
 21
115.6944387170615
 31
0.0
  0
LINE
  5
3D9
330
17
100
AcDbEntity
  8
Kontur
100
AcDbLine
 10
363.81261171703034
 20
116.59258495608199
 30
0.0
 11
364.09545442950497
 21
116.75588427226754
 31
0.0
  0
LINE
  5
3DA
330
17
100
AcDbEntity
  8
Kontur
100
AcDbLine
 10
363.81261171703034
 20
117.40908153700973
 30
0.0
 11
364.09545442950497
 21
117.57238085319527
 31
0.0
  0
LINE
  5
3DB
330
17
100
AcDbEntity
  8
Kontur
100
AcDbLine
 10
363.10550493584384
 20
117.81732982747359
 30
0.0
 11
363.3883476483185
 21
117.98062914365913
 31
0.0
  0
LINE
  5
3DC
330
17
100
AcDbEntity
  8
Kontur
100
AcDbLine
 10
356.03443712397836
 20
130.06477854138947
 30
0.0
 11
356.31727983645294
 21
130.22807785757502
 31
0.0
  0
LINE
  5
3DD
330
17
100
AcDbEntity
  8
Kontur
100
AcDbLine
 10
316.8607214462436
 20
152.6817338330875
 30
0.0
 11
317.1435641587182
 21
152.84503314927304
 31
0.0
  0
LINE
  5
3DE
330
17
100
AcDbEntity
  8
Kontur
100
AcDbLine
 10
316.8607214462436
 20
148.92584956081996
 30
0.0
 11
317.1435641587182
 21
149.0891488770055
 31
0.0
  0
LINE
  5
3DF
330
17
100
AcDbEntity
  8
Kontur
100
AcDbLine
 10
316.8607214462436
 20
144.84336665618133
 30
0.0
 11
317.1435641587182
 21
145.00666597236687
 31
0.0
  0
LINE
  5
3E0
330
17
100
AcDbEntity
  8
Kontur
100
AcDbLine
 10
316.8607214462436
 20
140.76088375154268
 30
0.0
 11
317.1435641587182
 21
140.92418306772822
 31
0.0
  0
LINE
  5
3E1
330
17
100
AcDbEntity
  8
Kontur
100
AcDbLine
 10
318.6991990773286
 20
83.197874796138
 30
0.0
 11
318.6991990773286
 21
83.85107206088018
 31
0.0
  0
LINE
  5
3E2
330
17
100
AcDbEntity
  8
Kontur
100
AcDbLine
 10
317.9920922961421
 20
82.78962650567414
 30
0.0
 11
318.6991990773286
 21
83.197874796138
 31
0.0
  0
LINE
  5
3E3
330
17
100
AcDbEntity
  8
Kontur
100
AcDbLine
 10
318.6991990773286
 20
83.85107206088018
 30
0.0
 11
317.9920922961421
 21
84.25932035134404
 31
0.0
  0
LINE
  5
3E4
330
17
100
AcDbEntity
  8
Kontur
100
AcDbLine
 10
317.9920922961421
 20
83.44282377041631
 30
0.0
 11
318.6991990773286
 21
83.85107206088018
 31
0.0
  0
LINE
  5
3E5
330
17
100
AcDbEntity
  8
Kontur
100
AcDbLine
 10
317.56782822743014
 20
135.9435539240691
 30
0.0
 11
363.10550493584384
 21
109.65236401819632
 31
0.0
  0
LINE
  5
3E6
330
17
100
AcDbEntity
  8
Kontur
100
AcDbLine
 10
363.10550493584384
 20
109.65236401819632
 30
0.0
 11
363.10550493584384
 21
110.95875854768069
 31
0.0
  0
LINE
  5
3E7
330
17
100
AcDbEntity
  8
Kontur
100
AcDbLine
 10
363.10550493584384
 20
109.65236401819632
 30
0.0
 11
363.81261171703034
 21
110.06061230866018
 31
0.0
  0
LINE
  5
3E8
330
17
100
AcDbEntity
  8
Kontur
100
AcDbLine
 10
363.10550493584384
 20
110.95875854768069
 30
0.0
 11
364.94398256692887
 21
109.89731299247464
 31
0.0
  0
LINE
  5
3E9
330
17
100
AcDbEntity
  8
Kontur
100
AcDbLine
 10
364.94398256692887
 20
109.89731299247464
 30
0.0
 11
364.94398256692887
 21
110.55051025721683
 31
0.0
  0
LINE
  5
3EA
330
17
100
AcDbEntity
  8
Kontur
100
AcDbLine
 10
364.94398256692887
 20
109.89731299247464
 30
0.0
 11
365.6510893481154
 21
110.30556128293851
 31
0.0
  0
LINE
  5
3EB
330
17
100
AcDbEntity
  8
Kontur
100
AcDbLine
 10
364.94398256692887
 20
110.55051025721683
 30
0.0
 11
316.15361466505703
 21
138.71964229922338
 31
0.0
  0
LINE
  5
3EC
330
17
100
AcDbEntity
  8
Kontur
100
AcDbLine
 10
365.6510893481154
 20
110.95875854768069
 30
0.0
 11
364.94398256692887
 21
111.36700683814455
 31
0.0
  0
LINE
  5
3ED
330
17
100
AcDbEntity
  8
Kontur
100
AcDbLine
 10
364.94398256692887
 20
110.55051025721683
 30
0.0
 11
365.6510893481154
 21
110.95875854768069
 31
0.0
  0
LINE
  5
3EE
330
17
100
AcDbEntity
  8
Kontur
100
AcDbLine
 10
316.15361466505703
 20
138.71964229922338
 30
0.0
 11
316.15361466505703
 21
137.2499484535535
 31
0.0
  0
LINE
  5
3EF
330
17
100
AcDbEntity
  8
Kontur
100
AcDbLine
 10
316.15361466505703
 20
138.71964229922338
 30
0.0
 11
316.8607214462436
 21
139.12789058968724
 31
0.0
  0
LINE
  5
3F0
330
17
100
AcDbEntity
  8
Kontur
100
AcDbLine
 10
316.15361466505703
 20
137.24994845355346
 30
0.0
 11
317.56782822743014
 21
135.9435539240691
 31
0.0
  0
LINE
  5
3F1
330
17
100
AcDbEntity
  8
Kontur
100
AcDbLine
 10
318.6991990773286
 20
84.6675686418079
 30
0.0
 11
318.6991990773286
 21
85.15746659036455
 31
0.0
  0
LINE
  5
3F2
330
17
100
AcDbEntity
  8
Kontur
100
AcDbLine
 10
317.9920922961421
 20
84.25932035134404
 30
0.0
 11
318.6991990773286
 21
84.6675686418079
 31
0.0
  0
LINE
  5
3F3
330
17
100
AcDbEntity
  8
Kontur
100
AcDbLine
 10
318.6991990773286
 20
85.15746659036455
 30
0.0
 11
317.56782822743014
 21
85.81066385510672
 31
0.0
  0
LINE
  5
3F4
330
17
100
AcDbEntity
  8
Kontur
100
AcDbLine
 10
317.9920922961421
 20
84.74921829990068
 30
0.0
 11
318.6991990773286
 21
85.15746659036455
 31
0.0
  0
LINE
  5
3F5
330
17
100
AcDbEntity
  8
Kontur
100
AcDbLine
 10
318.6991990773286
 20
86.4638611198489
 30
0.0
 11
318.6991990773286
 21
88.42345291407545
 31
0.0
  0
LINE
  5
3F6
330
17
100
AcDbEntity
  8
Kontur
100
AcDbLine
 10
317.9920922961421
 20
86.05561282938504
 30
0.0
 11
318.6991990773286
 21
86.4638611198489
 31
0.0
  0
LINE
  5
3F7
330
17
100
AcDbEntity
  8
Kontur
100
AcDbLine
 10
318.6991990773286
 20
88.42345291407545
 30
0.0
 11
316.8607214462436
 21
89.48489846928149
 31
0.0
  0
LINE
  5
3F8
330
17
100
AcDbEntity
  8
Kontur
100
AcDbLine
 10
317.9920922961421
 20
88.01520462361158
 30
0.0
 11
318.6991990773286
 21
88.42345291407545
 31
0.0
  0
LINE
  5
3F9
330
17
100
AcDbEntity
  8
Kontur
100
AcDbLine
 10
316.8607214462436
 20
89.48489846928149
 30
0.0
 11
316.8607214462436
 21
90.30139505020921
 31
0.0
  0
LINE
  5
3FA
330
17
100
AcDbEntity
  8
Kontur
100
AcDbLine
 10
316.15361466505703
 20
89.07665017881763
 30
0.0
 11
316.8607214462436
 21
89.48489846928149
 31
0.0
  0
LINE
  5
3FB
330
17
100
AcDbEntity
  8
Kontur
100
AcDbLine
 10
316.8607214462436
 20
90.30139505020921
 30
0.0
 11
316.15361466505703
 21
90.70964334067308
 31
0.0
  0
LINE
  5
3FC
330
17
100
AcDbEntity
  8
Kontur
100
AcDbLine
 10
316.15361466505703
 20
89.89314675974535
 30
0.0
 11
316.8607214462436
 21
90.30139505020921
 31
0.0
  0
LINE
  5
3FD
330
17
100
AcDbEntity
  8
Kontur
100
AcDbLine
 10
316.15361466505703
 20
90.70964334067308
 30
0.0
 11
309.0825468531916
 21
102.95709205458897
 31
0.0
  0
LINE
  5
3FE
330
17
100
AcDbEntity
  8
Kontur
100
AcDbLine
 10
315.44650788387054
 20
90.30139505020921
 30
0.0
 11
316.15361466505703
 21
90.70964334067308
 31
0.0
  0
LINE
  5
3FF
330
17
100
AcDbEntity
  8
Kontur
100
AcDbLine
 10
309.0825468531916
 20
102.95709205458897
 30
0.0
 11
269.90883117545684
 21
125.57404734628699
 31
0.0
  0
LINE
  5
400
330
17
100
AcDbEntity
  8
Kontur
100
AcDbLine
 10
308.37544007200506
 20
102.54884376412511
 30
0.0
 11
309.0825468531916
 21
102.95709205458897
 31
0.0
  0
LINE
  5
401
330
17
100
AcDbEntity
  8
Kontur
100
AcDbLine
 10
269.62598846298226
 20
125.41074803010144
 30
0.0
 11
269.90883117545684
 21
125.57404734628699
 31
0.0
  0
LINE
  5
402
330
17
100
AcDbEntity
  8
Kontur
100
AcDbLine
 10
269.2017243942703
 20
121.40991478355558
 30
0.0
 11
269.90883117545684
 21
121.81816307401944
 31
0.0
  0
LINE
  5
403
330
17
100
AcDbEntity
  8
Kontur
100
AcDbLine
 10
269.2017243942703
 20
117.32743187891695
 30
0.0
 11
269.90883117545684
 21
117.73568016938081
 31
0.0
  0
LINE
  5
404
330
17
100
AcDbEntity
  8
Kontur
100
AcDbLine
 10
269.2017243942703
 20
113.24494897427832
 30
0.0
 11
269.90883117545684
 21
113.65319726474218
 31
0.0
  0
LINE
  5
405
330
17
100
AcDbEntity
  8
Kontur
100
AcDbLine
 10
316.15361466505703
 20
139.5361388801511
 30
0.0
 11
364.94398256692887
 21
111.36700683814455
 31
0.0
  0
LINE
  5
406
330
17
100
AcDbEntity
  8
Kontur
100
AcDbLine
 10
364.94398256692887
 20
111.36700683814455
 30
0.0
 11
364.94398256692887
 21
111.85690478670118
 31
0.0
  0
LINE
  5
407
330
17
100
AcDbEntity
  8
Kontur
100
AcDbLine
 10
364.94398256692887
 20
111.36700683814455
 30
0.0
 11
365.6510893481154
 21
111.7752551286084
 31
0.0
  0
LINE
  5
408
330
17
100
AcDbEntity
  8
Kontur
100
AcDbLine
 10
364.94398256692887
 20
111.85690478670118
 30
0.0
 11
363.10550493584384
 21
112.91835034190723
 31
0.0
  0
LINE
  5
409
330
17
100
AcDbEntity
  8
Kontur
100
AcDbLine
 10
364.94398256692887
 20
111.85690478670118
 30
0.0
 11
365.6510893481154
 21
112.26515307716505
 31
0.0
  0
LINE
  5
40A
330
17
100
AcDbEntity
  8
Kontur
100
AcDbLine
 10
363.10550493584384
 20
112.91835034190723
 30
0.0
 11
363.10550493584384
 21
114.2247448713916
 31
0.0
  0
LINE
  5
40B
330
17
100
AcDbEntity
  8
Kontur
100
AcDbLine
 10
363.10550493584384
 20
112.91835034190723
 30
0.0
 11
363.81261171703034
 21
113.32659863237109
 31
0.0
  0
LINE
  5
40C
330
17
100
AcDbEntity
  8
Kontur
100
AcDbLine
 10
363.10550493584384
 20
114.2247448713916
 30
0.0
 11
364.94398256692887
 21
113.16329931618554
 31
0.0
  0
LINE
  5
40D
330
17
100
AcDbEntity
  8
Kontur
100
AcDbLine
 10
364.94398256692887
 20
113.16329931618554
 30
0.0
 11
364.94398256692887
 21
115.12289111041208
 31
0.0
  0
LINE
  5
40E
330
17
100
AcDbEntity
  8
Kontur
100
AcDbLine
 10
364.94398256692887
 20
113.16329931618554
 30
0.0
 11
365.6510893481154
 21
113.57154760664942
 31
0.0
  0
LINE
  5
40F
330
17
100
AcDbEntity
  8
Kontur
100
AcDbLine
 10
364.94398256692887
 20
115.12289111041208
 30
0.0
 11
363.10550493584384
 21
116.18433666561813
 31
0.0
  0
LINE
  5
410
330
17
100
AcDbEntity
  8
Kontur
100
AcDbLine
 10
364.94398256692887
 20
115.12289111041208
 30
0.0
 11
365.6510893481154
 21
115.53113940087596
 31
0.0
  0
LINE
  5
411
330
17
100
AcDbEntity
  8
Kontur
100
AcDbLine
 10
363.10550493584384
 20
116.18433666561813
 30
0.0
 11
363.10550493584384
 21
117.00083324654585
 31
0.0
  0
LINE
  5
412
330
17
100
AcDbEntity
  8
Kontur
100
AcDbLine
 10
363.10550493584384
 20
116.18433666561813
 30
0.0
 11
363.81261171703034
 21
116.59258495608199
 31
0.0
  0
LINE
  5
413
330
17
100
AcDbEntity
  8
Kontur
100
AcDbLine
 10
363.10550493584384
 20
117.00083324654585
 30
0.0
 11
362.3983981546573
 21
117.40908153700973
 31
0.0
  0
LINE
  5
414
330
17
100
AcDbEntity
  8
Kontur
100
AcDbLine
 10
363.10550493584384
 20
117.00083324654585
 30
0.0
 11
363.81261171703034
 21
117.40908153700973
 31
0.0
  0
LINE
  5
415
330
17
100
AcDbEntity
  8
Kontur
100
AcDbLine
 10
362.3983981546573
 20
117.40908153700973
 30
0.0
 11
355.3273303427918
 21
129.6565302509256
 31
0.0
  0
LINE
  5
416
330
17
100
AcDbEntity
  8
Kontur
100
AcDbLine
 10
362.3983981546573
 20
117.40908153700973
 30
0.0
 11
363.10550493584384
 21
117.81732982747359
 31
0.0
  0
LINE
  5
417
330
17
100
AcDbEntity
  8
Kontur
100
AcDbLine
 10
355.3273303427918
 20
129.6565302509256
 30
0.0
 11
316.15361466505703
 21
152.27348554262363
 31
0.0
  0
LINE
  5
418
330
17
100
AcDbEntity
  8
Kontur
100
AcDbLine
 10
355.3273303427918
 20
129.6565302509256
 30
0.0
 11
356.03443712397836
 21
130.06477854138947
 31
0.0
  0
LINE
  5
419
330
17
100
AcDbEntity
  8
Kontur
100
AcDbLine
 10
316.15361466505703
 20
152.27348554262363
 30
0.0
 11
316.15361466505703
 21
150.96709101313928
 31
0.0
  0
LINE
  5
41A
330
17
100
AcDbEntity
  8
Kontur
100
AcDbLine
 10
316.15361466505703
 20
152.27348554262363
 30
0.0
 11
316.8607214462436
 21
152.6817338330875
 31
0.0
  0
LINE
  5
41B
330
17
100
AcDbEntity
  8
Kontur
100
AcDbLine
 10
316.15361466505703
 20
150.96709101313928
 30
0.0
 11
318.1335136523794
 21
149.82399579984045
 31
0.0
  0
LINE
  5
41C
330
17
100
AcDbEntity
  8
Kontur
100
AcDbLine
 10
318.1335136523794
 20
149.82399579984045
 30
0.0
 11
318.1335136523794
 21
147.37450605705726
 31
0.0
  0
LINE
  5
41D
330
17
100
AcDbEntity
  8
Kontur
100
AcDbLine
 10
318.1335136523794
 20
147.37450605705726
 30
0.0
 11
316.15361466505703
 21
148.5176012703561
 31
0.0
  0
LINE
  5
41E
330
17
100
AcDbEntity
  8
Kontur
100
AcDbLine
 10
316.15361466505703
 20
148.5176012703561
 30
0.0
 11
316.15361466505703
 21
146.88460810850063
 31
0.0
  0
LINE
  5
41F
330
17
100
AcDbEntity
  8
Kontur
100
AcDbLine
 10
316.15361466505703
 20
148.5176012703561
 30
0.0
 11
316.8607214462436
 21
148.92584956081996
 31
0.0
  0
LINE
  5
420
330
17
100
AcDbEntity
  8
Kontur
100
AcDbLine
 10
316.15361466505703
 20
146.88460810850063
 30
0.0
 11
318.1335136523794
 21
145.74151289520182
 31
0.0
  0
LINE
  5
421
330
17
100
AcDbEntity
  8
Kontur
100
AcDbLine
 10
318.1335136523794
 20
145.74151289520182
 30
0.0
 11
318.1335136523794
 21
143.29202315241864
 31
0.0
  0
LINE
  5
422
330
17
100
AcDbEntity
  8
Kontur
100
AcDbLine
 10
318.1335136523794
 20
143.29202315241864
 30
0.0
 11
316.15361466505703
 21
144.43511836571747
 31
0.0
  0
LINE
  5
423
330
17
100
AcDbEntity
  8
Kontur
100
AcDbLine
 10
316.15361466505703
 20
144.43511836571747
 30
0.0
 11
316.15361466505703
 21
142.802125203862
 31
0.0
  0
LINE
  5
424
330
17
100
AcDbEntity
  8
Kontur
100
AcDbLine
 10
316.15361466505703
 20
144.43511836571747
 30
0.0
 11
316.8607214462436
 21
144.84336665618133
 31
0.0
  0
LINE
  5
425
330
17
100
AcDbEntity
  8
Kontur
100
AcDbLine
 10
316.15361466505703
 20
142.802125203862
 30
0.0
 11
318.1335136523794
 21
141.6590299905632
 31
0.0
  0
LINE
  5
426
330
17
100
AcDbEntity
  8
Kontur
100
AcDbLine
 10
318.1335136523794
 20
141.6590299905632
 30
0.0
 11
318.1335136523794
 21
139.20954024778
 31
0.0
  0
LINE
  5
427
330
17
100
AcDbEntity
  8
Kontur
100
AcDbLine
 10
318.1335136523794
 20
139.20954024778
 30
0.0
 11
316.15361466505703
 21
140.35263546107882
 31
0.0
  0
LINE
  5
428
330
17
100
AcDbEntity
  8
Kontur
100
AcDbLine
 10
316.15361466505703
 20
140.35263546107882
 30
0.0
 11
316.15361466505703
 21
139.5361388801511
 31
0.0
  0
LINE
  5
429
330
17
100
AcDbEntity
  8
Kontur
100
AcDbLine
 10
316.15361466505703
 20
140.35263546107882
 30
0.0
 11
316.8607214462436
 21
140.76088375154268
 31
0.0
  0
LINE
  5
42A
330
17
100
AcDbEntity
  8
Kontur
100
AcDbLine
 10
264.1105555697272
 20
124.3493024748954
 30
0.0
 11
264.81766235091374
 21
123.94105418443154
 31
0.0
  0
LINE
  5
42B
330
17
100
AcDbEntity
  8
Kontur
100
AcDbLine
 10
264.81766235091374
 20
123.94105418443154
 30
0.0
 11
264.81766235091374
 21
124.75755076535926
 31
0.0
  0
LINE
  5
42C
330
17
100
AcDbEntity
  8
Kontur
100
AcDbLine
 10
264.81766235091374
 20
127.20704050814244
 30
0.0
 11
264.81766235091374
 21
128.8400336699979
 31
0.0
  0
LINE
  5
42D
330
17
100
AcDbEntity
  8
Kontur
100
AcDbLine
 10
264.81766235091374
 20
131.28952341278108
 30
0.0
 11
264.81766235091374
 21
132.92251657463652
 31
0.0
  0
LINE
  5
42E
330
17
100
AcDbEntity
  8
Kontur
100
AcDbLine
 10
264.81766235091374
 20
135.3720063174197
 30
0.0
 11
264.81766235091374
 21
136.18850289834742
 31
0.0
  0
LINE
  5
42F
330
17
100
AcDbEntity
  8
Kontur
100
AcDbLine
 10
296.920310216783
 20
142.47552657149092
 30
0.0
 11
296.920310216783
 21
143.29202315241864
 31
0.0
  0
LINE
  5
430
330
17
100
AcDbEntity
  8
Kontur
100
AcDbLine
 10
296.920310216783
 20
145.74151289520182
 30
0.0
 11
296.920310216783
 21
147.37450605705726
 31
0.0
  0
LINE
  5
431
330
17
100
AcDbEntity
  8
Kontur
100
AcDbLine
 10
296.920310216783
 20
149.82399579984045
 30
0.0
 11
296.920310216783
 21
151.4569889616959
 31
0.0
  0
LINE
  5
432
330
17
100
AcDbEntity
  8
Kontur
100
AcDbLine
 10
296.920310216783
 20
153.90647870447907
 30
0.0
 11
296.920310216783
 21
154.72297528540682
 31
0.0
  0
LINE
  5
433
330
17
100
AcDbEntity
  8
Kontur
100
AcDbLine
 10
264.81766235091374
 20
123.94105418443154
 30
0.0
 11
296.920310216783
 21
142.47552657149092
 31
0.0
  0
LINE
  5
434
330
17
100
AcDbEntity
  8
Kontur
100
AcDbLine
 10
264.81766235091374
 20
136.18850289834742
 30
0.0
 11
262.83776336359136
 21
137.33159811164623
 31
0.0
  0
LINE
  5
435
330
17
100
AcDbEntity
  8
Kontur
100
AcDbLine
 10
296.920310216783
 20
154.72297528540682
 30
0.0
 11
294.94041122946066
 21
155.86607049870562
 31
0.0
  0
LINE
  5
436
330
17
100
AcDbEntity
  8
Kontur
100
AcDbLine
 10
264.81766235091374
 20
136.18850289834742
 30
0.0
 11
296.920310216783
 21
154.72297528540682
 31
0.0
  0
LINE
  5
437
330
17
100
AcDbEntity
  8
Kontur
100
AcDbLine
 10
262.83776336359136
 20
137.33159811164623
 30
0.0
 11
262.83776336359136
 21
136.5151015307185
 31
0.0
  0
LINE
  5
438
330
17
100
AcDbEntity
  8
Kontur
100
AcDbLine
 10
262.83776336359136
 20
137.33159811164623
 30
0.0
 11
294.94041122946066
 21
155.86607049870562
 31
0.0
  0
LINE
  5
439
330
17
100
AcDbEntity
  8
Kontur
100
AcDbLine
 10
260.85786437626905
 20
124.75755076535926
 30
0.0
 11
262.83776336359136
 21
123.61445555206043
 31
0.0
  0
LINE
  5
43A
330
17
100
AcDbEntity
  8
Kontur
100
AcDbLine
 10
262.83776336359136
 20
123.61445555206043
 30
0.0
 11
262.83776336359136
 21
126.06394529484362
 31
0.0
  0
LINE
  5
43B
330
17
100
AcDbEntity
  8
Kontur
100
AcDbLine
 10
262.83776336359136
 20
123.61445555206043
 30
0.0
 11
264.81766235091374
 21
124.75755076535926
 31
0.0
  0
LINE
  5
43C
330
17
100
AcDbEntity
  8
Kontur
100
AcDbLine
 10
262.83776336359136
 20
126.06394529484362
 30
0.0
 11
260.85786437626905
 21
127.20704050814244
 31
0.0
  0
LINE
  5
43D
330
17
100
AcDbEntity
  8
Kontur
100
AcDbLine
 10
264.81766235091374
 20
127.20704050814244
 30
0.0
 11
263.40344878854063
 21
128.02353708907015
 31
0.0
  0
LINE
  5
43E
330
17
100
AcDbEntity
  8
Kontur
100
AcDbLine
 10
262.83776336359136
 20
126.06394529484362
 30
0.0
 11
264.81766235091374
 21
127.20704050814244
 31
0.0
  0
LINE
  5
43F
330
17
100
AcDbEntity
  8
Kontur
100
AcDbLine
 10
260.85786437626905
 20
127.20704050814244
 30
0.0
 11
260.85786437626905
 21
124.75755076535926
 31
0.0
  0
LINE
  5
440
330
17
100
AcDbEntity
  8
Kontur
100
AcDbLine
 10
260.85786437626905
 20
127.20704050814244
 30
0.0
 11
262.27207793864216
 21
128.02353708907015
 31
0.0
  0
LINE
  5
441
330
17
100
AcDbEntity
  8
Kontur
100
AcDbLine
 10
298.9002092041053
 20
144.43511836571747
 30
0.0
 11
298.9002092041053
 21
146.88460810850063
 31
0.0
  0
LINE
  5
442
330
17
100
AcDbEntity
  8
Kontur
100
AcDbLine
 10
296.920310216783
 20
143.29202315241864
 30
0.0
 11
298.9002092041053
 21
144.43511836571747
 31
0.0
  0
LINE
  5
443
330
17
100
AcDbEntity
  8
Kontur
100
AcDbLine
 10
298.9002092041053
 20
146.88460810850063
 30
0.0
 11
297.4859956417322
 21
147.70110468942835
 31
0.0
  0
LINE
  5
444
330
17
100
AcDbEntity
  8
Kontur
100
AcDbLine
 10
296.920310216783
 20
145.74151289520182
 30
0.0
 11
298.9002092041053
 21
146.88460810850063
 31
0.0
  0
LINE
  5
445
330
17
100
AcDbEntity
  8
Kontur
100
AcDbLine
 10
260.85786437626905
 20
128.8400336699979
 30
0.0
 11
262.83776336359136
 21
127.69693845669907
 31
0.0
  0
LINE
  5
446
330
17
100
AcDbEntity
  8
Kontur
100
AcDbLine
 10
262.83776336359136
 20
127.69693845669907
 30
0.0
 11
262.83776336359136
 21
130.14642819948224
 31
0.0
  0
LINE
  5
447
330
17
100
AcDbEntity
  8
Kontur
100
AcDbLine
 10
262.83776336359136
 20
127.69693845669907
 30
0.0
 11
264.81766235091374
 21
128.8400336699979
 31
0.0
  0
LINE
  5
448
330
17
100
AcDbEntity
  8
Kontur
100
AcDbLine
 10
262.83776336359136
 20
130.14642819948224
 30
0.0
 11
260.85786437626905
 21
131.28952341278108
 31
0.0
  0
LINE
  5
449
330
17
100
AcDbEntity
  8
Kontur
100
AcDbLine
 10
264.81766235091374
 20
131.28952341278108
 30
0.0
 11
263.40344878854063
 21
132.1060199937088
 31
0.0
  0
LINE
  5
44A
330
17
100
AcDbEntity
  8
Kontur
100
AcDbLine
 10
262.83776336359136
 20
130.14642819948224
 30
0.0
 11
264.81766235091374
 21
131.28952341278108
 31
0.0
  0
LINE
  5
44B
330
17
100
AcDbEntity
  8
Kontur
100
AcDbLine
 10
260.85786437626905
 20
131.28952341278108
 30
0.0
 11
260.85786437626905
 21
128.8400336699979
 31
0.0
  0
LINE
  5
44C
330
17
100
AcDbEntity
  8
Kontur
100
AcDbLine
 10
260.85786437626905
 20
131.28952341278108
 30
0.0
 11
262.27207793864216
 21
132.1060199937088
 31
0.0
  0
LINE
  5
44D
330
17
100
AcDbEntity
  8
Kontur
100
AcDbLine
 10
298.9002092041053
 20
148.5176012703561
 30
0.0
 11
298.9002092041053
 21
150.96709101313928
 31
0.0
  0
LINE
  5
44E
330
17
100
AcDbEntity
  8
Kontur
100
AcDbLine
 10
296.920310216783
 20
147.37450605705726
 30
0.0
 11
298.9002092041053
 21
148.5176012703561
 31
0.0
  0
LINE
  5
44F
330
17
100
AcDbEntity
  8
Kontur
100
AcDbLine
 10
298.9002092041053
 20
150.96709101313928
 30
0.0
 11
297.4859956417322
 21
151.783587594067
 31
0.0
  0
LINE
  5
450
330
17
100
AcDbEntity
  8
Kontur
100
AcDbLine
 10
296.920310216783
 20
149.82399579984045
 30
0.0
 11
298.9002092041053
 21
150.96709101313928
 31
0.0
  0
LINE
  5
451
330
17
100
AcDbEntity
  8
Kontur
100
AcDbLine
 10
260.85786437626905
 20
132.92251657463652
 30
0.0
 11
262.83776336359136
 21
131.7794213613377
 31
0.0
  0
LINE
  5
452
330
17
100
AcDbEntity
  8
Kontur
100
AcDbLine
 10
262.83776336359136
 20
131.7794213613377
 30
0.0
 11
262.83776336359136
 21
134.22891110412087
 31
0.0
  0
LINE
  5
453
330
17
100
AcDbEntity
  8
Kontur
100
AcDbLine
 10
262.83776336359136
 20
131.7794213613377
 30
0.0
 11
264.81766235091374
 21
132.92251657463652
 31
0.0
  0
LINE
  5
454
330
17
100
AcDbEntity
  8
Kontur
100
AcDbLine
 10
262.83776336359136
 20
134.22891110412087
 30
0.0
 11
260.85786437626905
 21
135.3720063174197
 31
0.0
  0
LINE
  5
455
330
17
100
AcDbEntity
  8
Kontur
100
AcDbLine
 10
264.81766235091374
 20
135.3720063174197
 30
0.0
 11
262.83776336359136
 21
136.5151015307185
 31
0.0
  0
LINE
  5
456
330
17
100
AcDbEntity
  8
Kontur
100
AcDbLine
 10
262.83776336359136
 20
134.22891110412087
 30
0.0
 11
264.81766235091374
 21
135.3720063174197
 31
0.0
  0
LINE
  5
457
330
17
100
AcDbEntity
  8
Kontur
100
AcDbLine
 10
260.85786437626905
 20
135.3720063174197
 30
0.0
 11
260.85786437626905
 21
132.92251657463652
 31
0.0
  0
LINE
  5
458
330
17
100
AcDbEntity
  8
Kontur
100
AcDbLine
 10
260.85786437626905
 20
135.3720063174197
 30
0.0
 11
262.83776336359136
 21
136.5151015307185
 31
0.0
  0
LINE
  5
459
330
17
100
AcDbEntity
  8
Kontur
100
AcDbLine
 10
298.9002092041053
 20
152.60008417499472
 30
0.0
 11
298.9002092041053
 21
155.0495739177779
 31
0.0
  0
LINE
  5
45A
330
17
100
AcDbEntity
  8
Kontur
100
AcDbLine
 10
296.920310216783
 20
151.4569889616959
 30
0.0
 11
298.9002092041053
 21
152.60008417499472
 31
0.0
  0
LINE
  5
45B
330
17
100
AcDbEntity
  8
Kontur
100
AcDbLine
 10
298.9002092041053
 20
155.0495739177779
 30
0.0
 11
296.920310216783
 21
156.1926691310767
 31
0.0
  0
LINE
  5
45C
330
17
100
AcDbEntity
  8
Kontur
100
AcDbLine
 10
296.920310216783
 20
153.90647870447907
 30
0.0
 11
298.9002092041053
 21
155.0495739177779
 31
0.0
  0
LINE
  5
45D
330
17
100
AcDbEntity
  8
Kontur
100
AcDbLine
 10
295.6475180106472
 20
155.45782220824177
 30
0.0
 11
296.920310216783
 21
156.1926691310767
 31
0.0
  0
LINE
  5
45E
330
17
100
AcDbEntity
  8
Kontur
100
AcDbLine
 10
333.2655987697715
 20
79.85023881433432
 30
0.0
 11
335.81118318204307
 21
78.38054496866441
 31
0.0
  0
LINE
  5
45F
330
17
100
AcDbEntity
  8
Kontur
100
AcDbLine
 10
335.81118318204307
 20
78.38054496866441
 30
0.0
 11
335.81118318204307
 21
86.54551077794167
 31
0.0
  0
LINE
  5
460
330
17
100
AcDbEntity
  8
Kontur
100
AcDbLine
 10
335.81118318204307
 20
78.38054496866441
 30
0.0
 11
337.79108216936544
 21
79.52364018196323
 31
0.0
  0
LINE
  5
461
330
17
100
AcDbEntity
  8
Kontur
100
AcDbLine
 10
335.81118318204307
 20
86.54551077794167
 30
0.0
 11
333.2655987697715
 21
88.01520462361158
 31
0.0
  0
LINE
  5
462
330
17
100
AcDbEntity
  8
Kontur
100
AcDbLine
 10
335.81118318204307
 20
86.54551077794167
 30
0.0
 11
337.79108216936544
 21
87.6886059912405
 31
0.0
  0
LINE
  5
463
330
17
100
AcDbEntity
  8
Kontur
100
AcDbLine
 10
333.2655987697715
 20
88.01520462361158
 30
0.0
 11
333.2655987697715
 21
85.8923135131995
 31
0.0
  0
LINE
  5
464
330
17
100
AcDbEntity
  8
Kontur
100
AcDbLine
 10
333.2655987697715
 20
88.01520462361158
 30
0.0
 11
335.24549775709386
 21
89.1582998369104
 31
0.0
  0
LINE
  5
465
330
17
100
AcDbEntity
  8
Kontur
100
AcDbLine
 10
333.2655987697715
 20
85.8923135131995
 30
0.0
 11
335.10407640085657
 21
84.83086795799345
 31
0.0
  0
LINE
  5
466
330
17
100
AcDbEntity
  8
Kontur
100
AcDbLine
 10
335.10407640085657
 20
84.83086795799345
 30
0.0
 11
335.10407640085657
 21
82.87127616376691
 31
0.0
  0
LINE
  5
467
330
17
100
AcDbEntity
  8
Kontur
100
AcDbLine
 10
335.10407640085657
 20
82.87127616376691
 30
0.0
 11
333.2655987697715
 21
83.93272171897294
 31
0.0
  0
LINE
  5
468
330
17
100
AcDbEntity
  8
Kontur
100
AcDbLine
 10
333.2655987697715
 20
83.93272171897294
 30
0.0
 11
333.2655987697715
 21
82.62632718948859
 31
0.0
  0
LINE
  5
469
330
17
100
AcDbEntity
  8
Kontur
100
AcDbLine
 10
333.2655987697715
 20
83.93272171897294
 30
0.0
 11
334.9626550446192
 21
84.91251761608622
 31
0.0
  0
LINE
  5
46A
330
17
100
AcDbEntity
  8
Kontur
100
AcDbLine
 10
333.2655987697715
 20
82.62632718948859
 30
0.0
 11
335.10407640085657
 21
81.56488163428254
 31
0.0
  0
LINE
  5
46B
330
17
100
AcDbEntity
  8
Kontur
100
AcDbLine
 10
335.10407640085657
 20
81.56488163428254
 30
0.0
 11
335.10407640085657
 21
79.605289840056
 31
0.0
  0
LINE
  5
46C
330
17
100
AcDbEntity
  8
Kontur
100
AcDbLine
 10
335.10407640085657
 20
79.605289840056
 30
0.0
 11
333.2655987697715
 21
80.66673539526204
 31
0.0
  0
LINE
  5
46D
330
17
100
AcDbEntity
  8
Kontur
100
AcDbLine
 10
333.2655987697715
 20
80.66673539526204
 30
0.0
 11
333.2655987697715
 21
79.85023881433432
 31
0.0
  0
LINE
  5
46E
330
17
100
AcDbEntity
  8
Kontur
100
AcDbLine
 10
333.2655987697715
 20
80.66673539526204
 30
0.0
 11
334.9626550446192
 21
81.64653129237531
 31
0.0
  0
LINE
  5
46F
330
17
100
AcDbEntity
  8
Kontur
100
AcDbLine
 10
371.873629022557
 20
99.20120778232143
 30
0.0
 11
371.873629022557
 21
107.3661735915987
 31
0.0
  0
LINE
  5
470
330
17
100
AcDbEntity
  8
Kontur
100
AcDbLine
 10
369.8937300352347
 20
98.05811256902261
 30
0.0
 11
371.873629022557
 21
99.20120778232143
 31
0.0
  0
LINE
  5
471
330
17
100
AcDbEntity
  8
Kontur
100
AcDbLine
 10
371.873629022557
 20
107.3661735915987
 30
0.0
 11
369.3280446102854
 21
108.83586743726859
 31
0.0
  0
LINE
  5
472
330
17
100
AcDbEntity
  8
Kontur
100
AcDbLine
 10
369.8937300352347
 20
106.22307837829987
 30
0.0
 11
371.873629022557
 21
107.3661735915987
 31
0.0
  0
LINE
  5
473
330
17
100
AcDbEntity
  8
Kontur
100
AcDbLine
 10
367.3481456229631
 20
107.69277222396978
 30
0.0
 11
369.3280446102854
 21
108.83586743726859
 31
0.0
  0
LINE
  5
474
330
17
100
AcDbEntity
  8
Kontur
100
AcDbLine
 10
337.79108216936544
 20
79.52364018196323
 30
0.0
 11
369.8937300352347
 21
98.05811256902261
 31
0.0
  0
LINE
  5
475
330
17
100
AcDbEntity
  8
Kontur
100
AcDbLine
 10
337.79108216936544
 20
87.6886059912405
 30
0.0
 11
369.8937300352347
 21
106.22307837829987
 31
0.0
  0
LINE
  5
476
330
17
100
AcDbEntity
  8
Kontur
100
AcDbLine
 10
335.24549775709386
 20
89.1582998369104
 30
0.0
 11
367.3481456229631
 21
107.69277222396978
 31
0.0
  0
LINE
  5
477
330
17
100
AcDbEntity
  8
Kontur
100
AcDbLine
 10
314.45655839020935
 20
93.64903103201289
 30
0.0
 11
323.9317892581091
 21
88.17850393979712
 31
0.0
  0
LINE
  5
478
330
17
100
AcDbEntity
  8
Kontur
100
AcDbLine
 10
323.9317892581091
 20
88.17850393979712
 30
0.0
 11
323.9317892581091
 21
88.99500052072486
 31
0.0
  0
LINE
  5
479
330
17
100
AcDbEntity
  8
Kontur
100
AcDbLine
 10
357.44865068635147
 20
107.52947290778424
 30
0.0
 11
357.44865068635147
 21
108.34596948871196
 31
0.0
  0
LINE
  5
47A
330
17
100
AcDbEntity
  8
Kontur
100
AcDbLine
 10
323.9317892581091
 20
88.17850393979712
 30
0.0
 11
357.44865068635147
 21
107.52947290778424
 31
0.0
  0
LINE
  5
47B
330
17
100
AcDbEntity
  8
Kontur
100
AcDbLine
 10
323.9317892581091
 20
88.99500052072486
 30
0.0
 11
313.7494516090228
 21
94.87377590340448
 31
0.0
  0
LINE
  5
47C
330
17
100
AcDbEntity
  8
Kontur
100
AcDbLine
 10
357.44865068635147
 20
108.34596948871196
 30
0.0
 11
309.7896536343781
 21
135.86190426597634
 31
0.0
  0
LINE
  5
47D
330
17
100
AcDbEntity
  8
Kontur
100
AcDbLine
 10
323.9317892581091
 20
88.99500052072486
 30
0.0
 11
357.44865068635147
 21
108.34596948871196
 31
0.0
  0
LINE
  5
47E
330
17
100
AcDbEntity
  8
Kontur
100
AcDbLine
 10
280.939696961967
 20
119.20537401505072
 30
0.0
 11
309.7896536343781
 21
135.86190426597634
 31
0.0
  0
LWPOLYLINE
  5
47F
330
17
100
AcDbEntity
  8
Rahmen
100
AcDbPolyline
 90
4
 70
1
 10
226.0
 20
10.0
 10
410.0
 20
10.0
 10
410.0
 20
74.0
 10
226.0
 20
74.0
  0
LINE
  5
480
330
17
100
AcDbEntity
  8
Schriftfeld
100
AcDbLine
 10
282.0
 20
10.0
 30
0.0
 11
282.0
 21
74.0
 31
0.0
  0
LINE
  5
481
330
17
100
AcDbEntity
  8
Schriftfeld
100
AcDbLine
 10
330.0
 20
10.0
 30
0.0
 11
330.0
 21
74.0
 31
0.0
  0
LINE
  5
482
330
17
100
AcDbEntity
  8
Schriftfeld
100
AcDbLine
 10
226.0
 20
58.0
 30
0.0
 11
330.0
 21
58.0
 31
0.0
  0
LINE
  5
483
330
17
100
AcDbEntity
  8
Schriftfeld
100
AcDbLine
 10
306.0
 20
58.0
 30
0.0
 11
306.0
 21
74.0
 31
0.0
  0
LINE
  5
484
330
17
100
AcDbEntity
  8
Schriftfeld
100
AcDbLine
 10
282.0
 20
58.0
 30
0.0
 11
282.0
 21
74.0
 31
0.0
  0
LINE
  5
485
330
17
100
AcDbEntity
  8
Schriftfeld
100
AcDbLine
 10
330.0
 20
66.0
 30
0.0
 11
410.0
 21
66.0
 31
0.0
  0
LINE
  5
486
330
17
100
AcDbEntity
  8
Schriftfeld
100
AcDbLine
 10
330.0
 20
58.0
 30
0.0
 11
410.0
 21
58.0
 31
0.0
  0
LINE
  5
487
330
17
100
AcDbEntity
  8
Schriftfeld
100
AcDbLine
 10
378.0
 20
66.0
 30
0.0
 11
378.0
 21
74.0
 31
0.0
  0
TEXT
  5
488
330
17
100
AcDbEntity
  8
Text
100
AcDbText
 10
227.0
 20
71.0
 30
0.0
 40
1.8
  1
(Verwendungsbereich)
  7
ISO
 11
227.0
 21
71.0
 31
0.0
100
AcDbText
  0
TEXT
  5
489
330
17
100
AcDbEntity
  8
Text
100
AcDbText
 10
283.0
 20
71.0
 30
0.0
 40
1.8
  1
(Zul.Abw.)
  7
ISO
 11
283.0
 21
71.0
 31
0.0
100
AcDbText
  0
TEXT
  5
48A
330
17
100
AcDbEntity
  8
Text
100
AcDbText
 10
307.0
 20
71.0
 30
0.0
 40
1.8
  1
Oberfläche
  7
ISO
 11
307.0
 21
71.0
 31
0.0
100
AcDbText
  0
TEXT
  5
48B
330
17
100
AcDbEntity
  8
Text
100
AcDbText
 10
331.0
 20
71.0
 30
0.0
 40
1.8
  1
Maßstab
  7
ISO
 11
331.0
 21
71.0
 31
0.0
100
AcDbText
  0
TEXT
  5
48C
330
17
100
AcDbEntity
  8
Text
100
AcDbText
 10
344.0
 20
67.5
 30
0.0
 40
2.5
  1
1:1/1:5/Isometrie
  7
ISO
 11
344.0
 21
67.5
 31
0.0
100
AcDbText
  0
TEXT
  5
48D
330
17
100
AcDbEntity
  8
Text
100
AcDbText
 10
379.0
 20
71.0
 30
0.0
 40
1.8
  1
(Gewicht)
  7
ISO
 11
379.0
 21
71.0
 31
0.0
100
AcDbText
  0
TEXT
  5
48E
330
17
100
AcDbEntity
  8
Text
100
AcDbText
 10
331.0
 20
63.5
 30
0.0
 40
1.8
  1
(Werkstoff)
  7
ISO
 11
331.0
 21
63.5
 31
0.0
100
AcDbText
  0
TEXT
  5
48F
330
17
100
AcDbEntity
  8
Text
100
AcDbText
 10
333.0
 20
59.2
 30
0.0
 40
2.5
  1
KI
  7
ISO
 11
333.0
 21
59.2
 31
0.0
100
AcDbText
  0
LINE
  5
490
330
17
100
AcDbEntity
  8
Duenn
100
AcDbLine
 10
226.0
 20
15.0
 30
0.0
 11
282.0
 21
15.0
 31
0.0
  0
LINE
  5
491
330
17
100
AcDbEntity
  8
Duenn
100
AcDbLine
 10
226.0
 20
20.0
 30
0.0
 11
282.0
 21
20.0
 31
0.0
  0
LINE
  5
492
330
17
100
AcDbEntity
  8
Duenn
100
AcDbLine
 10
226.0
 20
25.0
 30
0.0
 11
282.0
 21
25.0
 31
0.0
  0
LINE
  5
493
330
17
100
AcDbEntity
  8
Duenn
100
AcDbLine
 10
226.0
 20
30.0
 30
0.0
 11
282.0
 21
30.0
 31
0.0
  0
LINE
  5
494
330
17
100
AcDbEntity
  8
Duenn
100
AcDbLine
 10
226.0
 20
35.0
 30
0.0
 11
282.0
 21
35.0
 31
0.0
  0
LINE
  5
495
330
17
100
AcDbEntity
  8
Duenn
100
AcDbLine
 10
226.0
 20
40.0
 30
0.0
 11
282.0
 21
40.0
 31
0.0
  0
LINE
  5
496
330
17
100
AcDbEntity
  8
Duenn
100
AcDbLine
 10
226.0
 20
45.0
 30
0.0
 11
282.0
 21
45.0
 31
0.0
  0
LINE
  5
497
330
17
100
AcDbEntity
  8
Duenn
100
AcDbLine
 10
226.0
 20
50.0
 30
0.0
 11
282.0
 21
50.0
 31
0.0
  0
LINE
  5
498
330
17
100
AcDbEntity
  8
Duenn
100
AcDbLine
 10
234.0
 20
10.0
 30
0.0
 11
234.0
 21
55.0
 31
0.0
  0
LINE
  5
499
330
17
100
AcDbEntity
  8
Duenn
100
AcDbLine
 10
256.0
 20
10.0
 30
0.0
 11
256.0
 21
55.0
 31
0.0
  0
LINE
  5
49A
330
17
100
AcDbEntity
  8
Duenn
100
AcDbLine
 10
270.0
 20
10.0
 30
0.0
 11
270.0
 21
55.0
 31
0.0
  0
TEXT
  5
49B
330
17
100
AcDbEntity
  8
Text
100
AcDbText
 10
226.8
 20
11.4
 30
0.0
 40
1.8
  1
Zust.
  7
ISO
 11
226.8
 21
11.4
 31
0.0
100
AcDbText
  0
TEXT
  5
49C
330
17
100
AcDbEntity
  8
Text
100
AcDbText
 10
235.0
 20
11.4
 30
0.0
 40
1.8
  1
Änderung
  7
ISO
 11
235.0
 21
11.4
 31
0.0
100
AcDbText
  0
TEXT
  5
49D
330
17
100
AcDbEntity
  8
Text
100
AcDbText
 10
257.0
 20
11.4
 30
0.0
 40
1.8
  1
Datum
  7
ISO
 11
257.0
 21
11.4
 31
0.0
100
AcDbText
  0
TEXT
  5
49E
330
17
100
AcDbEntity
  8
Text
100
AcDbText
 10
271.0
 20
11.4
 30
0.0
 40
1.8
  1
Name
  7
ISO
 11
271.0
 21
11.4
 31
0.0
100
AcDbText
  0
LINE
  5
49F
330
17
100
AcDbEntity
  8
Schriftfeld
100
AcDbLine
 10
282.0
 20
32.0
 30
0.0
 11
330.0
 21
32.0
 31
0.0
  0
LINE
  5
4A0
330
17
100
AcDbEntity
  8
Schriftfeld
100
AcDbLine
 10
282.0
 20
38.0
 30
0.0
 11
330.0
 21
38.0
 31
0.0
  0
LINE
  5
4A1
330
17
100
AcDbEntity
  8
Schriftfeld
100
AcDbLine
 10
282.0
 20
44.0
 30
0.0
 11
330.0
 21
44.0
 31
0.0
  0
LINE
  5
4A2
330
17
100
AcDbEntity
  8
Schriftfeld
100
AcDbLine
 10
282.0
 20
50.0
 30
0.0
 11
330.0
 21
50.0
 31
0.0
  0
LINE
  5
4A3
330
17
100
AcDbEntity
  8
Schriftfeld
100
AcDbLine
 10
296.0
 20
32.0
 30
0.0
 11
296.0
 21
58.0
 31
0.0
  0
LINE
  5
4A4
330
17
100
AcDbEntity
  8
Schriftfeld
100
AcDbLine
 10
313.0
 20
32.0
 30
0.0
 11
313.0
 21
58.0
 31
0.0
  0
TEXT
  5
4A5
330
17
100
AcDbEntity
  8
Text
100
AcDbText
 10
298.0
 20
51.5
 30
0.0
 40
1.8
  1
Datum
  7
ISO
 11
298.0
 21
51.5
 31
0.0
100
AcDbText
  0
TEXT
  5
4A6
330
17
100
AcDbEntity
  8
Text
100
AcDbText
 10
315.0
 20
51.5
 30
0.0
 40
1.8
  1
Name
  7
ISO
 11
315.0
 21
51.5
 31
0.0
100
AcDbText
  0
TEXT
  5
4A7
330
17
100
AcDbEntity
  8
Text
100
AcDbText
 10
283.0
 20
45.5
 30
0.0
 40
1.8
  1
Bearb.
  7
ISO
 11
283.0
 21
45.5
 31
0.0
100
AcDbText
  0
TEXT
  5
4A8
330
17
100
AcDbEntity
  8
Text
100
AcDbText
 10
283.0
 20
39.5
 30
0.0
 40
1.8
  1
Gepr.
  7
ISO
 11
283.0
 21
39.5
 31
0.0
100
AcDbText
  0
TEXT
  5
4A9
330
17
100
AcDbEntity
  8
Text
100
AcDbText
 10
283.0
 20
33.5
 30
0.0
 40
1.8
  1
Norm
  7
ISO
 11
283.0
 21
33.5
 31
0.0
100
AcDbText
  0
TEXT
  5
4AA
330
17
100
AcDbEntity
  8
Text
100
AcDbText
 10
297.0
 20
45.5
 30
0.0
 40
1.6
  1
01.10.2026
  7
ISO
 11
297.0
 21
45.5
 31
0.0
100
AcDbText
  0
LINE
  5
4AB
330
17
100
AcDbEntity
  8
Schriftfeld
100
AcDbLine
 10
282.0
 20
15.0
 30
0.0
 11
330.0
 21
15.0
 31
0.0
  0
LWPOLYLINE
  5
4AC
330
17
100
AcDbEntity
  8
Schriftfeld
100
AcDbPolyline
 90
4
 70
1
 10
284.0
 20
18.0
 10
296.0
 20
18.0
 10
296.0
 20
29.0
 10
284.0
 20
29.0
  0
TEXT
  5
4AD
330
17
100
AcDbEntity
  8
Text
100
AcDbText
 10
290.0
 20
23.5
 30
0.0
 40
5.0
  1
HK
  7
ISO
 72
1
 11
290.0
 21
23.5
 31
0.0
100
AcDbText
 73
2
  0
TEXT
  5
4AE
330
17
100
AcDbEntity
  8
Text
100
AcDbText
 10
298.0
 20
26.0
 30
0.0
 40
2.2
  1
Fachverband
  7
ISO
 11
298.0
 21
26.0
 31
0.0
100
AcDbText
  0
TEXT
  5
4AF
330
17
100
AcDbEntity
  8
Text
100
AcDbText
 10
298.0
 20
22.5
 30
0.0
 40
2.2
  1
Holz und
  7
ISO
 11
298.0
 21
22.5
 31
0.0
100
AcDbText
  0
TEXT
  5
4B0
330
17
100
AcDbEntity
  8
Text
100
AcDbText
 10
298.0
 20
19.0
 30
0.0
 40
2.2
  1
Kunststoff NRW
  7
ISO
 11
298.0
 21
19.0
 31
0.0
100
AcDbText
  0
TEXT
  5
4B1
330
17
100
AcDbEntity
  8
Text
100
AcDbText
 10
283.0
 20
11.4
 30
0.0
 40
1.8
  1
(Urspr.)
  7
ISO
 11
283.0
 21
11.4
 31
0.0
100
AcDbText
  0
TEXT
  5
4B2
330
17
100
AcDbEntity
  8
Text
100
AcDbText
 10
331.0
 20
54.5
 30
0.0
 40
1.8
  1
Benennung
  7
ISO
 11
331.0
 21
54.5
 31
0.0
100
AcDbText
  0
TEXT
  5
4B3
330
17
100
AcDbEntity
  8
Text
100
AcDbText
 10
334.0
 20
44.0
 30
0.0
 40
5.0
  1
Stapelkasten
  7
ISO
 11
334.0
 21
44.0
 31
0.0
100
AcDbText
  0
LINE
  5
4B4
330
17
100
AcDbEntity
  8
Schriftfeld
100
AcDbLine
 10
330.0
 20
32.0
 30
0.0
 11
410.0
 21
32.0
 31
0.0
  0
LINE
  5
4B5
330
17
100
AcDbEntity
  8
Schriftfeld
100
AcDbLine
 10
390.0
 20
15.0
 30
0.0
 11
390.0
 21
32.0
 31
0.0
  0
TEXT
  5
4B6
330
17
100
AcDbEntity
  8
Text
100
AcDbText
 10
331.0
 20
28.5
 30
0.0
 40
1.8
  1
(Zeichnungsnummer)
  7
ISO
 11
331.0
 21
28.5
 31
0.0
100
AcDbText
  0
TEXT
  5
4B7
330
17
100
AcDbEntity
  8
Text
100
AcDbText
 10
334.0
 20
19.0
 30
0.0
 40
5.0
  1
Z-10-1
  7
ISO
 11
334.0
 21
19.0
 31
0.0
100
AcDbText
  0
TEXT
  5
4B8
330
17
100
AcDbEntity
  8
Text
100
AcDbText
 10
391.0
 20
28.5
 30
0.0
 40
1.8
  1
Blatt
  7
ISO
 11
391.0
 21
28.5
 31
0.0
100
AcDbText
  0
TEXT
  5
4B9
330
17
100
AcDbEntity
  8
Text
100
AcDbText
 10
400.0
 20
19.0
 30
0.0
 40
5.0
  1
1
  7
ISO
 11
400.0
 21
19.0
 31
0.0
100
AcDbText
  0
LINE
  5
4BA
330
17
100
AcDbEntity
  8
Schriftfeld
100
AcDbLine
 10
330.0
 20
15.0
 30
0.0
 11
410.0
 21
15.0
 31
0.0
  0
LINE
  5
4BB
330
17
100
AcDbEntity
  8
Schriftfeld
100
AcDbLine
 10
370.0
 20
10.0
 30
0.0
 11
370.0
 21
15.0
 31
0.0
  0
TEXT
  5
4BC
330
17
100
AcDbEntity
  8
Text
100
AcDbText
 10
331.0
 20
11.4
 30
0.0
 40
1.8
  1
(Ers. f.:)
  7
ISO
 11
331.0
 21
11.4
 31
0.0
100
AcDbText
  0
TEXT
  5
4BD
330
17
100
AcDbEntity
  8
Text
100
AcDbText
 10
371.0
 20
11.4
 30
0.0
 40
1.8
  1
(Ers. d.:)
  7
ISO
 11
371.0
 21
11.4
 31
0.0
100
AcDbText
  0
ENDSEC
  0
SECTION
  2
OBJECTS
  0
DICTIONARY
  5
A
330
0
100
AcDbDictionary
281
1
  3
ACAD_COLOR
350
B
  3
ACAD_GROUP
350
C
  3
ACAD_LAYOUT
350
D
  3
ACAD_MATERIAL
350
E
  3
ACAD_MLEADERSTYLE
350
F
  3
ACAD_MLINESTYLE
350
10
  3
ACAD_PLOTSETTINGS
350
11
  3
ACAD_PLOTSTYLENAME
350
12
  3
ACAD_SCALELIST
350
14
  3
ACAD_TABLESTYLE
350
15
  3
ACAD_VISUALSTYLE
350
16
  3
EZDXF_META
350
2D
  0
DICTIONARY
  5
B
330
A
100
AcDbDictionary
281
1
  0
DICTIONARY
  5
C
330
A
100
AcDbDictionary
281
1
  0
DICTIONARY
  5
D
330
A
100
AcDbDictionary
281
1
  3
Model
350
1A
  3
Layout1
350
1E
  0
DICTIONARY
  5
E
330
A
100
AcDbDictionary
281
1
  3
ByBlock
350
1F
  3
ByLayer
350
20
  3
Global
350
21
  0
DICTIONARY
  5
F
330
A
100
AcDbDictionary
281
1
  3
Standard
350
2C
  0
DICTIONARY
  5
10
330
A
100
AcDbDictionary
281
1
  3
Standard
350
22
  0
DICTIONARY
  5
11
330
A
100
AcDbDictionary
281
1
  0
ACDBDICTIONARYWDFLT
  5
12
330
A
100
AcDbDictionary
281
1
  3
Normal
350
13
100
AcDbDictionaryWithDefault
340
13
  0
ACDBPLACEHOLDER
  5
13
330
12
  0
DICTIONARY
  5
14
330
A
100
AcDbDictionary
281
1
  0
DICTIONARY
  5
15
330
A
100
AcDbDictionary
281
1
  0
DICTIONARY
  5
16
330
A
100
AcDbDictionary
281
1
  3
2dWireframe
350
5A
  3
Basic
350
5B
  3
Brighten
350
5C
  3
ColorChange
350
5D
  3
Conceptual
350
5E
  3
Dim
350
5F
  3
EdgeColorOff
350
60
  3
Facepattern
350
61
  3
Flat
350
62
  3
FlatWithEdges
350
63
  3
Gouraud
350
64
  3
GouraudWithEdges
350
65
  3
Hidden
350
66
  3
JitterOff
350
67
  3
Linepattern
350
68
  3
Modeling
350
69
  3
OverhangOff
350
6A
  3
Realistic
350
6B
  3
Shaded
350
6C
  3
Shaded with edges
350
6D
  3
Shades of Gray
350
6E
  3
Sketchy
350
6F
  3
Thicken
350
70
  3
Wireframe
350
71
  3
X-Ray
350
72
  0
LAYOUT
  5
1A
330
D
100
AcDbPlotSettings
  1

  4
A3
  6

 40
7.5
 41
20.0
 42
7.5
 43
20.0
 44
420.0
 45
297.0
 46
0.0
 47
0.0
 48
0.0
 49
0.0
140
0.0
141
0.0
142
1.0
143
1.0
 70
1024
 72
1
 73
0
 74
5
  7

 75
16
 76
0
 77
2
 78
300
147
1.0
148
0.0
149
0.0
100
AcDbLayout
  1
Model
 70
1
 71
0
 10
0.0
 20
0.0
 11
420.0
 21
297.0
 12
0.0
 22
0.0
 32
0.0
 14
1e+20
 24
1e+20
 34
1e+20
 15
-1e+20
 25
-1e+20
 35
-1e+20
146
0.0
 13
0.0
 23
0.0
 33
0.0
 16
1.0
 26
0.0
 36
0.0
 17
0.0
 27
1.0
 37
0.0
 76
1
330
17
  0
LAYOUT
  5
1E
330
D
100
AcDbPlotSettings
  1

  4
A3
  6

 40
7.5
 41
20.0
 42
7.5
 43
20.0
 44
420.0
 45
297.0
 46
0.0
 47
0.0
 48
0.0
 49
0.0
140
0.0
141
0.0
142
1.0
143
1.0
 70
0
 72
1
 73
0
 74
5
  7

 75
16
 76
0
 77
2
 78
300
147
1.0
148
0.0
149
0.0
100
AcDbLayout
  1
Layout1
 70
1
 71
1
 10
0.0
 20
0.0
 11
420.0
 21
297.0
 12
0.0
 22
0.0
 32
0.0
 14
1e+20
 24
1e+20
 34
1e+20
 15
-1e+20
 25
-1e+20
 35
-1e+20
146
0.0
 13
0.0
 23
0.0
 33
0.0
 16
1.0
 26
0.0
 36
0.0
 17
0.0
 27
1.0
 37
0.0
 76
1
330
1B
  0
MATERIAL
  5
1F
102
{ACAD_REACTORS
330
E
102
}
330
E
100
AcDbMaterial
  1
ByBlock
  2

 70
0
 40
1.0
 71
1
 41
1.0
 91
-1023410177
 42
1.0
 72
1
  3

 73
1
 74
1
 75
1
 44
0.5
 73
0
 45
1.0
 46
1.0
 77
1
  4

 78
1
 79
1
170
1
 48
1.0
171
1
  6

172
1
173
1
174
1
140
1.0
141
1.0
175
1
  7

176
1
177
1
178
1
143
1.0
179
1
  8

270
1
271
1
272
1
145
1.0
146
1.0
273
1
  9

274
1
275
1
276
1
 42
1.0
 72
1
  3

 73
1
 74
1
 75
1
 94
63
  0
MATERIAL
  5
20
102
{ACAD_REACTORS
330
E
102
}
330
E
100
AcDbMaterial
  1
ByLayer
  2

 70
0
 40
1.0
 71
1
 41
1.0
 91
-1023410177
 42
1.0
 72
1
  3

 73
1
 74
1
 75
1
 44
0.5
 73
0
 45
1.0
 46
1.0
 77
1
  4

 78
1
 79
1
170
1
 48
1.0
171
1
  6

172
1
173
1
174
1
140
1.0
141
1.0
175
1
  7

176
1
177
1
178
1
143
1.0
179
1
  8

270
1
271
1
272
1
145
1.0
146
1.0
273
1
  9

274
1
275
1
276
1
 42
1.0
 72
1
  3

 73
1
 74
1
 75
1
 94
63
  0
MATERIAL
  5
21
102
{ACAD_REACTORS
330
E
102
}
330
E
100
AcDbMaterial
  1
Global
  2

 70
0
 40
1.0
 71
1
 41
1.0
 91
-1023410177
 42
1.0
 72
1
  3

 73
1
 74
1
 75
1
 44
0.5
 73
0
 45
1.0
 46
1.0
 77
1
  4

 78
1
 79
1
170
1
 48
1.0
171
1
  6

172
1
173
1
174
1
140
1.0
141
1.0
175
1
  7

176
1
177
1
178
1
143
1.0
179
1
  8

270
1
271
1
272
1
145
1.0
146
1.0
273
1
  9

274
1
275
1
276
1
 42
1.0
 72
1
  3

 73
1
 74
1
 75
1
 94
63
  0
MLINESTYLE
  5
22
102
{ACAD_REACTORS
330
10
102
}
330
10
100
AcDbMlineStyle
  2
Standard
 70
0
  3

 62
256
 51
90.0
 52
90.0
 71
2
 49
0.5
 62
256
  6
BYLAYER
 49
-0.5
 62
256
  6
BYLAYER
  0
MLEADERSTYLE
  5
2C
102
{ACAD_REACTORS
330
F
102
}
330
F
100
AcDbMLeaderStyle
179
2
170
2
171
1
172
0
 90
2
 40
0.0
 41
0.0
173
1
 91
-1056964608
 92
-2
290
1
 42
2.0
291
1
 43
8.0
  3
Standard
 44
4.0
300

342
29
174
1
175
1
176
0
178
1
 93
-1056964608
 45
4.0
292
0
297
0
 46
4.0
 94
-1056964608
 47
1.0
 49
1.0
140
1.0
294
1
141
0.0
177
0
142
1.0
295
0
296
0
143
3.75
271
0
272
9
273
9
  0
DICTIONARY
  5
2D
330
A
100
AcDbDictionary
280
1
281
1
  3
CREATED_BY_EZDXF
350
2E
  3
WRITTEN_BY_EZDXF
350
4C0
  0
DICTIONARYVAR
  5
2E
330
2D
100
DictionaryVariables
280
0
  1
1.4.4 @ 2026-10-01T17:23:49.791542+00:00
  0
VISUALSTYLE
  5
5A
102
{ACAD_REACTORS
330
16
102
}
330
16
100
AcDbVisualStyle
  2
2dWireframe
 70
4
 90
0
 40
0.6
 62
7
290
0
291
0
  0
VISUALSTYLE
  5
5B
102
{ACAD_REACTORS
330
16
102
}
330
16
100
AcDbVisualStyle
  2
Basic
 70
7
 90
1
 40
0.6
 62
7
290
0
291
1
  0
VISUALSTYLE
  5
5C
102
{ACAD_REACTORS
330
16
102
}
330
16
100
AcDbVisualStyle
  2
Brighten
 70
12
 90
2
 40
0.6
 62
7
290
0
291
1
  0
VISUALSTYLE
  5
5D
102
{ACAD_REACTORS
330
16
102
}
330
16
100
AcDbVisualStyle
  2
ColorChange
 70
16
 90
2
 40
0.6
 62
8
290
0
291
1
  0
VISUALSTYLE
  5
5E
102
{ACAD_REACTORS
330
16
102
}
330
16
100
AcDbVisualStyle
  2
Conceptual
 70
9
 90
3
 40
0.6
 62
7
290
0
291
0
  0
VISUALSTYLE
  5
5F
102
{ACAD_REACTORS
330
16
102
}
330
16
100
AcDbVisualStyle
  2
Dim
 70
11
 90
2
 40
0.6
 62
7
290
0
291
1
  0
VISUALSTYLE
  5
60
102
{ACAD_REACTORS
330
16
102
}
330
16
100
AcDbVisualStyle
  2
EdgeColorOff
 70
22
 90
2
 40
0.6
 62
7
290
0
291
1
  0
VISUALSTYLE
  5
61
102
{ACAD_REACTORS
330
16
102
}
330
16
100
AcDbVisualStyle
  2
Facepattern
 70
15
 90
2
 40
0.6
 62
7
290
0
291
1
  0
VISUALSTYLE
  5
62
102
{ACAD_REACTORS
330
16
102
}
330
16
100
AcDbVisualStyle
  2
Flat
 70
0
 90
2
 40
0.6
 62
7
290
0
291
1
  0
VISUALSTYLE
  5
63
102
{ACAD_REACTORS
330
16
102
}
330
16
100
AcDbVisualStyle
  2
FlatWithEdges
 70
1
 90
2
 40
0.6
 62
7
290
0
291
1
  0
VISUALSTYLE
  5
64
102
{ACAD_REACTORS
330
16
102
}
330
16
100
AcDbVisualStyle
  2
Gouraud
 70
2
 90
2
 40
0.6
 62
7
290
0
291
1
  0
VISUALSTYLE
  5
65
102
{ACAD_REACTORS
330
16
102
}
330
16
100
AcDbVisualStyle
  2
GouraudWithEdges
 70
3
 90
2
 40
0.6
 62
7
290
0
291
1
  0
VISUALSTYLE
  5
66
102
{ACAD_REACTORS
330
16
102
}
330
16
100
AcDbVisualStyle
  2
Hidden
 70
6
 90
1
 40
0.6
 62
7
290
0
291
0
  0
VISUALSTYLE
  5
67
102
{ACAD_REACTORS
330
16
102
}
330
16
100
AcDbVisualStyle
  2
JitterOff
 70
20
 90
2
 40
0.6
 62
7
290
0
291
1
  0
VISUALSTYLE
  5
68
102
{ACAD_REACTORS
330
16
102
}
330
16
100
AcDbVisualStyle
  2
Linepattern
 70
14
 90
2
 40
0.6
 62
7
290
0
291
1
  0
VISUALSTYLE
  5
69
102
{ACAD_REACTORS
330
16
102
}
330
16
100
AcDbVisualStyle
  2
Modeling
 70
10
 90
2
 40
0.6
 62
7
290
0
291
0
  0
VISUALSTYLE
  5
6A
102
{ACAD_REACTORS
330
16
102
}
330
16
100
AcDbVisualStyle
  2
OverhangOff
 70
21
 90
2
 40
0.6
 62
7
290
0
291
1
  0
VISUALSTYLE
  5
6B
102
{ACAD_REACTORS
330
16
102
}
330
16
100
AcDbVisualStyle
  2
Realistic
 70
8
 90
2
 40
0.6
 62
7
290
0
291
0
  0
VISUALSTYLE
  5
6C
102
{ACAD_REACTORS
330
16
102
}
330
16
100
AcDbVisualStyle
  2
Shaded
 70
27
 90
2
 40
0.6
 62
7
290
0
291
0
  0
VISUALSTYLE
  5
6D
102
{ACAD_REACTORS
330
16
102
}
330
16
100
AcDbVisualStyle
  2
Shaded with edges
 70
26
 90
2
 40
0.6
 62
7
290
0
291
0
  0
VISUALSTYLE
  5
6E
102
{ACAD_REACTORS
330
16
102
}
330
16
100
AcDbVisualStyle
  2
Shades of Gray
 70
23
 90
2
 40
0.6
 62
7
290
0
291
0
  0
VISUALSTYLE
  5
6F
102
{ACAD_REACTORS
330
16
102
}
330
16
100
AcDbVisualStyle
  2
Sketchy
 70
24
 90
1
 40
0.6
 62
7
290
0
291
0
  0
VISUALSTYLE
  5
70
102
{ACAD_REACTORS
330
16
102
}
330
16
100
AcDbVisualStyle
  2
Thicken
 70
13
 90
2
 40
0.6
 62
7
290
0
291
1
  0
VISUALSTYLE
  5
71
102
{ACAD_REACTORS
330
16
102
}
330
16
100
AcDbVisualStyle
  2
Wireframe
 70
5
 90
0
 40
0.6
 62
7
290
0
291
0
  0
VISUALSTYLE
  5
72
102
{ACAD_REACTORS
330
16
102
}
330
16
100
AcDbVisualStyle
  2
X-Ray
 70
25
 90
2
 40
0.5
 62
7
290
0
291
0
  0
DICTIONARYVAR
  5
4C0
330
2D
100
DictionaryVariables
280
0
  1
1.4.4 @ 2026-10-01T17:23:51.732469+00:00
  0
ENDSEC
  0
EOF
